SplineFontDB: 3.0
FontName: Exo-DemiBoldItalic
FullName: Exo DemiBold Italic
FamilyName: Exo
Weight: Demi
Copyright: Copyright (c) 2011 Natanael Gama (exo@ndiscovered.com), with Reserved Font Name "Exo"
Version: 1
ItalicAngle: 0
UnderlinePosition: -50
UnderlineWidth: 50
Ascent: 800
Descent: 200
LayerCount: 2
Layer: 0 0 "Back"  1
Layer: 1 0 "Fore"  0
XUID: [1021 762 1116966003 8705021]
FSType: 8
OS2Version: 0
OS2_WeightWidthSlopeOnly: 0
OS2_UseTypoMetrics: 1
CreationTime: 1317848041
ModificationTime: 1325018067
PfmFamily: 33
TTFWeight: 600
TTFWidth: 5
LineGap: 90
VLineGap: 0
OS2TypoAscent: 0
OS2TypoAOffset: 1
OS2TypoDescent: 0
OS2TypoDOffset: 1
OS2TypoLinegap: 90
OS2WinAscent: 0
OS2WinAOffset: 1
OS2WinDescent: 0
OS2WinDOffset: 1
HheadAscent: 0
HheadAOffset: 1
HheadDescent: 0
HheadDOffset: 1
OS2Vendor: 'PfEd'
Lookup: 4 0 0 "'ordn' Ordinals lookup 21"  {"'ordn' Ordinals lookup 21-1"  } ['ordn' ('DFLT' <'dflt' > 'grek' <'dflt' > 'latn' <'dflt' > ) ]
Lookup: 1 0 0 "'smcp' Lowercase to Small Capitals lookup 16"  {"'smcp' Lowercase to Small Capitals lookup 16-1" ("smcp" ) } ['smcp' ('DFLT' <'dflt' > 'grek' <'dflt' > 'latn' <'FRA ' 'dflt' > ) ]
Lookup: 1 0 0 "'c2sc' Capitals to Small Capitals in Latin lookup 17"  {"'c2sc' Capitals to Small Capitals in Latin lookup 17 subtable" ("smcp" ) } ['c2sc' ('latn' <'dflt' > ) ]
Lookup: 4 0 0 "'dlig' Discretionary Ligatures lookup 14"  {"'dlig' Discretionary Ligatures lookup 14-1"  } ['dlig' ('DFLT' <'dflt' > 'grek' <'dflt' > 'latn' <'dflt' > ) ]
Lookup: 4 0 1 "'liga' Standard Ligatures lookup 15"  {"'liga' Standard Ligatures lookup 15-1"  } ['liga' ('DFLT' <'dflt' > 'grek' <'dflt' > 'latn' <'FRA ' 'dflt' > ) ]
Lookup: 1 0 0 "'frac' Diagonal Fractions lookup 13"  {"'frac' Diagonal Fractions lookup 13-1"  } ['frac' ('DFLT' <'dflt' > 'grek' <'dflt' > 'latn' <'FRA ' 'dflt' > ) ]

StartChar: a
Encoding: 97 97 0
Width: 541
VWidth: 0
Flags: HW
HStem: -6.2998 102.35<205.047 325.679> 0.700195 21G<406.702 503.877> 0.700195 21G<406.702 503.877>
DStem2: 404.85 145.45 500.95 0.700195 0.144809 0.98946<-17.7703 291.456>
LayerCount: 2
Fore
SplineSet
193.8 263.95 m 0
 176 149.75 189.75 96.0498 257.95 96.0498 c 0
 322.7 96.0498 359.6 115.05 404.85 145.45 c 1
 448.1 431 l 1
 406.3 443.85 351.4 449.75 317.75 442.8 c 0
 265.35 432.55 218.15 418.55 193.8 263.95 c 0
81.1504 289.9 m 0
 121 508.65 229.5 534.5 319.2 541 c 0
 393.4 546.85 519.95 528 570.95 479 c 1
 500.95 0.700195 l 1
 412.95 0.700195 l 1
 395.3 57.2002 l 1
 368.05 29.4502 294 -6.2998 225.4 -6.2998 c 0
 118.05 -6.2998 40.0996 62.9004 81.1504 289.9 c 0
EndSplineSet
AlternateSubs2: "'salt' Access All Alternates in Latin lookup 4-1" a.salt
Substitution2: "'smcp' Lowercase to Small Capitals lookup 16-1" a.smcp
EndChar

StartChar: z
Encoding: 122 122 1
Width: 467
VWidth: 0
Flags: HW
LayerCount: 2
Fore
SplineSet
40.45 1 m 1
 54.7 102.3 l 1
 360.5 429 l 1
 94.55 429 l 1
 109.45 531 l 1
 526.45 531 l 1
 511.55 429 l 1
 215.25 103 l 1
 458 103 l 1
 459 102 442.45 1 442.45 1 c 1
 40.45 1 l 1
EndSplineSet
Substitution2: "'smcp' Lowercase to Small Capitals lookup 16-1" z.smcp
EndChar

StartChar: e
Encoding: 101 101 2
Width: 526
VWidth: 0
Flags: HW
HStem: -7 97.25<200.844 452.612> 442.5 98.5<262.531 423.686>
LayerCount: 2
Fore
SplineSet
200.8 293.25 m 1
 200.8 293.25 414.8 263.65 433.95 375.75 c 0
 443.85 433.1 410.35 442.85 342.35 442.5 c 0
 224.3 441.8 215.6 368.15 200.8 293.25 c 1
82.7 292 m 0
 113.7 455 155.2 540.3 350.2 541 c 0
 468.85 541.35 562.85 507.85 552.05 388 c 0
 532.1 154.3 227.35 199.75 190.35 214.75 c 1
 174.25 118.05 193.6 90.9 264.6 90.25 c 1
 330.1 86.35 425.45 95.35 493.3 106 c 1
 479.7 22 l 1
 398.15 -1.7 313.4 -11.2 212.55 -7 c 1
 84.9 -3.15 46.7 98 82.7 292 c 0
EndSplineSet
Substitution2: "'smcp' Lowercase to Small Capitals lookup 16-1" e.smcp
EndChar

StartChar: o
Encoding: 111 111 3
Width: 560
VWidth: 0
Flags: HW
HStem: -5 98.5<210.906 388.262> 438.55 98.5<259.382 430.882>
LayerCount: 2
Fore
SplineSet
197.65 258 m 0
 172.85 109.45 209.95 93.5 294.75 93.5 c 0
 382.25 93.5 418.35 105.4 444.15 258 c 0
 469.3 409.4 445.35 438.55 349.7 438.55 c 0
 256.25 438.55 224.1 417.5 197.65 258 c 0
81.65 266.75 m 0
 115.65 483.75 185.45 537.05 362.95 537.05 c 0
 537.25 537.05 591.85 444.65 560.15 249.25 c 0
 527.85 52.25 466.65 -5 286.05 -5 c 0
 108.8 -5 51.65 76.75 81.65 266.75 c 0
EndSplineSet
Substitution2: "'smcp' Lowercase to Small Capitals lookup 16-1" o.smcp
EndChar

StartChar: c
Encoding: 99 99 5
Width: 493
VWidth: 0
Flags: HW
LayerCount: 2
Fore
SplineSet
82.35 276.5 m 0
 122.5 513.75 203.2 539.05 300 539.05 c 0
 352 539.05 462 527.55 533.5 508.25 c 1
 522 433.25 l 1
 522 433.25 411.65 440.55 322.65 440.55 c 0
 260.5 440.55 228.1 434.3 197.35 262.7 c 0
 173.15 123.15 199.9 92.2 267.35 92.2 c 0
 359.35 92.2 476.7 102.15 476.7 102.15 c 1
 464.55 25.85 l 1
 383.75 -0.65 320.35 -7 220.2 -5.65 c 0
 119.25 -4.65 48.05 73.05 82.35 276.5 c 0
EndSplineSet
Substitution2: "'smcp' Lowercase to Small Capitals lookup 16-1" c.smcp
EndChar

StartChar: d
Encoding: 100 100 6
Width: 550
VWidth: 0
Flags: HW
LayerCount: 2
Fore
SplineSet
198.7 266.5 m 0
 179.1 147.75 200.55 97.05 254.25 97.05 c 0
 316.45 97.05 367.75 114.4 409.35 134.65 c 1
 454.4 420.1 l 1
 408.7 435.65 366.35 442.25 307.55 442.25 c 0
 258.75 442.25 222.55 412 198.7 266.5 c 0
82 277 m 0
 106.4 422.15 151.4 539 299.95 539 c 0
 344.95 539 417.35 526.05 467.9 502.5 c 1
 513.2 785 l 1
 627.9 785 l 1
 503.25 0 l 1
 410.7 0 l 1
 396.5 55.5 l 1
 362.25 31.6 285.95 -6 221.1 -6 c 0
 88.45 -6 57.8 135.05 82 277 c 0
EndSplineSet
AlternateSubs2: "'salt' Access All Alternates in Latin lookup 4-1" d.salt
Substitution2: "'smcp' Lowercase to Small Capitals lookup 16-1" d.smcp
EndChar

StartChar: A
Encoding: 65 65 7
Width: 677
VWidth: 0
Flags: HW
HStem: 0 21G<38 176.063 543.913 666> 0 21G<38 176.063 543.913 666> 177.4 105.85<305.9 501.25> 712 20G<398.863 540.768>
DStem2: 38 0 165.9 0 0.452081 0.891977<57.8212 256.813 373.765 704.041> 537.25 732 452.25 579.35 0.173229 -0.984882<135.618 435.729 722.726 722.726>
LayerCount: 2
Fore
SplineSet
305.9 283.25 m 1
 501.25 283.25 l 1
 452.25 579.35 l 1
 305.9 283.25 l 1
38 0 m 1
 409 732 l 1
 537.25 732 l 1
 666 0 l 1
 547.6 0 l 1
 514.9 177.4 l 1
 256.05 177.4 l 1
 165.9 0 l 1
 38 0 l 1
EndSplineSet
Substitution2: "'c2sc' Capitals to Small Capitals in Latin lookup 17 subtable" a.smcp
EndChar

StartChar: p
Encoding: 112 112 8
Width: 557
VWidth: 0
Flags: HW
LayerCount: 2
Fore
SplineSet
185.7 110.65 m 1
 218.45 95.65 271.5 81.25 326.6 89.7 c 1
 377.95 95.55 419.8 118.15 443.65 267.2 c 0
 462.75 385.7 438.95 440.05 378.35 440.05 c 2
 240.35 440.05 l 1
 185.7 110.65 l 1
8.25 -270 m 1
 137.4 514 l 1
 212.6 528.2 318 535.05 405.8 535.05 c 0
 556.8 535.05 580.25 393.8 559.3 247.75 c 0
 537.1 92.15 473.75 -8.7 332.45 -8.7 c 0
 287.45 -8.7 216.85 1.95 171.9 29 c 1
 123.6 -270 l 1
 8.25 -270 l 1
EndSplineSet
AlternateSubs2: "'salt' Access All Alternates in Latin lookup 4-1" p.salt
Substitution2: "'smcp' Lowercase to Small Capitals lookup 16-1" p.smcp
EndChar

StartChar: b
Encoding: 98 98 9
Width: 555
VWidth: 0
Flags: HW
LayerCount: 2
Fore
SplineSet
187.75 134.65 m 1
 223.35 114.4 270.1 97.05 332.3 97.05 c 0
 391.2 97.05 421.85 146.45 440.15 266.5 c 0
 458.15 386 453.9 442.25 386.25 442.25 c 0
 327.45 442.25 284.45 435.65 233.45 420.1 c 1
 187.75 134.65 l 1
50.9 0 m 1
 174.9 785 l 1
 289.6 785 l 1
 245.3 502.5 l 1
 303.15 526.05 375.95 539 420.95 539 c 0
 574.05 539 579.3 392.5 555.8 249 c 0
 531.3 102.8 486.45 -12.5 338.85 -6 c 0
 274 -3.4 202.1 31.6 175.25 55.5 c 1
 143.45 0 l 1
 50.9 0 l 1
EndSplineSet
AlternateSubs2: "'salt' Access All Alternates in Latin lookup 4-1" b.salt
Substitution2: "'smcp' Lowercase to Small Capitals lookup 16-1" b.smcp
EndChar

StartChar: q
Encoding: 113 113 10
Width: 553
VWidth: 0
Flags: HW
LayerCount: 2
Fore
SplineSet
200 270.45 m 0
 183.95 158.45 174.2 87.1 262.6 87.1 c 0
 317.7 87.1 344.15 91.1 404.95 110 c 1
 457.3 443.4 l 1
 319.3 443.4 l 2
 234 443.4 209.35 332.4 200 270.45 c 0
83.65 278.5 m 0
 112.4 457.7 190 538.4 316.95 538.4 c 0
 422.95 538.4 536.35 521.15 584.1 510.85 c 1
 460.8 -270 l 1
 344.8 -270 l 1
 391.8 29 l 1
 338.15 1.95 281.15 -10 236.15 -10 c 0
 83.15 -10 56.9 108.6 83.65 278.5 c 0
EndSplineSet
Substitution2: "'smcp' Lowercase to Small Capitals lookup 16-1" q.smcp
EndChar

StartChar: n
Encoding: 110 110 11
Width: 547
VWidth: 0
Flags: HW
LayerCount: 2
Fore
SplineSet
50.9 0 m 1
 134.9 531 l 1
 225.4 531 l 1
 241.6 472.5 l 1
 298.45 506.1 350.4 540 431.4 540 c 0
 548.6 540 578.55 455.9 563.15 359.5 c 2
 505.9 0 l 1
 389.9 0 l 1
 447.15 360.9 l 2
 456.1 418.5 430.85 441.5 390 441.5 c 0
 325.05 441.5 288.65 425 229.1 391.5 c 1
 166.9 0 l 1
 50.9 0 l 1
EndSplineSet
AlternateSubs2: "'salt' Access All Alternates in Latin lookup 4-1" n.salt
Substitution2: "'smcp' Lowercase to Small Capitals lookup 16-1" n.smcp
EndChar

StartChar: i
Encoding: 105 105 12
Width: 214
VWidth: 0
Flags: HW
HStem: 0 21G<49.15 168.314> 0 21G<49.15 168.314> 511 20G<129.986 249.15> 588.8 124.05<150.545 269.714>
VStem: 49.15 232.3
DStem2: 49.15 0 165.15 0 0.166711 0.986006<19.3385 537.573> 149.8 687.85 281.45 687.85 0.166711 0.986006<-563.655 -157.431 -81.8888 28.8205>
LayerCount: 2
Fore
SplineSet
138.3 611.8 m 2
 149.8 687.85 l 2
 151.8 702.85 161.8 712.85 177.8 712.85 c 2
 262.8 712.85 l 2
 277.8 712.85 283.45 701.85 281.45 687.85 c 2
 269.95 611.8 l 2
 267.95 596.8 257.3 588.8 243.3 588.8 c 2
 158.3 588.8 l 2
 144.3 588.8 136.3 597.8 138.3 611.8 c 2
49.15 0 m 1
 133.15 531 l 1
 249.15 531 l 1
 165.15 0 l 1
 49.15 0 l 1
EndSplineSet
Substitution2: "'smcp' Lowercase to Small Capitals lookup 16-1" i.smcp
EndChar

StartChar: h
Encoding: 104 104 13
Width: 547
VWidth: 0
Flags: HW
LayerCount: 2
Fore
SplineSet
50.9 0 m 1
 174.9 783.3 l 1
 290.55 783.3 l 1
 241.25 472.5 l 1
 296.7 505.4 350.4 540 431.4 540 c 0
 548.6 540 578.55 455.9 563.15 359.5 c 2
 505.9 0 l 1
 389.9 0 l 1
 447.15 360.9 l 2
 456.1 418.5 431.5 441.5 390 441.5 c 0
 325.05 441.5 288.65 425 229.1 391.5 c 1
 166.9 0 l 1
 50.9 0 l 1
EndSplineSet
Substitution2: "'smcp' Lowercase to Small Capitals lookup 16-1" h.smcp
EndChar

StartChar: u
Encoding: 117 117 14
Width: 546
VWidth: 0
Flags: HW
LayerCount: 2
Fore
SplineSet
69.7 171.5 m 2
 126.3 531 l 1
 242.3 531 l 1
 185.35 170.1 l 2
 175.1 106 202 89.5 242.85 89.5 c 0
 307.8 89.5 344.2 106 403.75 139.5 c 1
 465.3 531 l 1
 581.3 531 l 1
 496.95 0 l 1
 406.45 0 l 1
 390.6 58.5 l 1
 332.35 22.1 282.45 -9 201.45 -9 c 0
 84.25 -9 53.65 70.55 69.7 171.5 c 2
EndSplineSet
AlternateSubs2: "'salt' Access All Alternates in Latin lookup 4-1" u.salt
Substitution2: "'smcp' Lowercase to Small Capitals lookup 16-1" u.smcp
EndChar

StartChar: r
Encoding: 114 114 15
Width: 421
VWidth: 0
Flags: HW
LayerCount: 2
Fore
SplineSet
50.9 0 m 1
 134.9 531 l 1
 228.9 531 l 1
 239.9 464 l 1
 291.5 499.35 349 536.65 420.85 536.65 c 0
 446 536.65 472 535.35 484.4 529.7 c 1
 466.45 417.15 l 1
 453.05 419.1 421.05 421.05 391.35 421.05 c 0
 325.35 421.05 281.7 407.4 224.25 362.35 c 1
 166.9 0 l 1
 50.9 0 l 1
EndSplineSet
AlternateSubs2: "'salt' Access All Alternates in Latin lookup 4-1" r.salt
Substitution2: "'smcp' Lowercase to Small Capitals lookup 16-1" r.smcp
EndChar

StartChar: m
Encoding: 109 109 16
Width: 883
VWidth: 0
Flags: HW
LayerCount: 2
Fore
SplineSet
50.9 0 m 1
 134.9 531 l 1
 225.4 531 l 1
 241.6 471.2 l 1
 299.85 505.5 343.9 538.05 426.2 538.05 c 0
 489.7 538.05 537.05 505.95 552.05 460.8 c 1
 607.2 498.55 676.55 538.05 766.55 538.05 c 0
 870.1 538.05 915 462.4 898.3 356.9 c 2
 841.7 0 l 1
 725.7 0 l 1
 782.65 358.3 l 2
 790.95 411.35 764.05 439.55 725.15 439.55 c 0
 659.65 439.55 617.3 428.3 563.9 392.65 c 1
 563.55 389.85 558.95 358.75 558.6 355.6 c 2
 502 0 l 1
 386 0 l 1
 442.6 358.3 l 2
 450.9 411.35 423.7 439.55 384.8 439.55 c 0
 319.85 439.55 288 423.7 228.45 390.2 c 1
 166.9 0 l 1
 50.9 0 l 1
EndSplineSet
AlternateSubs2: "'salt' Access All Alternates in Latin lookup 4-1" m.salt
Substitution2: "'smcp' Lowercase to Small Capitals lookup 16-1" m.smcp
EndChar

StartChar: f
Encoding: 102 102 17
Width: 404
VWidth: 0
Flags: HW
LayerCount: 2
Fore
SplineSet
85.35 436 m 1
 97.85 512.7 l 1
 191.35 531 l 1
 200.85 589.05 l 2
 223.75 733.45 269.05 785.35 386.45 785.35 c 0
 429.6 785.35 484.55 771.6 507.55 761.35 c 1
 496.7 690.65 l 2
 496.35 690.65 398.35 691 398.35 691 c 2
 336 691.35 327.9 663.85 313.35 568.05 c 2
 307.35 531 l 1
 448.9 531 l 1
 433.75 436 l 1
 291.55 436 l 1
 220.1 0 l 1
 104.1 0 l 1
 174.9 436 l 1
 85.35 436 l 1
EndSplineSet
AlternateSubs2: "'salt' Access All Alternates in Latin lookup 4-1" f.salt
Substitution2: "'smcp' Lowercase to Small Capitals lookup 16-1" f.smcp
EndChar

StartChar: l
Encoding: 108 108 18
Width: 301
VWidth: 0
Flags: HW
HStem: 0 75.95<223.338 284.35> 763 20G<170.035 289.2>
DStem2: 79.2 189 197.65 203 0.156304 0.987709<-56.8866 601.392>
LayerCount: 2
Fore
SplineSet
79.2 189 m 2
 173.2 783 l 1
 289.2 783 l 1
 197.65 203 l 2
 183.4 114.5 199.65 105.05 232 95 c 2
 232 95 293.4 75.95 296.5 75.95 c 1
 284.35 0 l 1
 202.35 0 l 2
 107.35 0 58.5 55.8 79.2 189 c 2
EndSplineSet
Substitution2: "'smcp' Lowercase to Small Capitals lookup 16-1" l.smcp
EndChar

StartChar: j
Encoding: 106 106 19
Width: 233
VWidth: 0
Flags: HW
LayerCount: 2
Fore
SplineSet
147.55 611.8 m 2
 160.05 687.85 l 2
 162.05 702.85 172.05 712.85 188.05 712.85 c 2
 273.05 712.85 l 2
 288.05 712.85 294.05 701.85 292.05 687.85 c 2
 279.55 611.8 l 2
 277.55 596.8 266.9 588.8 252.9 588.8 c 2
 167.9 588.8 l 2
 153.9 588.8 145.55 597.8 147.55 611.8 c 2
16.1 -270 m 1
 143.1 531 l 1
 259.1 531 l 1
 174.1 -4 l 2
 161.1 -90 143.1 -182.9 99.1 -270 c 1
 16.1 -270 l 1
EndSplineSet
Substitution2: "'smcp' Lowercase to Small Capitals lookup 16-1" j.smcp
EndChar

StartChar: t
Encoding: 116 116 20
Width: 376
VWidth: 0
Flags: HW
LayerCount: 2
Fore
SplineSet
82.2 437 m 1
 93.3 507 l 1
 187.95 532 l 1
 232.8 680 l 1
 327.3 680 l 1
 303.95 532 l 1
 435.85 532 l 1
 420.7 437 l 1
 288.8 437 l 1
 252.05 203.35 l 2
 238.45 114.15 253.7 104.7 286.05 94.65 c 2
 286.05 94.65 347.8 75.6 350.9 75.6 c 1
 339.4 -0.35 l 1
 253.2 -0.35 l 2
 162.15 -0.35 113.25 55.5 133.95 189.35 c 2
 172.8 437 l 1
 82.2 437 l 1
EndSplineSet
AlternateSubs2: "'salt' Access All Alternates in Latin lookup 4-1" t.salt
Substitution2: "'smcp' Lowercase to Small Capitals lookup 16-1" t.smcp
EndChar

StartChar: s
Encoding: 115 115 21
Width: 508
VWidth: 0
Flags: HW
LayerCount: 2
Fore
SplineSet
58.75 17.05 m 1
 70.9 92.7 l 1
 329.85 92.7 l 2
 335.8 92.7 371.95 91.25 379.15 133.75 c 2
 385.35 170.6 l 2
 389.95 197.55 383.05 212.65 348.85 212.65 c 2
 219.4 212.65 l 2
 125.4 212.65 73.3 256.95 89.3 358 c 2
 97.3 407.25 l 2
 110.95 491.85 154.35 539.25 257.35 539.25 c 0
 341.2 539.25 486.7 533.15 528.95 516.25 c 1
 516.8 439.3 l 1
 269.1 439.3 l 2
 222.95 439.3 215.25 413.95 212.25 394.65 c 2
 206.7 359.4 l 2
 198.5 310.25 227.05 316.75 249.45 316.75 c 2
 381.95 316.75 l 2
 478.05 316.75 515.45 251.9 503.1 175.5 c 1
 494.1 113.9 l 1
 477.1 4.9 401.5 -8.25 342.7 -8.25 c 0
 260.8 -8.25 93.3 0.0999999 58.75 17.05 c 1
EndSplineSet
Substitution2: "'smcp' Lowercase to Small Capitals lookup 16-1" s.smcp
EndChar

StartChar: k
Encoding: 107 107 22
Width: 515
VWidth: 0
Flags: HW
LayerCount: 2
Fore
SplineSet
50.9 0 m 1
 174.9 782 l 1
 290.9 782 l 1
 219 330 l 1
 300.35 357.4 416.3 449 437.9 531 c 1
 562.9 531 l 1
 528.4 408.6 418.2 319.4 354.4 288 c 1
 530.9 0 l 1
 398.9 0 l 1
 245.45 252.6 l 1
 207.45 251.6 l 1
 166.9 0 l 1
 50.9 0 l 1
EndSplineSet
Substitution2: "'smcp' Lowercase to Small Capitals lookup 16-1" k.smcp
EndChar

StartChar: g
Encoding: 103 103 23
Width: 555
VWidth: 0
Flags: HW
LayerCount: 2
Fore
SplineSet
200.7 276.05 m 0
 187.9 190.7 170.35 92.7 262.65 92.7 c 0
 317.75 92.7 344.2 96.7 405 115.6 c 1
 457.65 444.1 l 1
 322.9 444.1 l 2
 233.05 444.1 208.75 326.3 200.7 276.05 c 0
25.8 -248 m 1
 38 -171 l 1
 275 -171 l 2
 324.1 -171 365 -140 375 -76 c 2
 392.5 34.25 l 1
 339.2 7.55 283.8 -3.75 238.8 -3.75 c 0
 81.25 -3.75 57.6 118.4 84.35 288.3 c 0
 112.4 463.65 196.2 539.1 312.75 539.1 c 0
 418.75 539.1 537.4 521.85 585.15 511.55 c 1
 490.3 -86.5 l 2
 469.25 -218.2 387.75 -284.2 269.3 -272 c 2
 25.8 -248 l 1
EndSplineSet
AlternateSubs2: "'salt' Access All Alternates in Latin lookup 4-1" g.salt
Substitution2: "'smcp' Lowercase to Small Capitals lookup 16-1" g.smcp
EndChar

StartChar: v
Encoding: 118 118 24
Width: 527
VWidth: 0
Flags: HW
HStem: 0 21G<193.159 349.986> 0 21G<193.159 349.986> 511 20G<87.35 213.242 459.325 571.45>
VStem: 462.15 103.45<449.225 531.7>
DStem2: 209.5 531 87.35 531 0.202761 -0.979228<0 405.544> 284.1 132.3 339.65 0 0.459105 0.888382<0 426.425>
LayerCount: 2
Fore
SplineSet
87.35 531 m 1
 209.5 531 l 1
 284.1 132.3 l 1
 432.3 431.4 l 2
 445.3 458.4 456.5 484.55 462.15 531.7 c 1
 565.6 531.7 l 1
 577.3 483.3 564.4 436.05 545.9 399.1 c 2
 339.65 0 l 1
 197.3 0 l 1
 87.35 531 l 1
EndSplineSet
Substitution2: "'smcp' Lowercase to Small Capitals lookup 16-1" v.smcp
EndChar

StartChar: w
Encoding: 119 119 25
Width: 817
VWidth: 0
Flags: HW
LayerCount: 2
Fore
SplineSet
87.35 531 m 1
 207.55 531 l 1
 280.2 135.55 l 1
 429.05 429.45 l 2
 442.05 456.45 453.25 482.6 458.9 529.75 c 1
 559.1 529.75 l 1
 569.05 490.8 564.2 454.05 548.85 418.5 c 2
 527.9 370.65 l 1
 572.8 139.45 l 1
 726.2 431.4 l 1
 739.2 458.4 750.4 484.55 756.05 531.7 c 1
 856.9 531.7 l 1
 868.6 483.3 857 435.4 837.2 399.1 c 2
 619.25 0 l 1
 494.1 0 l 1
 448.35 231.7 l 1
 332.5 0 l 1
 197.3 0 l 1
 87.35 531 l 1
EndSplineSet
Substitution2: "'smcp' Lowercase to Small Capitals lookup 16-1" w.smcp
EndChar

StartChar: y
Encoding: 121 121 26
Width: 558
VWidth: 0
Flags: HW
LayerCount: 2
Fore
SplineSet
87.7 531 m 1
 208.1 531 l 1
 252.5 143.65 l 2
 258.05 100.95 304.05 105 309.65 104.65 c 1
 465.2 432.35 l 2
 477.8 459.7 484.9 485.5 490.55 532.65 c 1
 595.3 532.65 l 1
 607 484.25 594.6 435.1 576.85 397.45 c 2
 387.7 0.65 l 1
 291.95 -202.95 185.9 -264.15 94.15 -281.25 c 1
 94.15 -199.2 l 1
 180.4 -149.35 227.65 -72.05 264.65 0 c 1
 207.45 0 148.9 29.6 137.05 126.1 c 2
 87.7 531 l 1
EndSplineSet
Substitution2: "'smcp' Lowercase to Small Capitals lookup 16-1" y.smcp
EndChar

StartChar: x
Encoding: 120 120 27
Width: 555
VWidth: 0
Flags: HW
HStem: 0 21G<20.5 183.158 385.742 529.9> 0 21G<20.5 183.158 385.742 529.9> 511 20G<104.5 251.224 459.191 618.65>
DStem2: 20.5 0 166.7 0 0.650838 0.759216<95.1526 315.592 472.139 699.406> 240.95 531 104.5 531 0.481539 -0.876425<0 197 347.88 540.165>
LayerCount: 2
Fore
SplineSet
20.5 0 m 1
 249.55 272.2 l 1
 104.5 531 l 1
 240.95 531 l 1
 331 355.7 l 1
 475.7 531 l 1
 618.65 531 l 1
 388.55 253.4 l 1
 529.9 0 l 1
 396.25 0 l 1
 306.8 170.25 l 1
 166.7 0 l 1
 20.5 0 l 1
EndSplineSet
AlternateSubs2: "'salt' Access All Alternates in Latin lookup 4-1" x.salt
Substitution2: "'smcp' Lowercase to Small Capitals lookup 16-1" x.smcp
EndChar

StartChar: V
Encoding: 86 86 28
Width: 680
VWidth: 0
Flags: HW
HStem: 0 21G<263.126 406.541> 0 21G<263.126 406.541> 712 20G<143 268.217 624.059 764>
DStem2: 265.1 732 143 732 0.166365 -0.986064<0 578.203> 354.15 160.65 396.5 0 0.448678 0.893693<0 636.107>
LayerCount: 2
Fore
SplineSet
143 732 m 1
 265.1 732 l 1
 354.15 160.65 l 1
 633.85 732 l 1
 764 732 l 1
 396.5 0 l 1
 266.5 0 l 1
 143 732 l 1
EndSplineSet
Substitution2: "'c2sc' Capitals to Small Capitals in Latin lookup 17 subtable" v.smcp
EndChar

StartChar: W
Encoding: 87 87 29
Width: 1007
VWidth: 0
Flags: HW
LayerCount: 2
Fore
SplineSet
143 732 m 1
 263.15 732 l 1
 353.55 165.45 l 1
 623.35 732 l 1
 749.35 732 l 1
 642.45 511.5 l 1
 696.2 161.55 l 1
 967.75 732 l 1
 1091.8 732 l 1
 738.3 0 l 1
 611.1 0 l 1
 559.2 327.45 l 1
 398.95 0 l 1
 266.5 0 l 1
 143 732 l 1
EndSplineSet
Substitution2: "'c2sc' Capitals to Small Capitals in Latin lookup 17 subtable" w.smcp
EndChar

StartChar: C
Encoding: 67 67 30
Width: 573
VWidth: 0
Flags: HW
LayerCount: 2
Fore
SplineSet
105.55 378.85 m 0
 143.5 612.5 211.4 740 410.4 740 c 0
 494.6 740 584.15 726.15 656.7 706.5 c 1
 642.45 615.3 l 1
 627.8 617.25 513.9 632.3 416.1 631 c 0
 350.95 630.35 263.95 635 221.55 366 c 1
 194.25 203.3 217 108.85 328.4 103 c 1
 393.75 101.05 472.3 104.85 564.6 111.35 c 1
 551 20.15 l 1
 472.65 -3.9 389.05 -7.05 295 -6 c 0
 107.75 -4.95 74.05 182.25 105.55 378.85 c 0
EndSplineSet
Substitution2: "'c2sc' Capitals to Small Capitals in Latin lookup 17 subtable" c.smcp
EndChar

StartChar: D
Encoding: 68 68 31
Width: 660
VWidth: 0
Flags: HW
HStem: 0 107.45<200.65 440.238> 626.5 105.5<282.85 518.716>
DStem2: 67.75 0 200.65 107.45 0.156653 0.987654<126.943 652.461>
LayerCount: 2
Fore
SplineSet
200.65 107.45 m 1
 366.4 107.45 l 2
 473.3 107.45 533.1 217.8 556.4 364 c 0
 587.35 558.65 547.3 626.5 445.1 626.5 c 2
 282.85 626.5 l 1
 200.65 107.45 l 1
67.75 0 m 1
 183.75 731.35 l 2
 183.75 732 432.8 732 471.8 732 c 0
 687.7 732 697.9 510.2 672.05 352.5 c 0
 633.65 116.05 543.05 0 361.75 0 c 2
 67.75 0 l 1
EndSplineSet
Substitution2: "'c2sc' Capitals to Small Capitals in Latin lookup 17 subtable" d.smcp
EndChar

StartChar: O
Encoding: 79 79 32
Width: 666
VWidth: 0
Flags: HW
HStem: -4 109<250.449 462.77> 628 109<324.338 544.59>
LayerCount: 2
Fore
SplineSet
223.65 361 m 0
 188.6 140.4 225.1 105 356.9 105 c 0
 479.3 105 537.55 144.9 571.65 361 c 0
 611.65 614.85 552.5 628 440.05 628 c 0
 322.8 628 264 618 223.65 361 c 0
107.65 369.75 m 0
 161.65 712.75 278.25 737 450.8 737 c 0
 624.45 737 739.05 687.45 687.65 352.25 c 0
 637.95 29.25 521.6 -4 346.15 -4 c 0
 177.85 -4 54.65 36.75 107.65 369.75 c 0
EndSplineSet
Substitution2: "'c2sc' Capitals to Small Capitals in Latin lookup 17 subtable" o.smcp
EndChar

StartChar: S
Encoding: 83 83 33
Width: 576
VWidth: 0
Flags: HW
HStem: -8 109<96.7092 421.293> 302.75 116<247.172 452.732> 629 109<279.327 599.204>
DStem2: 124.3 490.5 242.75 499.25 0.141709 0.989908<-41.6068 141.59> 451.05 173.85 567.4 166.5 0.117667 0.993053<-49.361 116.497>
LayerCount: 2
Fore
SplineSet
73.75 19.5 m 1
 88 111.35 l 1
 129.6 106.05 242 101 335 101 c 0
 376.7 101 440.85 108.1 451.05 173.85 c 2
 458.9 223.65 l 2
 466.5 270.85 463.4 302.75 398.6 302.75 c 2
 283.75 302.75 l 2
 114.85 302.75 114.341 425.26 124.3 490.5 c 2
 134.65 562.8 l 1
 157.9 714.95 253 739.55 362.4 738 c 1
 448.65 738.1 565.3 725.5 624.9 710.85 c 1
 610.65 619.65 l 1
 556.1 622.1 392.4 629 369.3 629 c 0
 301 631.6 262.15 623.1 249.95 546 c 2
 242.75 499.25 l 2
 229.95 418.85 265.15 418.75 318.5 418.75 c 2
 434.75 418.75 l 2
 567.9 418.75 587.2 314.05 575.25 232.75 c 1
 567.4 166.5 l 1
 549.35 1.9 419.7 -8 331.75 -8 c 0
 231.705 -8 129.75 3.05 73.75 19.5 c 1
EndSplineSet
Substitution2: "'c2sc' Capitals to Small Capitals in Latin lookup 17 subtable" s.smcp
EndChar

StartChar: G
Encoding: 71 71 34
Width: 612
VWidth: 0
Flags: HW
HStem: -6.3 110.4<259.038 401.437> 307 99.5<401.532 506> 307 74.5<390.85 497.636> 633.85 105.5<334.475 615.887>
DStem2: 479.7 155.95 573.05 0 0.157012 0.987597<-16.5464 153.306>
LayerCount: 2
Fore
SplineSet
108.6 382.05 m 0
 150.05 615.7 211.6 739.35 410.6 739.35 c 0
 498.1 740 575.7 728.25 665.05 706.85 c 1
 651.45 617.05 l 1
 610.35 622.9 491 633.2 416.65 633.85 c 0
 345.75 634.5 264.9 621.35 226.55 366.05 c 1
 200.55 202.7 219.1 103.45 325.95 104.1 c 0
 398.35 104.1 479.7 155.95 479.7 155.95 c 1
 506 307 l 1
 379 307 l 1
 390.85 381.5 l 1
 435.3 397.05 494.1 406.5 569.85 406.5 c 0
 590.85 406.5 613.2 405.5 637.2 403.5 c 1
 573.05 0 l 1
 488.05 0 l 1
 465.1 54.2 l 1
 432.4 22.4 370.85 -4.55 293.45 -6.3 c 0
 99.4 -10.2 76.05 198.75 108.6 382.05 c 0
EndSplineSet
Substitution2: "'c2sc' Capitals to Small Capitals in Latin lookup 17 subtable" g.smcp
EndChar

StartChar: Q
Encoding: 81 81 35
Width: 669
VWidth: 0
Flags: HW
LayerCount: 2
Fore
SplineSet
298.85 -33 m 1
 368.35 -33 l 1
 402.7 -82.95 467.8 -76.1 529.15 -58.25 c 1
 513 -159.25 l 1
 419.15 -183.1 290.8 -150.85 298.85 -33 c 1
226.25 361 m 0
 191.2 140.4 227.7 105 359.5 105 c 0
 481.9 105 540.15 144.9 574.25 361 c 0
 614.25 614.85 555.1 628 442.65 628 c 0
 325.4 628 266.6 618 226.25 361 c 0
110.25 371.5 m 0
 164.25 714.5 280.85 737 453.4 737 c 0
 627.05 737 741.65 685.7 690.25 350.5 c 0
 640.55 27.5 524.2 -3.3 348.75 -4 c 0
 180.45 -4 57.25 38.5 110.25 371.5 c 0
EndSplineSet
Substitution2: "'c2sc' Capitals to Small Capitals in Latin lookup 17 subtable" q.smcp
EndChar

StartChar: M
Encoding: 77 77 36
Width: 818
VWidth: 0
Flags: HW
HStem: 0 21G<57 178.4 360.101 500.071 679.95 796.319> 0 21G<57 178.4 360.101 500.071 679.95 796.319> 712 20G<226.732 390.818 676.379 846.85>
DStem2: 57 0 173.7 0 0.23189 0.972742<27.0616 569.799> 388.4 732 297.85 528.35 0.120026 -0.992771<191.309 543.63> 453.65 192.3 491.4 0 0.393919 0.919145<0 414.692> 679.95 0 794.9 0 0.0707918 0.997491<8.13752 530.561>
LayerCount: 2
Fore
SplineSet
57 0 m 1
 231.5 732 l 1
 388.4 732 l 1
 453.65 192.3 l 1
 684.95 732 l 1
 846.85 732 l 1
 794.9 0 l 1
 679.95 0 l 1
 720.75 529 l 1
 491.4 0 l 1
 362.55 0 l 1
 297.85 528.35 l 1
 173.7 0 l 1
 57 0 l 1
EndSplineSet
AlternateSubs2: "'salt' Access All Alternates in Latin lookup 4-1" M.salt
Substitution2: "'c2sc' Capitals to Small Capitals in Latin lookup 17 subtable" m.smcp
EndChar

StartChar: I
Encoding: 73 73 37
Width: 244
VWidth: 0
Flags: HW
HStem: 0 21G<74.25 193.419> 0 21G<74.25 193.419> 712 20G<187.081 306.25>
VStem: 74.25 232
DStem2: 74.25 0 190.25 0 0.156517 0.987675<18.156 741.134>
LayerCount: 2
Fore
SplineSet
74.25 0 m 1
 190.25 732 l 1
 306.25 732 l 1
 190.25 0 l 1
 74.25 0 l 1
EndSplineSet
Substitution2: "'c2sc' Capitals to Small Capitals in Latin lookup 17 subtable" i.smcp
EndChar

StartChar: J
Encoding: 74 74 38
Width: 357
VWidth: 0
Flags: HW
LayerCount: 2
Fore
SplineSet
32.75 22.4 m 1
 49.6 111.4 l 1
 132.5 99.7 205.15 89.8 223 203.85 c 2
 306.7 732 l 1
 422.7 732 l 1
 332.7 165 l 2
 325.7 118 312 50 257 18 c 0
 199 -16 79.75 -11.6 32.75 22.4 c 1
EndSplineSet
Substitution2: "'c2sc' Capitals to Small Capitals in Latin lookup 17 subtable" j.smcp
EndChar

StartChar: H
Encoding: 72 72 39
Width: 646
VWidth: 0
Flags: HW
HStem: 0 21G<71 190.195 474 593.169> 0 21G<71 190.195 474 593.169> 299.5 109<251.15 521.85> 712 20G<183.831 303 586.794 706>
DStem2: 71 0 187 0 0.156517 0.987675<18.156 321.454 431.662 741.134> 474 0 590 0 0.156517 0.987675<18.156 303.298 413.506 741.134>
LayerCount: 2
Fore
SplineSet
71 0 m 1
 187 732 l 1
 303 732 l 1
 251.15 408.5 l 1
 538.15 408.5 l 1
 590 732 l 1
 706 732 l 1
 590 0 l 1
 474 0 l 1
 521.85 299.5 l 1
 234.85 299.5 l 1
 187 0 l 1
 71 0 l 1
EndSplineSet
Substitution2: "'c2sc' Capitals to Small Capitals in Latin lookup 17 subtable" h.smcp
EndChar

StartChar: E
Encoding: 69 69 40
Width: 562
VWidth: 0
Flags: HW
HStem: -3 110.75<207.582 494.659> 14 93.75<268.271 527.15> 306.55 114.7<247.15 448.013> 316.2 94.7<344.025 530.85> 621.25 110.75<283.622 604.345> 621.25 94.75<380.652 623.2>
DStem2: 86.1 140.5 205.6 159.75 0.156474 0.987682<-5.37011 186.396 302.492 501.016>
LayerCount: 2
Fore
SplineSet
86.1 140.5 m 2
 157.55 591.5 l 2
 176 705.6 247.1 734.6 327.65 732 c 1
 327.65 732 597.9 721.6 638.15 716 c 1
 623.2 621.25 l 1
 330.7 621.25 l 2
 281.3 621.25 274.05 592.25 270.05 565.25 c 2
 247.15 421.25 l 1
 546.45 410.9 l 1
 530.85 316.2 l 1
 229.2 306.55 l 1
 205.6 159.75 l 2
 197.9 106.75 231.25 107.75 260.25 107.75 c 2
 542.75 107.75 l 1
 527.15 14 l 1
 490.05 9.1 220.65 -3 220.65 -3 c 2
 151.733 -6.41667 67.95 25.85 86.1 140.5 c 2
EndSplineSet
Substitution2: "'c2sc' Capitals to Small Capitals in Latin lookup 17 subtable" e.smcp
EndChar

StartChar: L
Encoding: 76 76 41
Width: 531
VWidth: 0
Flags: HW
HStem: 0 109<209.723 517.05> 712 20G<180.841 299.4>
DStem2: 88.5 136.5 208.35 161 0.158427 0.987371<-0.39183 603.117>
LayerCount: 2
Fore
SplineSet
88.5 136.5 m 2
 184.05 732 l 1
 299.4 732 l 1
 208.35 161 l 2
 200.35 108 234 109 263 109 c 2
 534 109 l 1
 517.05 0 l 1
 213.25 0 l 2
 137.85 0 72.45 35.85 88.5 136.5 c 2
EndSplineSet
Substitution2: "'c2sc' Capitals to Small Capitals in Latin lookup 17 subtable" l.smcp
EndChar

StartChar: F
Encoding: 70 70 42
Width: 564
VWidth: 0
Flags: HW
HStem: 0 21G<66 185.159> 0 21G<66 185.159> 305.15 114.7<248.8 449.993> 314.8 94.7<345.578 533.2> 621.25 110.75<284.777 605.695> 621.25 94.75<382.002 624.9>
DStem2: 66 0 182 0 0.155815 0.987786<18.0745 327.008 443.205 640.983>
LayerCount: 2
Fore
SplineSet
66 0 m 1
 158.2 584.5 l 2
 176.65 698.6 248.1 734.6 329 732 c 1
 329 732 599.25 721.6 639.5 716 c 1
 624.9 621.25 l 1
 332.4 621.25 l 2
 283 621.25 275.4 592.25 271.4 565.25 c 2
 248.8 419.85 l 1
 547.8 409.5 l 1
 533.2 314.8 l 1
 230.2 305.15 l 1
 182 0 l 1
 66 0 l 1
EndSplineSet
Substitution2: "'c2sc' Capitals to Small Capitals in Latin lookup 17 subtable" f.smcp
EndChar

StartChar: K
Encoding: 75 75 43
Width: 602
VWidth: 0
Flags: HW
HStem: 0 21G<67.75 184.399 442.33 585.75> 0 21G<67.75 184.399 442.33 585.75> 312.5 105.5<246.35 306.75> 712 20G<180.581 296.25 544.668 701.75>
DStem2: 67.75 0 181.25 0 0.156517 0.987675<17.7647 334.114 440.802 741.134> 413.5 357.45 306.75 312.5 0.434111 -0.900859<0 338.552> 313.4 418 413.5 357.45 0.60989 0.792486<13.0649 399.483>
LayerCount: 2
Fore
SplineSet
67.75 0 m 1
 183.75 732 l 1
 296.25 732 l 1
 246.35 418 l 1
 313.4 418 l 1
 560.4 732 l 1
 701.75 732 l 1
 413.5 357.45 l 1
 585.75 0 l 1
 451.6 0 l 1
 306.75 312.5 l 1
 230.45 312.5 l 1
 181.25 0 l 1
 67.75 0 l 1
EndSplineSet
Substitution2: "'c2sc' Capitals to Small Capitals in Latin lookup 17 subtable" k.smcp
EndChar

StartChar: T
Encoding: 84 84 44
Width: 585
VWidth: 0
Flags: HW
HStem: 0 21G<233.25 352.409> 0 21G<233.25 352.409> 623 109<145.75 331.65 447.65 657.15>
DStem2: 233.25 0 349.25 0 0.156011 0.987755<18.0973 630.723>
LayerCount: 2
Fore
SplineSet
128.15 623 m 1
 145.75 732 l 1
 674.75 732 l 1
 657.15 623 l 1
 447.65 623 l 1
 349.25 0 l 1
 233.25 0 l 1
 331.65 623 l 1
 128.15 623 l 1
EndSplineSet
Substitution2: "'c2sc' Capitals to Small Capitals in Latin lookup 17 subtable" t.smcp
EndChar

StartChar: P
Encoding: 80 80 45
Width: 596
VWidth: 0
Flags: HW
HStem: 0 21G<64.15 183.355> 0 21G<64.15 183.355> 280.5 105.5<241.506 484.146> 298.55 87.45<241.25 479.895> 625.5 106.5<279.25 514.904>
DStem2: 64.15 0 180.15 0 0.156517 0.987675<18.156 320.516 408.962 651.458>
LayerCount: 2
Fore
SplineSet
241.25 386 m 1
 423.6 386 l 2
 470.7 386 510.8 405.9 527.25 510.2 c 1
 542.4 612.85 499.85 625.5 462.25 625.5 c 2
 279.25 625.5 l 1
 241.25 386 l 1
64.15 0 m 1
 180.15 732 l 1
 486.15 732 l 2
 573.2 732 670.45 681.55 644.25 500.75 c 0
 611.15 272.25 494.95 278.05 415 280.5 c 0
 375 281.55 233 295.55 228 298.55 c 1
 180.15 0 l 1
 64.15 0 l 1
EndSplineSet
Substitution2: "'c2sc' Capitals to Small Capitals in Latin lookup 17 subtable" p.smcp
EndChar

StartChar: R
Encoding: 82 82 46
Width: 606
VWidth: 0
Flags: HW
HStem: 0 21G<64.15 183.322 457.798 594.15> 0 21G<64.15 183.322 457.798 594.15> 295.75 92.7<242.6 324.717> 625.5 106.5<280.25 513.473>
DStem2: 64.15 0 180.15 0 0.156517 0.987675<18.156 317.602 411.593 651.614> 489.55 293.25 373.55 285.25 0.33596 -0.941876<0 267.672>
LayerCount: 2
Fore
SplineSet
242.6 388.45 m 1
 423.85 388.45 l 2
 477.45 388.45 517.3 418.35 525.95 506.75 c 0
 535.55 607.95 513.95 625.5 464.75 625.5 c 2
 280.25 625.5 l 1
 242.6 388.45 l 1
64.15 0 m 1
 180.15 732 l 1
 490.4 732 l 2
 591.15 732 664.15 670.25 642.95 498 c 0
 620.8 312.3 522.75 297.95 489.55 293.25 c 1
 594.15 0 l 1
 464.15 0 l 1
 373.55 285.25 l 1
 227.05 295.75 l 1
 180.15 0 l 1
 64.15 0 l 1
EndSplineSet
Substitution2: "'c2sc' Capitals to Small Capitals in Latin lookup 17 subtable" r.smcp
EndChar

StartChar: U
Encoding: 85 85 47
Width: 654
VWidth: 0
Flags: HW
HStem: -5 109<260.305 445.428> 712 20G<178.86 298.7 599.89 720.05>
DStem2: 116.15 318.8 231.75 308.3 0.156076 0.987745<-126.245 418.422> 536.1 308.3 654.85 297.8 0.148496 0.988913<-137.824 428.944>
LayerCount: 2
Fore
SplineSet
116.15 318.8 m 2
 182.05 732 l 1
 298.7 732 l 1
 231.75 308.3 l 2
 207 151.9 238.35 104 349.6 104 c 0
 465.25 104 513 161.1 536.1 308.3 c 2
 603.05 732 l 1
 720.05 732 l 1
 654.85 297.8 l 1
 622.05 91.8 536.2 -5 335.9 -5 c 0
 181.7 -5 74.85 58.6 116.15 318.8 c 2
EndSplineSet
Substitution2: "'c2sc' Capitals to Small Capitals in Latin lookup 17 subtable" u.smcp
EndChar

StartChar: B
Encoding: 66 66 48
Width: 598
VWidth: 0
Flags: HW
HStem: 0 105.5<201.3 439.119> 332.65 102<253.5 467.061> 626.5 105.5<284.15 514.569>
DStem2: 67.75 0 201.3 105.5 0.156517 0.987675<125.103 355.033 458.366 652.649>
LayerCount: 2
Fore
SplineSet
253.5 434.65 m 1
 423.35 434.65 l 2
 482.6 434.65 519.8 468.05 529.65 531.15 c 0
 541.85 609.6 503.95 626.5 454.65 626.5 c 2
 284.15 626.5 l 1
 253.5 434.65 l 1
201.3 105.5 m 1
 374.65 105.5 l 2
 419.15 105.5 471.85 123.05 486.65 215.8 c 0
 496.55 276.85 478.55 332.65 410.3 332.65 c 2
 236.95 332.65 l 1
 201.3 105.5 l 1
67.75 0 m 1
 183.75 732 l 1
 475.5 732 l 2
 625 732 659.45 627.55 645.95 529.55 c 0
 634.65 442.85 585.35 392.5 522.75 380 c 1
 567.15 372.55 616.25 307.25 602.6 199.25 c 0
 584.05 58.65 515.25 0 361.25 0 c 2
 67.75 0 l 1
EndSplineSet
Substitution2: "'c2sc' Capitals to Small Capitals in Latin lookup 17 subtable" b.smcp
EndChar

StartChar: N
Encoding: 78 78 49
Width: 665
VWidth: 0
Flags: HW
HStem: 0 21G<67.75 187.91 492.22 617.919> 0 21G<67.75 187.91 492.22 617.919> 712 20G<180.581 308.166 611.598 730.75>
DStem2: 67.75 0 184.75 0 0.156517 0.987675<18.3125 539.953> 299.15 732 266.15 515.25 0.410967 -0.91165<184.038 569.023> 533 213.25 614.75 0 0.156517 0.987675<0 525.152>
LayerCount: 2
Fore
SplineSet
67.75 0 m 1
 183.75 732 l 1
 299.15 732 l 1
 533 213.25 l 1
 614.75 732 l 1
 730.75 732 l 1
 614.75 0 l 1
 501.35 0 l 1
 266.15 515.25 l 1
 184.75 0 l 1
 67.75 0 l 1
EndSplineSet
AlternateSubs2: "'salt' Access All Alternates in Latin lookup 4-1" N.salt
Substitution2: "'c2sc' Capitals to Small Capitals in Latin lookup 17 subtable" n.smcp
EndChar

StartChar: X
Encoding: 88 88 50
Width: 628
VWidth: 0
Flags: HW
HStem: 0 21G<34.5 182.318 456.122 590.45> 0 21G<34.5 182.318 456.122 590.45> 712 20G<147.5 281.857 568.213 716>
DStem2: 34.5 0 167.6 0 0.59958 0.800315<79.8041 399.006 582.158 914.64> 273.45 732 147.5 732 0.397396 -0.917647<0 290.696 468.914 747.64>
LayerCount: 2
Fore
SplineSet
34.5 0 m 1
 307 370.65 l 1
 147.5 732 l 1
 273.45 732 l 1
 386.1 464 l 1
 582.9 732 l 1
 716 732 l 1
 435.55 350.8 l 1
 590.45 0 l 1
 464.5 0 l 1
 356.8 257.1 l 1
 167.6 0 l 1
 34.5 0 l 1
EndSplineSet
AlternateSubs2: "'salt' Access All Alternates in Latin lookup 4-1" X.salt
Substitution2: "'c2sc' Capitals to Small Capitals in Latin lookup 17 subtable" x.smcp
EndChar

StartChar: Z
Encoding: 90 90 51
Width: 559
VWidth: 0
Flags: HW
LayerCount: 2
Fore
SplineSet
29.75 0 m 1
 47.35 109 l 1
 483.9 623 l 1
 128.15 623 l 1
 145.75 732 l 1
 645.75 732 l 1
 628.15 623 l 1
 198.25 109 l 1
 547.35 109 l 1
 529.75 0 l 1
 29.75 0 l 1
EndSplineSet
Substitution2: "'c2sc' Capitals to Small Capitals in Latin lookup 17 subtable" z.smcp
EndChar

StartChar: Y
Encoding: 89 89 52
Width: 647
VWidth: 0
Flags: HW
LayerCount: 2
Fore
SplineSet
143 732 m 1
 267.55 732 l 1
 367.55 370.95 l 1
 597.15 732 l 1
 731 732 l 1
 407.55 239 l 1
 369.7 0 l 1
 253.7 0 l 1
 291.55 239 l 1
 143 732 l 1
EndSplineSet
Substitution2: "'c2sc' Capitals to Small Capitals in Latin lookup 17 subtable" y.smcp
EndChar

StartChar: Agrave
Encoding: 192 192 53
Width: 677
VWidth: 0
Flags: HW
LayerCount: 2
Fore
SplineSet
329.823 933.5 m 1
 437.123 933.5 l 1
 524.923 797 l 1
 441.923 797 l 1
 329.823 933.5 l 1
305.9 283.25 m 1
 501.25 283.25 l 1
 452.25 579.35 l 1
 305.9 283.25 l 1
38 0 m 1
 409 732 l 1
 537.25 732 l 1
 666 0 l 1
 547.6 0 l 1
 514.9 177.4 l 1
 256.05 177.4 l 1
 165.9 0 l 1
 38 0 l 1
EndSplineSet
Substitution2: "'c2sc' Capitals to Small Capitals in Latin lookup 17 subtable" agrave.smcp
EndChar

StartChar: Aacute
Encoding: 193 193 54
Width: 677
VWidth: 0
Flags: HW
LayerCount: 2
Fore
SplineSet
441.923 797 m 1
 560.123 933.5 l 1
 672.623 933.5 l 1
 524.923 797 l 1
 441.923 797 l 1
305.9 283.25 m 1
 501.25 283.25 l 1
 452.25 579.35 l 1
 305.9 283.25 l 1
38 0 m 1
 409 732 l 1
 537.25 732 l 1
 666 0 l 1
 547.6 0 l 1
 514.9 177.4 l 1
 256.05 177.4 l 1
 165.9 0 l 1
 38 0 l 1
EndSplineSet
Substitution2: "'c2sc' Capitals to Small Capitals in Latin lookup 17 subtable" aacute.smcp
EndChar

StartChar: Acircumflex
Encoding: 194 194 55
Width: 677
VWidth: 0
Flags: HW
LayerCount: 2
Fore
SplineSet
332.348 797 m 1
 464.748 930.5 l 1
 556.748 930.5 l 1
 634.848 797 l 1
 553.748 797 l 1
 505.848 868.8 l 1
 427.048 797 l 1
 332.348 797 l 1
305.9 283.25 m 1
 501.25 283.25 l 1
 452.25 579.35 l 1
 305.9 283.25 l 1
38 0 m 1
 409 732 l 1
 537.25 732 l 1
 666 0 l 1
 547.6 0 l 1
 514.9 177.4 l 1
 256.05 177.4 l 1
 165.9 0 l 1
 38 0 l 1
EndSplineSet
Substitution2: "'c2sc' Capitals to Small Capitals in Latin lookup 17 subtable" acircumflex.smcp
EndChar

StartChar: Atilde
Encoding: 195 195 56
Width: 677
VWidth: 0
Flags: HW
LayerCount: 2
Fore
SplineSet
320.429 847.1 m 1
 360.529 881.15 404.629 914.6 450.879 914.6 c 1
 498.779 912.65 518.679 880.9 550.879 880.25 c 0
 580.479 878.9 637.879 905.7 650.879 916.35 c 1
 665.529 863.15 l 1
 628.129 834.05 586.679 797 540.229 797.65 c 0
 488.779 798.3 472.479 832.65 435.429 832 c 0
 393.179 831.35 368.829 814.5 335.779 797 c 1
 320.429 847.1 l 1
305.9 283.25 m 1
 501.25 283.25 l 1
 452.25 579.35 l 1
 305.9 283.25 l 1
38 0 m 1
 409 732 l 1
 537.25 732 l 1
 666 0 l 1
 547.6 0 l 1
 514.9 177.4 l 1
 256.05 177.4 l 1
 165.9 0 l 1
 38 0 l 1
EndSplineSet
Substitution2: "'c2sc' Capitals to Small Capitals in Latin lookup 17 subtable" atilde.smcp
EndChar

StartChar: Adieresis
Encoding: 196 196 57
Width: 677
VWidth: 0
Flags: HW
LayerCount: 2
Fore
SplineSet
564.452 853.25 m 0
 569.152 884.05 598.602 908.5 629.402 908.5 c 0
 660.202 908.5 680.652 884.05 675.952 853.25 c 0
 671.252 822.45 642.452 797 611.652 797 c 0
 580.852 797 559.752 822.45 564.452 853.25 c 0
309.452 853.25 m 0
 314.152 884.05 343.602 908.5 374.402 908.5 c 0
 405.202 908.5 425.652 884.05 420.952 853.25 c 0
 416.252 822.45 387.452 797 356.652 797 c 0
 325.852 797 304.752 822.45 309.452 853.25 c 0
305.9 283.25 m 1
 501.25 283.25 l 1
 452.25 579.35 l 1
 305.9 283.25 l 1
38 0 m 1
 409 732 l 1
 537.25 732 l 1
 666 0 l 1
 547.6 0 l 1
 514.9 177.4 l 1
 256.05 177.4 l 1
 165.9 0 l 1
 38 0 l 1
EndSplineSet
Substitution2: "'c2sc' Capitals to Small Capitals in Latin lookup 17 subtable" adieresis.smcp
EndChar

StartChar: Aring
Encoding: 197 197 58
Width: 677
VWidth: 0
Flags: HW
LayerCount: 2
Fore
SplineSet
440.09 831.409 m 0
 437.684 805.259 457.469 784.759 483.619 784.759 c 0
 509.769 784.759 531.984 805.259 534.39 831.409 c 0
 536.797 857.559 518.068 879.059 491.918 879.059 c 0
 465.768 879.059 442.497 857.559 440.09 831.409 c 0
385.74 831.409 m 0
 390.731 888.409 440.048 933.359 496.048 933.359 c 0
 552.048 933.359 593.731 888.409 588.74 831.409 c 0
 584.353 781.308 546.808 741.018 499.755 732 c 1
 537.25 732 l 1
 666 0 l 1
 547.6 0 l 1
 514.9 177.4 l 1
 256.05 177.4 l 1
 165.9 0 l 1
 38 0 l 1
 409 732 l 1
 460.137 732 l 1
 414.114 741.018 381.353 781.308 385.74 831.409 c 0
305.9 283.25 m 1
 501.25 283.25 l 1
 452.25 579.35 l 1
 305.9 283.25 l 1
EndSplineSet
Substitution2: "'c2sc' Capitals to Small Capitals in Latin lookup 17 subtable" aring.smcp
EndChar

StartChar: AE
Encoding: 198 198 59
Width: 981
VWidth: 0
Flags: HW
LayerCount: 2
Fore
SplineSet
359.55 313.45 m 1
 492.25 313.45 l 1
 537.05 584.7 l 1
 359.55 313.45 l 1
25.45 0 m 1
 406.85 585.8 l 2
 506.05 737.15 602.3 734.45 704.55 732 c 1
 704.55 732 977.1 721.6 1017 716 c 1
 1002.4 620.6 l 1
 707.95 620.6 l 2
 658.55 620.6 654.2 593.55 648.9 566.55 c 2
 625 416.6 l 1
 924.65 406.25 l 1
 910.05 311.55 l 1
 606.4 301.9 l 1
 583.8 158.45 l 2
 575.8 105.45 609.45 106.45 638.45 106.45 c 2
 920.95 106.45 l 1
 905.35 12.7 l 1
 868.6 7.8 600.25 -4.3 600.25 -4.3 c 2
 532.5 -8.3 446.45 21.4 461.85 122.05 c 2
 474.7 207.95 l 1
 292.6 207.95 l 1
 155.95 0 l 1
 25.45 0 l 1
EndSplineSet
EndChar

StartChar: Ccedilla
Encoding: 199 199 60
Width: 573
VWidth: 0
Flags: HW
LayerCount: 2
Fore
SplineSet
180.6 -176.15 m 1
 189.05 -124.45 l 1
 238.45 -109.45 l 2
 269.1 -100.05 275.3 -74.65 281.3 -36.65 c 1
 299.5 -37.3 365.8 -36.65 365.8 -36.65 c 1
 349.8 -138.65 319.3 -176.15 235.1 -176.15 c 2
 180.6 -176.15 l 1
105.55 378.85 m 0
 143.5 612.5 211.4 740 410.4 740 c 0
 494.6 740 584.15 726.15 656.7 706.5 c 1
 642.45 615.3 l 1
 627.8 617.25 513.9 632.3 416.1 631 c 0
 350.95 630.35 265.25 635 222.85 366 c 1
 195.55 203.3 217 108.85 328.4 103 c 1
 393.75 101.05 472.3 104.85 564.6 111.35 c 1
 551 20.15 l 1
 472.65 -3.9 389.05 -7.05 295 -6 c 0
 107.75 -4.95 74.05 182.25 105.55 378.85 c 0
EndSplineSet
Substitution2: "'c2sc' Capitals to Small Capitals in Latin lookup 17 subtable" ccedilla.smcp
EndChar

StartChar: Eth
Encoding: 208 208 61
Width: 658
VWidth: 0
Flags: HW
LayerCount: 2
Fore
SplineSet
200 107.45 m 1
 367.5 107.45 l 2
 471.95 107.45 532.1 217.8 555.4 364 c 0
 586.35 558.65 548.05 626.5 449.7 626.5 c 2
 282.2 626.5 l 1
 247.45 403.5 l 1
 368.95 403.5 l 1
 358.9 342.5 l 1
 237.4 342.5 l 1
 200 107.45 l 1
56.4 342.5 m 1
 66.45 403.5 l 1
 131.45 403.5 l 1
 183.1 731.35 l 2
 183.1 732 434.6 732 473.6 732 c 0
 689.5 732 697.9 504.25 672.05 352.5 c 0
 633.65 124.45 545.9 0 364.6 0 c 2
 67.1 0 l 1
 121.4 342.5 l 1
 56.4 342.5 l 1
EndSplineSet
Substitution2: "'c2sc' Capitals to Small Capitals in Latin lookup 17 subtable" eth.smcp
EndChar

StartChar: Egrave
Encoding: 200 200 62
Width: 562
VWidth: 0
Flags: HW
LayerCount: 2
Fore
SplineSet
276.2 928.5 m 1
 383.5 928.5 l 1
 471.3 792 l 1
 388.3 792 l 1
 276.2 928.5 l 1
86.0996 140.5 m 2
 157.55 591.5 l 2
 176 705.6 247.1 734.6 327.65 732 c 1
 327.65 732 597.9 721.6 638.15 716 c 1
 623.2 621.25 l 1
 330.7 621.25 l 2
 281.3 621.25 274.05 592.25 270.05 565.25 c 2
 247.15 421.25 l 1
 546.45 410.9 l 1
 530.85 316.2 l 1
 229.2 306.55 l 1
 205.6 159.75 l 2
 197.9 106.75 231.25 107.75 260.25 107.75 c 2
 542.75 107.75 l 1
 527.15 14 l 1
 490.05 9.09961 220.65 -3 220.65 -3 c 2
 151.733 -6.41699 67.9502 25.8496 86.0996 140.5 c 2
EndSplineSet
Substitution2: "'c2sc' Capitals to Small Capitals in Latin lookup 17 subtable" egrave.smcp
EndChar

StartChar: Eacute
Encoding: 201 201 63
Width: 562
VWidth: 0
Flags: HW
LayerCount: 2
Fore
SplineSet
387.5 792 m 1
 505.7 928.5 l 1
 618.2 928.5 l 1
 470.5 792 l 1
 387.5 792 l 1
86.0996 140.5 m 2
 157.55 591.5 l 2
 176 705.6 247.1 734.6 327.65 732 c 1
 327.65 732 597.9 721.6 638.15 716 c 1
 623.2 621.25 l 1
 330.7 621.25 l 2
 281.3 621.25 274.05 592.25 270.05 565.25 c 2
 247.15 421.25 l 1
 546.45 410.9 l 1
 530.85 316.2 l 1
 229.2 306.55 l 1
 205.6 159.75 l 2
 197.9 106.75 231.25 107.75 260.25 107.75 c 2
 542.75 107.75 l 1
 527.15 14 l 1
 490.05 9.09961 220.65 -3 220.65 -3 c 2
 151.733 -6.41699 67.9502 25.8496 86.0996 140.5 c 2
EndSplineSet
Substitution2: "'c2sc' Capitals to Small Capitals in Latin lookup 17 subtable" eacute.smcp
EndChar

StartChar: Ecircumflex
Encoding: 202 202 64
Width: 562
VWidth: 0
Flags: HW
LayerCount: 2
Fore
SplineSet
278.7 792 m 1
 411.1 926.15 l 1
 503.1 926.15 l 1
 581.2 792 l 1
 497.5 792 l 1
 452.85 861.85 l 1
 379.5 792 l 1
 278.7 792 l 1
86.0996 140.5 m 2
 157.55 591.5 l 2
 176 705.6 247.1 734.6 327.65 732 c 1
 327.65 732 597.9 721.6 638.15 716 c 1
 623.2 621.25 l 1
 330.7 621.25 l 2
 281.3 621.25 274.05 592.25 270.05 565.25 c 2
 247.15 421.25 l 1
 546.45 410.9 l 1
 530.85 316.2 l 1
 229.2 306.55 l 1
 205.6 159.75 l 2
 197.9 106.75 231.25 107.75 260.25 107.75 c 2
 542.75 107.75 l 1
 527.15 14 l 1
 490.05 9.09961 220.65 -3 220.65 -3 c 2
 151.733 -6.41699 67.9502 25.8496 86.0996 140.5 c 2
EndSplineSet
Substitution2: "'c2sc' Capitals to Small Capitals in Latin lookup 17 subtable" ecircumflex.smcp
EndChar

StartChar: Edieresis
Encoding: 203 203 65
Width: 562
VWidth: 0
Flags: HW
LayerCount: 2
Fore
SplineSet
500.95 843 m 0
 505.65 873.8 535.1 898.25 565.9 898.25 c 0
 596.7 898.25 617.15 873.8 612.45 843 c 0
 607.75 812.2 578.95 786.75 548.15 786.75 c 0
 517.35 786.75 496.25 812.2 500.95 843 c 0
245.95 843 m 0
 250.65 873.8 280.1 898.25 310.9 898.25 c 0
 341.7 898.25 362.15 873.8 357.45 843 c 0
 352.75 812.2 323.95 786.75 293.15 786.75 c 0
 262.35 786.75 241.25 812.2 245.95 843 c 0
86.0996 140.5 m 2
 157.55 591.5 l 2
 176 705.6 247.1 734.6 327.65 732 c 1
 327.65 732 597.9 721.6 638.15 716 c 1
 623.2 621.25 l 1
 330.7 621.25 l 2
 281.3 621.25 274.05 592.25 270.05 565.25 c 2
 247.15 421.25 l 1
 546.45 410.9 l 1
 530.85 316.2 l 1
 229.2 306.55 l 1
 205.6 159.75 l 2
 197.9 106.75 231.25 107.75 260.25 107.75 c 2
 542.75 107.75 l 1
 527.15 14 l 1
 490.05 9.09961 220.65 -3 220.65 -3 c 2
 151.733 -6.41699 67.9502 25.8496 86.0996 140.5 c 2
EndSplineSet
Substitution2: "'c2sc' Capitals to Small Capitals in Latin lookup 17 subtable" edieresis.smcp
EndChar

StartChar: Igrave
Encoding: 204 204 66
Width: 244
VWidth: 0
Flags: HW
LayerCount: 2
Fore
SplineSet
105.123 933.5 m 1
 212.423 933.5 l 1
 300.224 797 l 1
 217.224 797 l 1
 105.123 933.5 l 1
74.25 0 m 1
 190.25 732 l 1
 306.25 732 l 1
 190.25 0 l 1
 74.25 0 l 1
EndSplineSet
Substitution2: "'c2sc' Capitals to Small Capitals in Latin lookup 17 subtable" igrave.smcp
EndChar

StartChar: Iacute
Encoding: 205 205 67
Width: 244
VWidth: 0
Flags: HW
LayerCount: 2
Fore
SplineSet
217.223 797 m 1
 335.423 933.5 l 1
 447.923 933.5 l 1
 300.223 797 l 1
 217.223 797 l 1
74.25 0 m 1
 190.25 732 l 1
 306.25 732 l 1
 190.25 0 l 1
 74.25 0 l 1
EndSplineSet
Substitution2: "'c2sc' Capitals to Small Capitals in Latin lookup 17 subtable" iacute.smcp
EndChar

StartChar: Icircumflex
Encoding: 206 206 68
Width: 244
VWidth: 0
Flags: HW
LayerCount: 2
Fore
SplineSet
107.298 797 m 1
 239.698 930.5 l 1
 331.698 930.5 l 1
 409.798 797 l 1
 328.698 797 l 1
 280.798 868.8 l 1
 201.998 797 l 1
 107.298 797 l 1
74.25 0 m 1
 190.25 732 l 1
 306.25 732 l 1
 190.25 0 l 1
 74.25 0 l 1
EndSplineSet
Substitution2: "'c2sc' Capitals to Small Capitals in Latin lookup 17 subtable" icircumflex.smcp
EndChar

StartChar: Idieresis
Encoding: 207 207 69
Width: 244
VWidth: 0
Flags: HW
LayerCount: 2
Fore
SplineSet
339.401 853.25 m 0
 344.102 884.05 373.552 908.5 404.352 908.5 c 0
 435.151 908.5 455.602 884.05 450.901 853.25 c 0
 446.202 822.45 417.401 797 386.602 797 c 0
 355.802 797 334.702 822.45 339.401 853.25 c 0
84.4014 853.25 m 0
 89.1016 884.05 118.552 908.5 149.352 908.5 c 0
 180.151 908.5 200.602 884.05 195.901 853.25 c 0
 191.202 822.45 162.401 797 131.602 797 c 0
 100.802 797 79.7021 822.45 84.4014 853.25 c 0
74.25 0 m 1
 190.25 732 l 1
 306.25 732 l 1
 190.25 0 l 1
 74.25 0 l 1
EndSplineSet
Substitution2: "'c2sc' Capitals to Small Capitals in Latin lookup 17 subtable" idieresis.smcp
EndChar

StartChar: Ntilde
Encoding: 209 209 70
Width: 665
VWidth: 0
Flags: HW
LayerCount: 2
Fore
SplineSet
299.55 843.85 m 1
 339.65 877.9 383.75 911.35 430 911.35 c 1
 477.9 909.4 497.8 877.65 530 877 c 0
 559.6 875.65 617 902.45 630 913.1 c 1
 644.65 859.9 l 1
 607.25 830.8 565.8 793.75 519.35 794.4 c 0
 467.9 795.05 451.6 829.4 414.55 828.75 c 0
 372.3 828.1 347.95 811.25 314.9 793.75 c 1
 299.55 843.85 l 1
67.75 0 m 1
 183.75 732 l 1
 299.15 732 l 1
 533 213.25 l 1
 614.75 732 l 1
 730.75 732 l 1
 614.75 0 l 1
 501.35 0 l 1
 266.15 515.25 l 1
 184.75 0 l 1
 67.75 0 l 1
EndSplineSet
AlternateSubs2: "'salt' Access All Alternates in Latin lookup 4-1" Ntilde.salt
Substitution2: "'c2sc' Capitals to Small Capitals in Latin lookup 17 subtable" ntilde.smcp
EndChar

StartChar: Ograve
Encoding: 210 210 71
Width: 666
VWidth: 0
Flags: HW
LayerCount: 2
Fore
SplineSet
306.809 933.5 m 1
 414.109 933.5 l 1
 501.909 797 l 1
 418.909 797 l 1
 306.809 933.5 l 1
223.65 361 m 0
 188.6 140.4 225.1 105 356.9 105 c 0
 479.3 105 537.55 144.9 571.65 361 c 0
 611.65 614.85 552.5 628 440.05 628 c 0
 322.8 628 264 618 223.65 361 c 0
107.65 369.75 m 0
 161.65 712.75 278.25 737 450.8 737 c 0
 624.45 737 739.05 687.45 687.65 352.25 c 0
 637.95 29.25 521.6 -4 346.15 -4 c 0
 177.85 -4 54.6504 36.75 107.65 369.75 c 0
EndSplineSet
Substitution2: "'c2sc' Capitals to Small Capitals in Latin lookup 17 subtable" ograve.smcp
EndChar

StartChar: Oacute
Encoding: 211 211 72
Width: 666
VWidth: 0
Flags: HW
LayerCount: 2
Fore
SplineSet
418.909 797 m 1
 537.109 933.5 l 1
 649.609 933.5 l 1
 501.909 797 l 1
 418.909 797 l 1
223.65 361 m 0
 188.6 140.4 225.1 105 356.9 105 c 0
 479.3 105 537.55 144.9 571.65 361 c 0
 611.65 614.85 552.5 628 440.05 628 c 0
 322.8 628 264 618 223.65 361 c 0
107.65 369.75 m 0
 161.65 712.75 278.25 737 450.8 737 c 0
 624.45 737 739.05 687.45 687.65 352.25 c 0
 637.95 29.25 521.6 -4 346.15 -4 c 0
 177.85 -4 54.6504 36.75 107.65 369.75 c 0
EndSplineSet
Substitution2: "'c2sc' Capitals to Small Capitals in Latin lookup 17 subtable" oacute.smcp
EndChar

StartChar: Ocircumflex
Encoding: 212 212 73
Width: 666
VWidth: 0
Flags: HW
LayerCount: 2
Fore
SplineSet
309.334 797 m 1
 441.734 930.5 l 1
 533.734 930.5 l 1
 611.834 797 l 1
 530.734 797 l 1
 482.834 868.8 l 1
 404.034 797 l 1
 309.334 797 l 1
223.65 361 m 0
 188.6 140.4 225.1 105 356.9 105 c 0
 479.3 105 537.55 144.9 571.65 361 c 0
 611.65 614.85 552.5 628 440.05 628 c 0
 322.8 628 264 618 223.65 361 c 0
107.65 369.75 m 0
 161.65 712.75 278.25 737 450.8 737 c 0
 624.45 737 739.05 687.45 687.65 352.25 c 0
 637.95 29.25 521.6 -4 346.15 -4 c 0
 177.85 -4 54.6504 36.75 107.65 369.75 c 0
EndSplineSet
Substitution2: "'c2sc' Capitals to Small Capitals in Latin lookup 17 subtable" ocircumflex.smcp
EndChar

StartChar: Otilde
Encoding: 213 213 74
Width: 666
VWidth: 0
Flags: HW
LayerCount: 2
Fore
SplineSet
297.065 847.1 m 1
 337.165 881.15 381.265 914.6 427.515 914.6 c 1
 475.415 912.65 495.315 880.9 527.515 880.25 c 0
 557.115 878.9 614.515 905.7 627.515 916.35 c 1
 642.165 863.15 l 1
 604.765 834.05 563.315 797 516.865 797.65 c 0
 465.415 798.3 449.115 832.65 412.065 832 c 0
 369.815 831.35 345.465 814.5 312.415 797 c 1
 297.065 847.1 l 1
223.65 361 m 0
 188.6 140.4 225.1 105 356.9 105 c 0
 479.3 105 537.55 144.9 571.65 361 c 0
 611.65 614.85 552.5 628 440.05 628 c 0
 322.8 628 264 618 223.65 361 c 0
107.65 369.75 m 0
 161.65 712.75 278.25 737 450.8 737 c 0
 624.45 737 739.05 687.45 687.65 352.25 c 0
 637.95 29.25 521.6 -4 346.15 -4 c 0
 177.85 -4 54.6504 36.75 107.65 369.75 c 0
EndSplineSet
Substitution2: "'c2sc' Capitals to Small Capitals in Latin lookup 17 subtable" otilde.smcp
EndChar

StartChar: Odieresis
Encoding: 214 214 75
Width: 666
VWidth: 0
Flags: HW
LayerCount: 2
Fore
SplineSet
541.438 853.25 m 0
 546.137 884.05 575.587 908.5 606.387 908.5 c 0
 637.188 908.5 657.637 884.05 652.938 853.25 c 0
 648.237 822.45 619.438 797 588.637 797 c 0
 557.837 797 536.737 822.45 541.438 853.25 c 0
286.438 853.25 m 0
 291.137 884.05 320.587 908.5 351.387 908.5 c 0
 382.188 908.5 402.637 884.05 397.938 853.25 c 0
 393.237 822.45 364.438 797 333.637 797 c 0
 302.837 797 281.737 822.45 286.438 853.25 c 0
223.65 361 m 0
 188.6 140.4 225.1 105 356.9 105 c 0
 479.3 105 537.55 144.9 571.65 361 c 0
 611.65 614.85 552.5 628 440.05 628 c 0
 322.8 628 264 618 223.65 361 c 0
107.65 369.75 m 0
 161.65 712.75 278.25 737 450.8 737 c 0
 624.45 737 739.05 687.45 687.65 352.25 c 0
 637.95 29.25 521.6 -4 346.15 -4 c 0
 177.85 -4 54.6504 36.75 107.65 369.75 c 0
EndSplineSet
Substitution2: "'c2sc' Capitals to Small Capitals in Latin lookup 17 subtable" odieresis.smcp
EndChar

StartChar: Oslash
Encoding: 216 216 76
Width: 666
VWidth: 0
Flags: HW
LayerCount: 2
Fore
SplineSet
236.55 137 m 1
 259.6 111.7 298.25 105 354.95 105 c 0
 477.35 105 535.25 144.9 569.35 361 c 0
 583.5 452.8 584.6 511.2 574.2 549.6 c 1
 236.55 137 l 1
221.35 361 m 0
 208.9 283 207.5 231.1 216.55 196.15 c 1
 549.35 603.5 l 1
 524.3 625.95 485.05 628 437.75 628 c 0
 320.5 628 261.7 618 221.35 361 c 0
52.2 0 m 1
 121.2 83.25 l 1
 92 136.6 83.05 233.7 105.35 371.5 c 0
 159.35 714.5 276.3 737 448.85 737 c 0
 521.8 737 584.8 729.7 628.5 696.45 c 1
 657.45 732 l 1
 727.2 732 l 1
 665.05 656.6 l 1
 698.35 601.6 708.35 500.45 685.35 350.5 c 0
 635.65 27.5 519.3 -4 343.85 -4 c 0
 268.05 -4 201 2.65 155.65 40.65 c 1
 121.95 0 l 1
 52.2 0 l 1
EndSplineSet
Substitution2: "'c2sc' Capitals to Small Capitals in Latin lookup 17 subtable" oslash.smcp
EndChar

StartChar: Ugrave
Encoding: 217 217 77
Width: 654
VWidth: 0
Flags: HW
LayerCount: 2
Fore
SplineSet
307.748 933.5 m 1
 415.048 933.5 l 1
 502.848 797 l 1
 419.848 797 l 1
 307.748 933.5 l 1
116.15 318.8 m 2
 182.05 732 l 1
 298.7 732 l 1
 231.75 308.3 l 2
 207 151.9 238.35 104 349.6 104 c 0
 465.25 104 513 161.1 536.1 308.3 c 2
 603.05 732 l 1
 720.05 732 l 1
 654.85 297.8 l 1
 622.05 91.7998 536.2 -5 335.9 -5 c 0
 181.7 -5 74.8496 58.5996 116.15 318.8 c 2
EndSplineSet
Substitution2: "'c2sc' Capitals to Small Capitals in Latin lookup 17 subtable" ugrave.smcp
EndChar

StartChar: Uacute
Encoding: 218 218 78
Width: 654
VWidth: 0
Flags: HW
LayerCount: 2
Fore
SplineSet
419.848 797 m 1
 538.048 933.5 l 1
 650.548 933.5 l 1
 502.848 797 l 1
 419.848 797 l 1
116.15 318.8 m 2
 182.05 732 l 1
 298.7 732 l 1
 231.75 308.3 l 2
 207 151.9 238.35 104 349.6 104 c 0
 465.25 104 513 161.1 536.1 308.3 c 2
 603.05 732 l 1
 720.05 732 l 1
 654.85 297.8 l 1
 622.05 91.7998 536.2 -5 335.9 -5 c 0
 181.7 -5 74.8496 58.5996 116.15 318.8 c 2
EndSplineSet
Substitution2: "'c2sc' Capitals to Small Capitals in Latin lookup 17 subtable" uacute.smcp
EndChar

StartChar: Ucircumflex
Encoding: 219 219 79
Width: 654
VWidth: 0
Flags: HW
LayerCount: 2
Fore
SplineSet
310.273 797 m 1
 442.673 930.5 l 1
 534.673 930.5 l 1
 612.773 797 l 1
 531.673 797 l 1
 483.773 868.8 l 1
 404.973 797 l 1
 310.273 797 l 1
116.15 318.8 m 2
 182.05 732 l 1
 298.7 732 l 1
 231.75 308.3 l 2
 207 151.9 238.35 104 349.6 104 c 0
 465.25 104 513 161.1 536.1 308.3 c 2
 603.05 732 l 1
 720.05 732 l 1
 654.85 297.8 l 1
 622.05 91.7998 536.2 -5 335.9 -5 c 0
 181.7 -5 74.8496 58.5996 116.15 318.8 c 2
EndSplineSet
Substitution2: "'c2sc' Capitals to Small Capitals in Latin lookup 17 subtable" ucircumflex.smcp
EndChar

StartChar: Udieresis
Encoding: 220 220 80
Width: 654
VWidth: 0
Flags: HW
LayerCount: 2
Fore
SplineSet
542.377 853.25 m 0
 547.077 884.05 576.527 908.5 607.327 908.5 c 0
 638.127 908.5 658.577 884.05 653.877 853.25 c 0
 649.177 822.45 620.377 797 589.577 797 c 0
 558.777 797 537.677 822.45 542.377 853.25 c 0
287.377 853.25 m 0
 292.077 884.05 321.527 908.5 352.327 908.5 c 0
 383.127 908.5 403.577 884.05 398.877 853.25 c 0
 394.177 822.45 365.377 797 334.577 797 c 0
 303.777 797 282.677 822.45 287.377 853.25 c 0
116.15 318.8 m 2
 182.05 732 l 1
 298.7 732 l 1
 231.75 308.3 l 2
 207 151.9 238.35 104 349.6 104 c 0
 465.25 104 513 161.1 536.1 308.3 c 2
 603.05 732 l 1
 720.05 732 l 1
 654.85 297.8 l 1
 622.05 91.7998 536.2 -5 335.9 -5 c 0
 181.7 -5 74.8496 58.5996 116.15 318.8 c 2
EndSplineSet
Substitution2: "'c2sc' Capitals to Small Capitals in Latin lookup 17 subtable" udieresis.smcp
EndChar

StartChar: Yacute
Encoding: 221 221 81
Width: 647
VWidth: 0
Flags: HW
LayerCount: 2
Fore
SplineSet
405.973 797 m 1
 524.173 933.5 l 1
 636.673 933.5 l 1
 488.973 797 l 1
 405.973 797 l 1
143 732 m 1
 267.55 732 l 1
 367.55 370.95 l 1
 597.15 732 l 1
 731 732 l 1
 407.55 239 l 1
 369.7 0 l 1
 253.7 0 l 1
 291.55 239 l 1
 143 732 l 1
EndSplineSet
Substitution2: "'c2sc' Capitals to Small Capitals in Latin lookup 17 subtable" yacute.smcp
EndChar

StartChar: agrave
Encoding: 224 224 82
Width: 541
VWidth: 0
Flags: HW
LayerCount: 2
Fore
SplineSet
201.817 738.782 m 1
 309.117 738.782 l 1
 396.917 602.282 l 1
 313.917 602.282 l 1
 201.817 738.782 l 1
193.8 263.95 m 0
 176 149.75 189.75 96.0498 257.95 96.0498 c 0
 322.7 96.0498 359.6 115.05 404.85 145.45 c 1
 448.1 431 l 1
 406.3 443.85 351.4 449.75 317.75 442.8 c 0
 265.35 432.55 218.15 418.55 193.8 263.95 c 0
81.1504 289.9 m 0
 121 508.65 229.5 534.5 319.2 541 c 0
 393.4 546.85 519.95 528 570.95 479 c 1
 500.95 0.700195 l 1
 412.95 0.700195 l 1
 395.3 57.2002 l 1
 368.05 29.4502 294 -6.2998 225.4 -6.2998 c 0
 118.05 -6.2998 40.0996 62.9004 81.1504 289.9 c 0
EndSplineSet
AlternateSubs2: "'salt' Access All Alternates in Latin lookup 4-1" agrave.salt
Substitution2: "'smcp' Lowercase to Small Capitals lookup 16-1" agrave.smcp
EndChar

StartChar: aacute
Encoding: 225 225 83
Width: 541
VWidth: 0
Flags: HW
LayerCount: 2
Fore
SplineSet
320.417 602.282 m 1
 438.617 738.782 l 1
 551.117 738.782 l 1
 403.417 602.282 l 1
 320.417 602.282 l 1
193.8 263.95 m 0
 176 149.75 189.75 96.0498 257.95 96.0498 c 0
 322.7 96.0498 359.6 115.05 404.85 145.45 c 1
 448.1 431 l 1
 406.3 443.85 351.4 449.75 317.75 442.8 c 0
 265.35 432.55 218.15 418.55 193.8 263.95 c 0
81.1504 289.9 m 0
 121 508.65 229.5 534.5 319.2 541 c 0
 393.4 546.85 519.95 528 570.95 479 c 1
 500.95 0.700195 l 1
 412.95 0.700195 l 1
 395.3 57.2002 l 1
 368.05 29.4502 294 -6.2998 225.4 -6.2998 c 0
 118.05 -6.2998 40.0996 62.9004 81.1504 289.9 c 0
EndSplineSet
AlternateSubs2: "'salt' Access All Alternates in Latin lookup 4-1" aacute.salt
Substitution2: "'smcp' Lowercase to Small Capitals lookup 16-1" aacute.smcp
EndChar

StartChar: acircumflex
Encoding: 226 226 84
Width: 541
VWidth: 0
Flags: HW
LayerCount: 2
Fore
SplineSet
204.342 602.282 m 1
 336.742 735.782 l 1
 428.742 735.782 l 1
 506.842 602.282 l 1
 425.742 602.282 l 1
 377.842 674.082 l 1
 299.042 602.282 l 1
 204.342 602.282 l 1
193.8 263.95 m 0
 176 149.75 189.75 96.0498 257.95 96.0498 c 0
 322.7 96.0498 359.6 115.05 404.85 145.45 c 1
 448.1 431 l 1
 406.3 443.85 351.4 449.75 317.75 442.8 c 0
 265.35 432.55 218.15 418.55 193.8 263.95 c 0
81.1504 289.9 m 0
 121 508.65 229.5 534.5 319.2 541 c 0
 393.4 546.85 519.95 528 570.95 479 c 1
 500.95 0.700195 l 1
 412.95 0.700195 l 1
 395.3 57.2002 l 1
 368.05 29.4502 294 -6.2998 225.4 -6.2998 c 0
 118.05 -6.2998 40.0996 62.9004 81.1504 289.9 c 0
EndSplineSet
AlternateSubs2: "'salt' Access All Alternates in Latin lookup 4-1" acircumflex.salt
Substitution2: "'smcp' Lowercase to Small Capitals lookup 16-1" acircumflex.smcp
EndChar

StartChar: atilde
Encoding: 227 227 85
Width: 541
VWidth: 0
Flags: HW
LayerCount: 2
Fore
SplineSet
197.273 652.382 m 1
 237.373 686.432 281.474 719.882 327.724 719.882 c 1
 375.623 717.932 395.523 686.182 427.724 685.532 c 0
 457.323 684.182 514.724 710.982 527.724 721.632 c 1
 542.373 668.432 l 1
 504.974 639.332 463.523 602.282 417.073 602.932 c 0
 365.623 603.582 349.323 637.932 312.273 637.282 c 0
 270.023 636.632 245.674 619.782 212.623 602.282 c 1
 197.273 652.382 l 1
193.8 263.95 m 0
 176 149.75 189.75 96.0498 257.95 96.0498 c 0
 322.7 96.0498 359.6 115.05 404.85 145.45 c 1
 448.1 431 l 1
 406.3 443.85 351.4 449.75 317.75 442.8 c 0
 265.35 432.55 218.15 418.55 193.8 263.95 c 0
81.1504 289.9 m 0
 121 508.65 229.5 534.5 319.2 541 c 0
 393.4 546.85 519.95 528 570.95 479 c 1
 500.95 0.700195 l 1
 412.95 0.700195 l 1
 395.3 57.2002 l 1
 368.05 29.4502 294 -6.2998 225.4 -6.2998 c 0
 118.05 -6.2998 40.0996 62.9004 81.1504 289.9 c 0
EndSplineSet
AlternateSubs2: "'salt' Access All Alternates in Latin lookup 4-1" atilde.salt
Substitution2: "'smcp' Lowercase to Small Capitals lookup 16-1" atilde.smcp
EndChar

StartChar: adieresis
Encoding: 228 228 86
Width: 541
VWidth: 0
Flags: HW
LayerCount: 2
Fore
SplineSet
436.096 658.532 m 0
 440.795 689.332 470.245 713.782 501.045 713.782 c 0
 531.846 713.782 552.295 689.332 547.596 658.532 c 0
 542.896 627.732 514.096 602.282 483.295 602.282 c 0
 452.495 602.282 431.396 627.732 436.096 658.532 c 0
181.096 658.532 m 0
 185.795 689.332 215.245 713.782 246.045 713.782 c 0
 276.846 713.782 297.295 689.332 292.596 658.532 c 0
 287.896 627.732 259.096 602.282 228.295 602.282 c 0
 197.495 602.282 176.396 627.732 181.096 658.532 c 0
193.8 263.95 m 0
 176 149.75 189.75 96.0498 257.95 96.0498 c 0
 322.7 96.0498 359.6 115.05 404.85 145.45 c 1
 448.1 431 l 1
 406.3 443.85 351.4 449.75 317.75 442.8 c 0
 265.35 432.55 218.15 418.55 193.8 263.95 c 0
81.1504 289.9 m 0
 121 508.65 229.5 534.5 319.2 541 c 0
 393.4 546.85 519.95 528 570.95 479 c 1
 500.95 0.700195 l 1
 412.95 0.700195 l 1
 395.3 57.2002 l 1
 368.05 29.4502 294 -6.2998 225.4 -6.2998 c 0
 118.05 -6.2998 40.0996 62.9004 81.1504 289.9 c 0
EndSplineSet
AlternateSubs2: "'salt' Access All Alternates in Latin lookup 4-1" adieresis.salt
Substitution2: "'smcp' Lowercase to Small Capitals lookup 16-1" adieresis.smcp
EndChar

StartChar: aring
Encoding: 229 229 87
Width: 541
VWidth: 0
Flags: HW
LayerCount: 2
Fore
SplineSet
331.062 703.582 m 0
 328.657 677.432 348.442 656.932 374.592 656.932 c 0
 400.742 656.932 422.957 677.432 425.363 703.582 c 0
 427.77 729.732 409.041 751.232 382.891 751.232 c 0
 356.741 751.232 333.47 729.732 331.062 703.582 c 0
276.713 703.582 m 0
 281.704 760.582 331.021 805.532 387.021 805.532 c 0
 443.021 805.532 484.704 760.582 479.713 703.582 c 0
 474.722 646.582 426.812 602.282 370.812 602.282 c 0
 314.812 602.282 271.722 646.582 276.713 703.582 c 0
193.8 263.95 m 0
 176 149.75 189.75 96.0498 257.95 96.0498 c 0
 322.7 96.0498 359.6 115.05 404.85 145.45 c 1
 448.1 431 l 1
 406.3 443.85 351.4 449.75 317.75 442.8 c 0
 265.35 432.55 218.15 418.55 193.8 263.95 c 0
81.1504 289.9 m 0
 121 508.65 229.5 534.5 319.2 541 c 0
 393.4 546.85 519.95 528 570.95 479 c 1
 500.95 0.700195 l 1
 412.95 0.700195 l 1
 395.3 57.2002 l 1
 368.05 29.4502 294 -6.2998 225.4 -6.2998 c 0
 118.05 -6.2998 40.0996 62.9004 81.1504 289.9 c 0
EndSplineSet
AlternateSubs2: "'salt' Access All Alternates in Latin lookup 4-1" aring.salt
Substitution2: "'smcp' Lowercase to Small Capitals lookup 16-1" aring.smcp
EndChar

StartChar: ae
Encoding: 230 230 88
Width: 868
VWidth: 0
Flags: HW
LayerCount: 2
Fore
SplineSet
504.15 293.25 m 1
 504.15 293.25 718.5 263.65 737.65 375.75 c 0
 747.55 433.1 713.7 442.85 645.7 442.5 c 0
 527.65 441.8 518.95 368.15 504.15 293.25 c 1
165.8 263.25 m 0
 148 149.05 155.55 96 229.6 95.35 c 0
 283.65 94.7 350.45 111.2 374.4 137 c 1
 370.45 179.3 374.75 231.2 386.05 292 c 0
 396.25 346 407.8 392.15 427.15 427.8 c 1
 383.95 440.3 321.7 449.4 289.4 442.8 c 0
 237.65 432.55 190.15 417.85 165.8 263.25 c 0
53.45 290.05 m 0
 96.55 515.95 196.6 534.5 286.3 541 c 1
 343.75 546.2 439.3 533.4 494.35 504.45 c 1
 531 528.15 577.3 540.65 648.65 541 c 0
 767.3 541.35 866.2 507.85 855.4 388 c 0
 835.45 154.3 531.05 199.75 494.05 214.75 c 1
 477.95 118.05 497.3 90.9 568.3 90.25 c 1
 633.8 86.35 725.95 95.35 793.8 106 c 1
 779.55 22 l 1
 698 -1.7 617.4 -11.2 516.55 -7 c 0
 456.4 -5.25 416.1 18.1 394.35 62.65 c 1
 353.55 20.1 259 -7 197.4 -7 c 0
 89.05 -7 11.75 71.5 53.45 290.05 c 0
EndSplineSet
Substitution2: "'smcp' Lowercase to Small Capitals lookup 16-1" ae.smcp
EndChar

StartChar: ccedilla
Encoding: 231 231 89
Width: 494
VWidth: 0
Flags: HW
LayerCount: 2
Fore
SplineSet
134.8 -176.85 m 1
 142.9 -125.15 l 1
 192.65 -110.15 l 1
 222.65 -98.15 229.15 -75.35 235.15 -37.35 c 1
 253.35 -38 319.65 -37.35 319.65 -37.35 c 1
 303.65 -139.35 273.5 -176.85 189.3 -176.85 c 2
 134.8 -176.85 l 1
83.65 276.5 m 0
 123.8 513.75 204.5 537.3 301.3 537.3 c 0
 353.3 537.3 457 529.3 534.8 506.5 c 1
 523.3 431.5 l 1
 523.3 431.5 412.95 438.8 323.95 438.8 c 0
 261.8 438.8 229.4 434.3 198.65 262.7 c 0
 174.45 123.15 201.2 92.2 268.65 92.2 c 0
 360.65 92.2 478 102.15 478 102.15 c 1
 465.85 25.85 l 1
 381.55 -7.65 304.5 -5.95 221.5 -5.65 c 0
 120.55 -5 49.35 73.05 83.65 276.5 c 0
EndSplineSet
Substitution2: "'smcp' Lowercase to Small Capitals lookup 16-1" ccedilla.smcp
EndChar

StartChar: egrave
Encoding: 232 232 90
Width: 526
VWidth: 0
Flags: HW
LayerCount: 2
Fore
SplineSet
207.259 737.5 m 1
 314.559 737.5 l 1
 402.358 601 l 1
 319.358 601 l 1
 207.259 737.5 l 1
200.8 293.25 m 1
 200.8 293.25 414.8 263.65 433.95 375.75 c 0
 443.85 433.1 410.35 442.85 342.35 442.5 c 0
 224.3 441.8 215.6 368.15 200.8 293.25 c 1
82.7002 292 m 0
 113.7 455 155.2 540.3 350.2 541 c 0
 468.85 541.35 562.85 507.85 552.05 388 c 0
 532.1 154.3 227.35 199.75 190.35 214.75 c 1
 174.25 118.05 193.6 90.9004 264.6 90.25 c 1
 330.1 86.3496 425.45 95.3496 493.3 106 c 1
 479.7 22 l 1
 398.15 -1.7002 313.4 -11.2002 212.55 -7 c 1
 84.9004 -3.15039 46.7002 98 82.7002 292 c 0
EndSplineSet
Substitution2: "'smcp' Lowercase to Small Capitals lookup 16-1" egrave.smcp
EndChar

StartChar: eacute
Encoding: 233 233 91
Width: 526
VWidth: 0
Flags: HW
LayerCount: 2
Fore
SplineSet
319.359 601 m 1
 437.559 737.5 l 1
 550.059 737.5 l 1
 402.359 601 l 1
 319.359 601 l 1
200.8 293.25 m 1
 200.8 293.25 414.8 263.65 433.95 375.75 c 0
 443.85 433.1 410.35 442.85 342.35 442.5 c 0
 224.3 441.8 215.6 368.15 200.8 293.25 c 1
82.7002 292 m 0
 113.7 455 155.2 540.3 350.2 541 c 0
 468.85 541.35 562.85 507.85 552.05 388 c 0
 532.1 154.3 227.35 199.75 190.35 214.75 c 1
 174.25 118.05 193.6 90.9004 264.6 90.25 c 1
 330.1 86.3496 425.45 95.3496 493.3 106 c 1
 479.7 22 l 1
 398.15 -1.7002 313.4 -11.2002 212.55 -7 c 1
 84.9004 -3.15039 46.7002 98 82.7002 292 c 0
EndSplineSet
Substitution2: "'smcp' Lowercase to Small Capitals lookup 16-1" eacute.smcp
EndChar

StartChar: ecircumflex
Encoding: 234 234 92
Width: 526
VWidth: 0
Flags: HW
LayerCount: 2
Fore
SplineSet
209.784 601 m 1
 342.184 734.5 l 1
 434.184 734.5 l 1
 512.284 601 l 1
 431.184 601 l 1
 383.284 672.8 l 1
 304.484 601 l 1
 209.784 601 l 1
200.8 293.25 m 1
 200.8 293.25 414.8 263.65 433.95 375.75 c 0
 443.85 433.1 410.35 442.85 342.35 442.5 c 0
 224.3 441.8 215.6 368.15 200.8 293.25 c 1
82.7002 292 m 0
 113.7 455 155.2 540.3 350.2 541 c 0
 468.85 541.35 562.85 507.85 552.05 388 c 0
 532.1 154.3 227.35 199.75 190.35 214.75 c 1
 174.25 118.05 193.6 90.9004 264.6 90.25 c 1
 330.1 86.3496 425.45 95.3496 493.3 106 c 1
 479.7 22 l 1
 398.15 -1.7002 313.4 -11.2002 212.55 -7 c 1
 84.9004 -3.15039 46.7002 98 82.7002 292 c 0
EndSplineSet
Substitution2: "'smcp' Lowercase to Small Capitals lookup 16-1" ecircumflex.smcp
EndChar

StartChar: edieresis
Encoding: 235 235 93
Width: 526
VWidth: 0
Flags: HW
LayerCount: 2
Fore
SplineSet
441.536 657.25 m 0
 446.236 688.05 475.687 712.5 506.486 712.5 c 0
 537.286 712.5 557.736 688.05 553.036 657.25 c 0
 548.337 626.45 519.536 601 488.736 601 c 0
 457.937 601 436.837 626.45 441.536 657.25 c 0
186.536 657.25 m 0
 191.236 688.05 220.687 712.5 251.486 712.5 c 0
 282.286 712.5 302.736 688.05 298.036 657.25 c 0
 293.337 626.45 264.536 601 233.736 601 c 0
 202.937 601 181.837 626.45 186.536 657.25 c 0
200.8 293.25 m 1
 200.8 293.25 414.8 263.65 433.95 375.75 c 0
 443.85 433.1 410.35 442.85 342.35 442.5 c 0
 224.3 441.8 215.6 368.15 200.8 293.25 c 1
82.7002 292 m 0
 113.7 455 155.2 540.3 350.2 541 c 0
 468.85 541.35 562.85 507.85 552.05 388 c 0
 532.1 154.3 227.35 199.75 190.35 214.75 c 1
 174.25 118.05 193.6 90.9004 264.6 90.25 c 1
 330.1 86.3496 425.45 95.3496 493.3 106 c 1
 479.7 22 l 1
 398.15 -1.7002 313.4 -11.2002 212.55 -7 c 1
 84.9004 -3.15039 46.7002 98 82.7002 292 c 0
EndSplineSet
Substitution2: "'smcp' Lowercase to Small Capitals lookup 16-1" edieresis.smcp
EndChar

StartChar: igrave
Encoding: 236 236 94
Width: 214
VWidth: 0
Flags: HW
LayerCount: 2
Fore
SplineSet
44.1738 733.55 m 1
 151.474 733.55 l 1
 239.273 597.05 l 1
 156.273 597.05 l 1
 44.1738 733.55 l 1
46 0 m 1
 130 531 l 1
 246 531 l 1
 162 0 l 1
 46 0 l 1
EndSplineSet
Substitution2: "'smcp' Lowercase to Small Capitals lookup 16-1" igrave.smcp
EndChar

StartChar: iacute
Encoding: 237 237 95
Width: 214
VWidth: 0
Flags: HW
LayerCount: 2
Fore
SplineSet
154.974 597.05 m 1
 273.173 733.55 l 1
 385.673 733.55 l 1
 237.974 597.05 l 1
 154.974 597.05 l 1
46 0 m 1
 130 531 l 1
 246 531 l 1
 162 0 l 1
 46 0 l 1
EndSplineSet
Substitution2: "'smcp' Lowercase to Small Capitals lookup 16-1" iacute.smcp
EndChar

StartChar: icircumflex
Encoding: 238 238 96
Width: 214
VWidth: 0
Flags: HW
LayerCount: 2
Fore
SplineSet
44.0986 597.05 m 1
 176.498 730.55 l 1
 268.498 730.55 l 1
 346.599 597.05 l 1
 265.498 597.05 l 1
 217.599 668.85 l 1
 138.798 597.05 l 1
 44.0986 597.05 l 1
46 0 m 1
 130 531 l 1
 246 531 l 1
 162 0 l 1
 46 0 l 1
EndSplineSet
Substitution2: "'smcp' Lowercase to Small Capitals lookup 16-1" icircumflex.smcp
EndChar

StartChar: idieresis
Encoding: 239 239 97
Width: 214
VWidth: 0
Flags: HW
LayerCount: 2
Fore
SplineSet
273.602 653.3 m 0
 278.302 684.1 307.752 708.55 338.552 708.55 c 0
 369.352 708.55 389.802 684.1 385.102 653.3 c 0
 380.402 622.5 351.602 597.05 320.802 597.05 c 0
 290.002 597.05 268.902 622.5 273.602 653.3 c 0
18.6016 653.3 m 0
 23.3018 684.1 52.752 708.55 83.5518 708.55 c 0
 114.352 708.55 134.802 684.1 130.102 653.3 c 0
 125.402 622.5 96.6016 597.05 65.8018 597.05 c 0
 35.002 597.05 13.9023 622.5 18.6016 653.3 c 0
46 0 m 1
 130 531 l 1
 246 531 l 1
 162 0 l 1
 46 0 l 1
EndSplineSet
Substitution2: "'smcp' Lowercase to Small Capitals lookup 16-1" idieresis.smcp
EndChar

StartChar: eth
Encoding: 240 240 98
Width: 538
VWidth: 0
Flags: HW
LayerCount: 2
Fore
SplineSet
189.4 260.1 m 0
 168 129.6 194.25 108.4 244.7 109.7 c 1
 324.35 109.7 l 2
 373.45 109.05 407.95 126.8 429.4 260.1 c 0
 449.9 388.4 440.8 422 372.2 422 c 2
 297.75 422 l 2
 242.95 422 211.8 395.3 189.4 260.1 c 0
73.4 268.15 m 0
 103.65 449.85 162.7 531 297.7 531 c 2
 371.65 531 l 2
 377.65 531 429.05 531 443.5 519.5 c 1
 437.55 560.25 423.6 599.45 397.5 629.1 c 1
 263.8 573.9 l 1
 246 632.5 l 1
 337.15 669.5 l 1
 300.6 686.2 253.75 688.15 212.9 686.5 c 1
 228.15 783 l 1
 334.85 783 406.65 763.3 457.9 723.3 c 1
 566.1 767.85 l 1
 584.9 709.25 l 1
 503.3 676.4 l 1
 580.1 566.7 565.65 378.85 545.4 249.6 c 0
 516 66.2 448.9 0 322.4 0 c 2
 213.7 0 l 2
 76.7 0 48.65 119.05 73.4 268.15 c 0
EndSplineSet
Substitution2: "'smcp' Lowercase to Small Capitals lookup 16-1" eth.smcp
EndChar

StartChar: ograve
Encoding: 242 242 99
Width: 560
VWidth: 0
Flags: HW
LayerCount: 2
Fore
SplineSet
215.108 733.55 m 1
 322.408 733.55 l 1
 410.208 597.05 l 1
 327.208 597.05 l 1
 215.108 733.55 l 1
197.65 258 m 0
 172.85 109.45 209.95 93.5 294.75 93.5 c 0
 382.25 93.5 418.35 105.4 444.15 258 c 0
 469.3 409.4 445.35 438.55 349.7 438.55 c 0
 256.25 438.55 224.1 417.5 197.65 258 c 0
81.6504 266.75 m 0
 115.65 483.75 185.45 537.05 362.95 537.05 c 0
 537.25 537.05 591.85 444.65 560.15 249.25 c 0
 527.85 52.25 466.65 -5 286.05 -5 c 0
 108.8 -5 51.6504 76.75 81.6504 266.75 c 0
EndSplineSet
Substitution2: "'smcp' Lowercase to Small Capitals lookup 16-1" ograve.smcp
EndChar

StartChar: oacute
Encoding: 243 243 100
Width: 560
VWidth: 0
Flags: HW
LayerCount: 2
Fore
SplineSet
329.309 597.05 m 1
 447.509 733.55 l 1
 560.009 733.55 l 1
 412.309 597.05 l 1
 329.309 597.05 l 1
197.65 258 m 0
 172.85 109.45 209.95 93.5 294.75 93.5 c 0
 382.25 93.5 418.35 105.4 444.15 258 c 0
 469.3 409.4 445.35 438.55 349.7 438.55 c 0
 256.25 438.55 224.1 417.5 197.65 258 c 0
81.6504 266.75 m 0
 115.65 483.75 185.45 537.05 362.95 537.05 c 0
 537.25 537.05 591.85 444.65 560.15 249.25 c 0
 527.85 52.25 466.65 -5 286.05 -5 c 0
 108.8 -5 51.6504 76.75 81.6504 266.75 c 0
EndSplineSet
Substitution2: "'smcp' Lowercase to Small Capitals lookup 16-1" oacute.smcp
EndChar

StartChar: ocircumflex
Encoding: 244 244 101
Width: 560
VWidth: 0
Flags: HW
LayerCount: 2
Fore
SplineSet
216.234 597.05 m 1
 348.634 730.55 l 1
 440.634 730.55 l 1
 518.734 597.05 l 1
 437.634 597.05 l 1
 389.734 668.85 l 1
 310.934 597.05 l 1
 216.234 597.05 l 1
197.65 258 m 0
 172.85 109.45 209.95 93.5 294.75 93.5 c 0
 382.25 93.5 418.35 105.4 444.15 258 c 0
 469.3 409.4 445.35 438.55 349.7 438.55 c 0
 256.25 438.55 224.1 417.5 197.65 258 c 0
81.6504 266.75 m 0
 115.65 483.75 185.45 537.05 362.95 537.05 c 0
 537.25 537.05 591.85 444.65 560.15 249.25 c 0
 527.85 52.25 466.65 -5 286.05 -5 c 0
 108.8 -5 51.6504 76.75 81.6504 266.75 c 0
EndSplineSet
Substitution2: "'smcp' Lowercase to Small Capitals lookup 16-1" ocircumflex.smcp
EndChar

StartChar: otilde
Encoding: 245 245 102
Width: 560
VWidth: 0
Flags: HW
LayerCount: 2
Fore
SplineSet
205.715 647.15 m 1
 245.814 681.2 289.915 714.65 336.165 714.65 c 1
 384.064 712.7 403.965 680.95 436.165 680.3 c 0
 465.765 678.95 523.165 705.75 536.165 716.4 c 1
 550.814 663.2 l 1
 513.415 634.1 471.965 597.05 425.515 597.7 c 0
 374.064 598.35 357.765 632.7 320.715 632.05 c 0
 278.465 631.4 254.114 614.55 221.064 597.05 c 1
 205.715 647.15 l 1
197.65 258 m 0
 172.85 109.45 209.95 93.5 294.75 93.5 c 0
 382.25 93.5 418.35 105.4 444.15 258 c 0
 469.3 409.4 445.35 438.55 349.7 438.55 c 0
 256.25 438.55 224.1 417.5 197.65 258 c 0
81.6504 266.75 m 0
 115.65 483.75 185.45 537.05 362.95 537.05 c 0
 537.25 537.05 591.85 444.65 560.15 249.25 c 0
 527.85 52.25 466.65 -5 286.05 -5 c 0
 108.8 -5 51.6504 76.75 81.6504 266.75 c 0
EndSplineSet
Substitution2: "'smcp' Lowercase to Small Capitals lookup 16-1" otilde.smcp
EndChar

StartChar: odieresis
Encoding: 246 246 103
Width: 560
VWidth: 0
Flags: HW
LayerCount: 2
Fore
SplineSet
450.786 653.3 m 0
 455.486 684.1 484.937 708.55 515.736 708.55 c 0
 546.536 708.55 566.986 684.1 562.286 653.3 c 0
 557.587 622.5 528.786 597.05 497.986 597.05 c 0
 467.187 597.05 446.087 622.5 450.786 653.3 c 0
195.786 653.3 m 0
 200.486 684.1 229.937 708.55 260.736 708.55 c 0
 291.536 708.55 311.986 684.1 307.286 653.3 c 0
 302.587 622.5 273.786 597.05 242.986 597.05 c 0
 212.187 597.05 191.087 622.5 195.786 653.3 c 0
197.65 258 m 0
 172.85 109.45 209.95 93.5 294.75 93.5 c 0
 382.25 93.5 418.35 105.4 444.15 258 c 0
 469.3 409.4 445.35 438.55 349.7 438.55 c 0
 256.25 438.55 224.1 417.5 197.65 258 c 0
81.6504 266.75 m 0
 115.65 483.75 185.45 537.05 362.95 537.05 c 0
 537.25 537.05 591.85 444.65 560.15 249.25 c 0
 527.85 52.25 466.65 -5 286.05 -5 c 0
 108.8 -5 51.6504 76.75 81.6504 266.75 c 0
EndSplineSet
Substitution2: "'smcp' Lowercase to Small Capitals lookup 16-1" odieresis.smcp
EndChar

StartChar: ntilde
Encoding: 241 241 104
Width: 547
VWidth: 0
Flags: HW
LayerCount: 2
Fore
SplineSet
209.408 650.1 m 1
 249.509 684.15 293.608 717.6 339.858 717.6 c 1
 387.759 715.65 407.658 683.9 439.858 683.25 c 0
 469.459 681.9 526.858 708.7 539.858 719.35 c 1
 554.509 666.15 l 1
 517.108 637.05 475.658 600 429.209 600.65 c 0
 377.759 601.3 361.459 635.65 324.408 635 c 0
 282.158 634.35 257.809 617.5 224.759 600 c 1
 209.408 650.1 l 1
50.9004 0 m 1
 134.9 531 l 1
 225.4 531 l 1
 241.6 472.5 l 1
 298.45 506.1 350.4 540 431.4 540 c 0
 548.6 540 578.55 455.9 563.15 359.5 c 2
 505.9 0 l 1
 389.9 0 l 1
 447.15 360.9 l 2
 456.1 418.5 430.85 441.5 390 441.5 c 0
 325.05 441.5 288.65 425 229.1 391.5 c 1
 166.9 0 l 1
 50.9004 0 l 1
EndSplineSet
AlternateSubs2: "'salt' Access All Alternates in Latin lookup 4-1" ntilde.salt
Substitution2: "'smcp' Lowercase to Small Capitals lookup 16-1" ntilde.smcp
EndChar

StartChar: oslash
Encoding: 248 248 105
Width: 562
VWidth: 0
Flags: HW
LayerCount: 2
Fore
SplineSet
214.05 113.85 m 1
 231.05 96.5 258.7 93.5 296.4 93.5 c 0
 383.9 93.5 419.65 105.4 445.8 258 c 0
 454.6 309.9 454.65 343.9 445.9 366.15 c 1
 214.05 113.85 l 1
198.3 170.75 m 1
 425.9 420.75 l 1
 410.2 433.5 385.15 437.5 350.7 437.5 c 0
 257.25 437.5 225.75 417.5 199.3 258 c 0
 192.8 217.65 192.45 189.65 198.3 170.75 c 1
35.95 0 m 1
 98.85 67.45 l 1
 73.6 109.45 69.65 179.8 83.3 266.05 c 0
 117.3 483.05 187.1 536 364.6 536 c 0
 425.8 536 472.55 525.7 505.6 504.35 c 1
 530.3 531 l 1
 603.3 531 l 1
 542.7 466.5 l 1
 572.2 421.2 577.45 343.9 561.8 249.6 c 0
 529.5 52.6 467.65 -5 287.05 -5 c 0
 218.7 -5 168.35 6.3 134 30.25 c 1
 105.7 0 l 1
 35.95 0 l 1
EndSplineSet
Substitution2: "'smcp' Lowercase to Small Capitals lookup 16-1" oslash.smcp
EndChar

StartChar: thorn
Encoding: 254 254 106
Width: 553
VWidth: 0
Flags: HW
LayerCount: 2
Fore
SplineSet
192.3 106.5 m 1
 245.8 87.7 291.05 86.95 334.25 85 c 1
 381.1 85 426.1 115.25 446.7 262.7 c 0
 463.05 382.1 440.95 437.35 391.8 434.1 c 0
 338.05 431.5 285.1 414.8 237.65 393.25 c 1
 192.3 106.5 l 1
16.5 -270 m 1
 183.5 782 l 1
 299.5 782 l 1
 249.85 472.4 l 1
 284.1 496.3 367.9 536.5 432.75 536.5 c 0
 551.1 536.5 585.9 401.3 563.7 256.15 c 0
 544.5 132.35 511.85 -11.75 345.75 -11.75 c 0
 300.75 -11.75 229 0.55 179.15 25.5 c 1
 132.5 -270 l 1
 16.5 -270 l 1
EndSplineSet
Substitution2: "'smcp' Lowercase to Small Capitals lookup 16-1" thorn.smcp
EndChar

StartChar: ugrave
Encoding: 249 249 107
Width: 546
VWidth: 0
Flags: HW
LayerCount: 2
Fore
SplineSet
210.674 733.55 m 1
 317.974 733.55 l 1
 405.773 597.05 l 1
 322.773 597.05 l 1
 210.674 733.55 l 1
69.7002 171.5 m 2
 126.3 531 l 1
 242.3 531 l 1
 185.35 170.1 l 2
 175.1 106 202 89.5 242.85 89.5 c 0
 307.8 89.5 344.2 106 403.75 139.5 c 1
 465.3 531 l 1
 581.3 531 l 1
 496.95 0 l 1
 406.45 0 l 1
 390.6 58.5 l 1
 332.35 22.0996 282.45 -9 201.45 -9 c 0
 84.25 -9 53.6504 70.5498 69.7002 171.5 c 2
EndSplineSet
AlternateSubs2: "'salt' Access All Alternates in Latin lookup 4-1" ugrave.salt
Substitution2: "'smcp' Lowercase to Small Capitals lookup 16-1" ugrave.smcp
EndChar

StartChar: uacute
Encoding: 250 250 108
Width: 546
VWidth: 0
Flags: HW
LayerCount: 2
Fore
SplineSet
322.773 597.05 m 1
 440.973 733.55 l 1
 553.473 733.55 l 1
 405.773 597.05 l 1
 322.773 597.05 l 1
69.7002 171.5 m 2
 126.3 531 l 1
 242.3 531 l 1
 185.35 170.1 l 2
 175.1 106 202 89.5 242.85 89.5 c 0
 307.8 89.5 344.2 106 403.75 139.5 c 1
 465.3 531 l 1
 581.3 531 l 1
 496.95 0 l 1
 406.45 0 l 1
 390.6 58.5 l 1
 332.35 22.0996 282.45 -9 201.45 -9 c 0
 84.25 -9 53.6504 70.5498 69.7002 171.5 c 2
EndSplineSet
AlternateSubs2: "'salt' Access All Alternates in Latin lookup 4-1" uacute.salt
Substitution2: "'smcp' Lowercase to Small Capitals lookup 16-1" uacute.smcp
EndChar

StartChar: ucircumflex
Encoding: 251 251 109
Width: 546
VWidth: 0
Flags: HW
LayerCount: 2
Fore
SplineSet
213.198 597.05 m 1
 345.598 730.55 l 1
 437.598 730.55 l 1
 515.698 597.05 l 1
 434.598 597.05 l 1
 386.698 668.85 l 1
 307.898 597.05 l 1
 213.198 597.05 l 1
69.7002 171.5 m 2
 126.3 531 l 1
 242.3 531 l 1
 185.35 170.1 l 2
 175.1 106 202 89.5 242.85 89.5 c 0
 307.8 89.5 344.2 106 403.75 139.5 c 1
 465.3 531 l 1
 581.3 531 l 1
 496.95 0 l 1
 406.45 0 l 1
 390.6 58.5 l 1
 332.35 22.0996 282.45 -9 201.45 -9 c 0
 84.25 -9 53.6504 70.5498 69.7002 171.5 c 2
EndSplineSet
AlternateSubs2: "'salt' Access All Alternates in Latin lookup 4-1" ucircumflex.salt
Substitution2: "'smcp' Lowercase to Small Capitals lookup 16-1" ucircumflex.smcp
EndChar

StartChar: udieresis
Encoding: 252 252 110
Width: 546
VWidth: 0
Flags: HW
LayerCount: 2
Fore
SplineSet
444.951 653.3 m 0
 449.651 684.1 479.102 708.55 509.901 708.55 c 0
 540.701 708.55 561.151 684.1 556.451 653.3 c 0
 551.752 622.5 522.951 597.05 492.151 597.05 c 0
 461.352 597.05 440.252 622.5 444.951 653.3 c 0
189.951 653.3 m 0
 194.651 684.1 224.102 708.55 254.901 708.55 c 0
 285.701 708.55 306.151 684.1 301.451 653.3 c 0
 296.752 622.5 267.951 597.05 237.151 597.05 c 0
 206.352 597.05 185.252 622.5 189.951 653.3 c 0
69.7002 171.5 m 2
 126.3 531 l 1
 242.3 531 l 1
 185.35 170.1 l 2
 175.1 106 202 89.5 242.85 89.5 c 0
 307.8 89.5 344.2 106 403.75 139.5 c 1
 465.3 531 l 1
 581.3 531 l 1
 496.95 0 l 1
 406.45 0 l 1
 390.6 58.5 l 1
 332.35 22.0996 282.45 -9 201.45 -9 c 0
 84.25 -9 53.6504 70.5498 69.7002 171.5 c 2
EndSplineSet
AlternateSubs2: "'salt' Access All Alternates in Latin lookup 4-1" udieresis.salt
Substitution2: "'smcp' Lowercase to Small Capitals lookup 16-1" udieresis.smcp
EndChar

StartChar: yacute
Encoding: 253 253 111
Width: 558
VWidth: 0
Flags: HW
LayerCount: 2
Fore
SplineSet
314 592.75 m 1
 432.2 729.25 l 1
 544.7 729.25 l 1
 397 592.75 l 1
 314 592.75 l 1
87.7002 531 m 1
 208.1 531 l 1
 252.5 143.65 l 2
 258.05 100.95 304.05 105 309.65 104.65 c 1
 465.2 432.35 l 2
 477.8 459.7 484.9 485.5 490.55 532.65 c 1
 595.3 532.65 l 1
 607 484.25 594.6 435.1 576.85 397.45 c 2
 387.7 0.650391 l 1
 291.95 -202.95 185.9 -264.15 94.1504 -281.25 c 1
 94.1504 -199.2 l 1
 180.4 -149.35 227.65 -72.0498 264.65 0 c 1
 207.45 0 148.9 29.5996 137.05 126.1 c 2
 87.7002 531 l 1
EndSplineSet
Substitution2: "'smcp' Lowercase to Small Capitals lookup 16-1" yacute.smcp
EndChar

StartChar: ydieresis
Encoding: 255 255 112
Width: 558
VWidth: 0
Flags: HW
LayerCount: 2
Fore
SplineSet
437.5 642 m 0
 442.2 672.8 471.65 697.25 502.45 697.25 c 0
 533.25 697.25 553.7 672.8 549 642 c 0
 544.3 611.2 515.5 585.75 484.7 585.75 c 0
 453.9 585.75 432.8 611.2 437.5 642 c 0
182.5 642 m 0
 187.2 672.8 216.65 697.25 247.45 697.25 c 0
 278.25 697.25 298.7 672.8 294 642 c 0
 289.3 611.2 260.5 585.75 229.7 585.75 c 0
 198.9 585.75 177.8 611.2 182.5 642 c 0
87.7002 531 m 1
 208.1 531 l 1
 252.5 143.65 l 2
 258.05 100.95 304.05 105 309.65 104.65 c 1
 465.2 432.35 l 2
 477.8 459.7 484.9 485.5 490.55 532.65 c 1
 595.3 532.65 l 1
 607 484.25 594.6 435.1 576.85 397.45 c 2
 387.7 0.650391 l 1
 291.95 -202.95 185.9 -264.15 94.1504 -281.25 c 1
 94.1504 -199.2 l 1
 180.4 -149.35 227.65 -72.0498 264.65 0 c 1
 207.45 0 148.9 29.5996 137.05 126.1 c 2
 87.7002 531 l 1
EndSplineSet
Substitution2: "'smcp' Lowercase to Small Capitals lookup 16-1" ydieresis.smcp
EndChar

StartChar: Thorn
Encoding: 222 222 113
Width: 549
VWidth: 0
Flags: HW
LayerCount: 2
Fore
SplineSet
207.8 257.75 m 1
 345.3 257.75 l 2
 402.5 257.75 432.95 269.55 449.75 375.25 c 1
 464.9 478.25 414 481.85 380.5 481.85 c 2
 243 481.85 l 1
 207.8 257.75 l 1
50.9 0 m 1
 88.9 243 127.9 486 165.9 729 c 1
 281.9 729 l 1
 259.9 588 l 1
 425.4 588 l 2
 492.7 588 591.5 550.1 567.4 370.45 c 0
 539.95 162.55 441.45 153.3 359 152.25 c 0
 316.9 151.55 248.85 150.9 194.55 171.9 c 1
 166.9 0 l 1
 50.9 0 l 1
EndSplineSet
Substitution2: "'c2sc' Capitals to Small Capitals in Latin lookup 17 subtable" thorn.smcp
EndChar

StartChar: uni00B5
Encoding: 181 181 114
Width: 590
VWidth: 0
Flags: HW
LayerCount: 2
Fore
SplineSet
33.35 -270 m 1
 103.1 171.5 l 1
 160.35 531 l 1
 276.35 531 l 1
 218.75 170.1 l 2
 209.8 112.5 235.4 89.5 276.25 89.5 c 0
 341.2 89.5 377.6 106 437.15 139.5 c 1
 499.35 531 l 1
 615.35 531 l 1
 531.35 0 l 1
 440.85 0 l 1
 424.65 58.5 l 1
 370.95 29.8 324.6 0.45 262.5 -3.75 c 0
 235.25 -5.5 212.85 -1.05 193.3 8.3 c 1
 149.35 -270 l 1
 33.35 -270 l 1
EndSplineSet
EndChar

StartChar: germandbls
Encoding: 223 223 115
Width: 571
VWidth: 0
Flags: HW
LayerCount: 2
Fore
SplineSet
50.9 0 m 1
 140.9 566 l 2
 158.9 682 233.4 779.45 407.75 779.45 c 0
 697.85 779.45 645.75 532.45 531.95 442.15 c 1
 492.8 413.25 443.25 400.15 435 350.6 c 0
 421.5 271.2 602.8 306.3 581.25 170.3 c 2
 575.65 133.8 l 2
 557.9 17.45 463.1 -8 388.9 -8 c 0
 320.9 -8 269.9 4.55 234.65 11 c 1
 247.5 95.85 l 1
 284.35 94.45 334.2 90.5 383.6 90.5 c 0
 418.95 90.5 452.15 110.2 459.45 150.2 c 2
 464.35 176.35 l 1
 475.95 250.3 300.05 214.65 320.25 349.05 c 0
 330.9 420.85 351.85 444.6 442.55 498.1 c 1
 478.8 521.55 497.85 552.95 502.8 588.9 c 0
 512.45 660.5 468.4 671.5 400.5 671.5 c 0
 321.6 671.5 268.95 643.95 251.65 534.5 c 2
 166.9 0 l 1
 50.9 0 l 1
EndSplineSet
Substitution2: "'smcp' Lowercase to Small Capitals lookup 16-1" germandbls.smcp
EndChar

StartChar: asciitilde
Encoding: 126 126 116
Width: 425
VWidth: 0
Flags: HW
LayerCount: 2
Fore
SplineSet
133.7 581.1 m 1
 173.8 615.15 210.1 651.2 264.15 651.2 c 0
 308.15 651.2 324.15 616.2 364.15 616.2 c 0
 403.5 615.5 436.2 637.75 464.15 656.2 c 1
 478.8 603 l 1
 449.2 575.2 405.8 531 353.5 531 c 0
 309.2 531 286.4 566 247.4 566 c 0
 208.4 566 186 548.5 149.05 531 c 1
 133.7 581.1 l 1
EndSplineSet
EndChar

StartChar: asciicircum
Encoding: 94 94 117
Width: 387
VWidth: 0
Flags: HW
LayerCount: 2
Fore
SplineSet
126.3 531 m 1
 258.7 665.15 l 1
 350.7 665.15 l 1
 428.8 531 l 1
 345.1 531 l 1
 300.45 600.85 l 1
 227.1 531 l 1
 126.3 531 l 1
EndSplineSet
EndChar

StartChar: grave
Encoding: 96 96 118
Width: 250
VWidth: 0
Flags: HW
LayerCount: 2
Fore
SplineSet
122.2 667.5 m 1
 229.5 667.5 l 1
 317.3 531 l 1
 234.3 531 l 1
 122.2 667.5 l 1
EndSplineSet
Substitution2: "'smcp' Lowercase to Small Capitals lookup 16-1" grave.smcp
EndChar

StartChar: dieresis
Encoding: 168 168 119
Width: 450
VWidth: 0
Flags: HW
LayerCount: 2
Fore
SplineSet
389.3 582 m 0
 394 612.8 423.45 637.25 454.25 637.25 c 0
 485.05 637.25 505.5 612.8 500.8 582 c 0
 496.1 551.2 467.3 525.75 436.5 525.75 c 0
 405.7 525.75 384.6 551.2 389.3 582 c 0
134.3 582 m 0
 139 612.8 168.45 637.25 199.25 637.25 c 0
 230.05 637.25 250.5 612.8 245.8 582 c 0
 241.1 551.2 212.3 525.75 181.5 525.75 c 0
 150.7 525.75 129.6 551.2 134.3 582 c 0
EndSplineSet
Substitution2: "'smcp' Lowercase to Small Capitals lookup 16-1" dieresis.smcp
EndChar

StartChar: acute
Encoding: 180 180 120
Width: 242
VWidth: 0
Flags: HW
LayerCount: 2
Fore
SplineSet
100.85 531 m 1
 219.05 667.5 l 1
 331.55 667.5 l 1
 183.85 531 l 1
 100.85 531 l 1
EndSplineSet
Substitution2: "'smcp' Lowercase to Small Capitals lookup 16-1" acute.smcp
EndChar

StartChar: cedilla
Encoding: 184 184 121
Width: 246
VWidth: 0
Flags: HW
LayerCount: 2
Fore
SplineSet
14.3 -176.5 m 1
 22.75 -124.8 l 1
 72.15 -109.8 l 1
 102.15 -97.8 108.65 -75 114.65 -37 c 1
 199.15 -37 l 1
 183.15 -139 153 -176.5 68.8 -176.5 c 2
 14.3 -176.5 l 1
EndSplineSet
EndChar

StartChar: exclam
Encoding: 33 33 122
Width: 269
VWidth: 0
Flags: HW
LayerCount: 2
Fore
SplineSet
112.2 198.6 m 1
 185.7 731 l 1
 307.95 731 l 1
 212.05 198.6 l 1
 112.2 198.6 l 1
75.2 23 m 2
 87.7 101 l 2
 89.7 116 99.7 126 115.7 126 c 2
 191.7 126 l 2
 206.7 126 212.7 115 210.7 101 c 2
 198.2 23 l 2
 196.2 8 186.2 0 172.2 0 c 2
 96.2 0 l 2
 82.2 0 73.2 9 75.2 23 c 2
EndSplineSet
Substitution2: "'smcp' Lowercase to Small Capitals lookup 16-1" exclam.smcp
EndChar

StartChar: degree
Encoding: 176 176 123
Width: 284
VWidth: 0
Flags: HW
LayerCount: 2
Fore
SplineSet
193.95 632 m 0
 193.25 605.5 214.75 584.65 241.25 584.65 c 0
 267.75 584.65 288.95 605.5 289.65 632 c 0
 290.35 658.5 270.2 680.35 243.7 680.35 c 0
 217.2 680.35 194.65 658.5 193.95 632 c 0
140.3 632 m 0
 142.05 689 189.1 733.6 245.1 733.6 c 0
 301.1 733.6 345.05 689 343.3 632 c 0
 341.55 575 295.5 531.75 239.5 531.75 c 0
 183.5 531.75 138.55 575 140.3 632 c 0
EndSplineSet
Substitution2: "'smcp' Lowercase to Small Capitals lookup 16-1" degree.smcp
EndChar

StartChar: period
Encoding: 46 46 124
Width: 265
VWidth: 0
Flags: HW
HStem: 0 126<88.1879 197.745>
VStem: 75.05 135.5
LayerCount: 2
Fore
SplineSet
75.05 23 m 2
 87.55 101 l 2
 89.55 116 99.55 126 115.55 126 c 2
 189.55 126 l 2
 207.55 126 213.55 117 210.55 101 c 2
 198.05 23 l 2
 195.05 5 184.05 0 170.05 0 c 2
 96.05 0 l 2
 82.05 0 73.05 9 75.05 23 c 2
EndSplineSet
EndChar

StartChar: periodcentered
Encoding: 183 183 125
Width: 265
VWidth: 0
Flags: HW
LayerCount: 2
Fore
SplineSet
125.65 344.9 m 2
 138.15 422.9 l 2
 140.15 437.9 150.15 447.9 166.15 447.9 c 2
 240.15 447.9 l 2
 258.15 447.9 264.15 438.9 261.15 422.9 c 2
 248.65 344.9 l 2
 245.65 326.9 234.65 321.9 220.65 321.9 c 2
 146.65 321.9 l 2
 132.65 321.9 123.65 330.9 125.65 344.9 c 2
EndSplineSet
Substitution2: "'smcp' Lowercase to Small Capitals lookup 16-1" periodcentered.smcp
EndChar

StartChar: comma
Encoding: 44 44 126
Width: 263
VWidth: 0
Flags: HW
LayerCount: 2
Fore
SplineSet
63.05 -88 m 1
 69.8 -45.5 l 1
 99.8 -46.5 103.1 -28.65 105.1 -18 c 2
 108.05 0 l 1
 97.05 0 l 2
 83.05 0 73.05 8 76.05 25 c 2
 87.55 100 l 2
 90.55 118 101.2 127 117.2 127 c 2
 189.2 127 l 2
 207.2 127 210.55 115 208.55 100 c 2
 191.05 -11 l 2
 174.3 -116.15 63.05 -88 63.05 -88 c 1
EndSplineSet
EndChar

StartChar: bullet
Encoding: 256 8226 127
Width: 308
VWidth: 0
Flags: HW
LayerCount: 2
Fore
SplineSet
123.95 328.75 m 2
 139.8 433.25 l 2
 142.8 454.25 156.8 468.25 178.8 468.25 c 2
 277.3 468.25 l 2
 302.3 468.25 309.3 455.25 306.3 433.25 c 2
 290.45 328.75 l 2
 286.45 304.75 269.45 296.75 249.45 296.75 c 2
 150.95 296.75 l 2
 130.95 296.75 120.95 308.75 123.95 328.75 c 2
EndSplineSet
Substitution2: "'smcp' Lowercase to Small Capitals lookup 16-1" bullet.smcp
EndChar

StartChar: quoteleft
Encoding: 257 8216 128
Width: 262
VWidth: 0
Flags: HW
LayerCount: 2
Fore
SplineSet
151.55 524.6 m 2
 170.05 644.95 l 2
 188.45 758.75 307.25 733.5 307.25 733.5 c 1
 299.15 685.55 l 1
 267.2 686.2 262.55 663.9 260.55 652.6 c 2
 257.25 629.15 l 1
 268.9 629.15 l 2
 283.55 629.15 294.2 621.15 291.2 602.85 c 2
 279.05 524.6 l 2
 276.05 505.3 264.4 495.65 247.1 495.65 c 2
 171.85 495.65 l 2
 152.55 495.65 148.9 508.95 151.55 524.6 c 2
EndSplineSet
Substitution2: "'smcp' Lowercase to Small Capitals lookup 16-1" quoteleft.smcp
EndChar

StartChar: quoteright
Encoding: 258 8217 129
Width: 262
VWidth: 0
Flags: HW
LayerCount: 2
Fore
SplineSet
152.55 497.7 m 1
 160.3 546.3 l 1
 192.25 545.65 196.25 567.95 198.25 579.25 c 2
 201.9 602.05 l 1
 190.25 602.05 l 2
 175.6 602.05 164.95 610.7 167.95 629 c 2
 180.75 707.25 l 2
 183.75 726.55 194.4 736.2 211.7 736.2 c 2
 286.95 736.2 l 2
 306.25 736.2 310.9 722.9 308.25 707.25 c 2
 288.75 586.9 l 2
 270.35 473.1 152.55 497.7 152.55 497.7 c 1
EndSplineSet
Substitution2: "'smcp' Lowercase to Small Capitals lookup 16-1" quoteright.smcp
EndChar

StartChar: quotesinglbase
Encoding: 259 8218 130
Width: 262
VWidth: 0
Flags: HW
LayerCount: 2
Fore
SplineSet
56.35 -105 m 1
 64.1 -57.05 l 1
 96.05 -57.7 100.05 -34.75 102.05 -23.45 c 2
 105.7 -0.65 l 1
 94.05 -0.65 l 2
 79.4 -0.65 68.75 8 71.75 26.3 c 2
 84.55 104.55 l 2
 87.55 123.85 98.2 133.5 115.5 133.5 c 2
 190.75 133.5 l 2
 210.05 133.5 214.7 120.2 212.05 104.55 c 2
 192.55 -15.8 l 2
 174.15 -129.6 56.35 -105 56.35 -105 c 1
EndSplineSet
Substitution2: "'smcp' Lowercase to Small Capitals lookup 16-1" quotesinglbase.smcp
EndChar

StartChar: quotedblleft
Encoding: 260 8220 131
Width: 420
VWidth: 0
Flags: HW
LayerCount: 2
Fore
SplineSet
316.45 523.9 m 2
 334.95 644.25 l 2
 353.35 758.05 471.15 732.8 471.15 732.8 c 1
 464.05 684.85 l 1
 432.1 685.5 427.45 663.2 425.45 651.9 c 2
 422.15 628.45 l 1
 433.8 628.45 l 2
 448.45 628.45 459.1 620.45 456.1 602.15 c 2
 443.95 523.9 l 2
 440.95 504.6 429.3 494.95 412 494.95 c 2
 336.75 494.95 l 2
 317.45 494.95 313.8 508.25 316.45 523.9 c 2
145.6 523.9 m 2
 164.1 644.25 l 2
 182.5 758.05 300.3 732.8 300.3 732.8 c 1
 293.2 684.85 l 1
 261.25 685.5 256.6 663.2 254.6 651.9 c 2
 251.3 628.45 l 1
 262.95 628.45 l 2
 277.6 628.45 288.25 620.45 285.25 602.15 c 2
 273.1 523.9 l 2
 270.1 504.6 258.45 494.95 241.15 494.95 c 2
 165.9 494.95 l 2
 146.6 494.95 142.95 508.25 145.6 523.9 c 2
EndSplineSet
Substitution2: "'smcp' Lowercase to Small Capitals lookup 16-1" quotedblleft.smcp
EndChar

StartChar: quotedblright
Encoding: 261 8221 132
Width: 420
VWidth: 0
Flags: HW
LayerCount: 2
Fore
SplineSet
316.8 497 m 1
 324.55 545.6 l 1
 356.5 544.95 360.5 567.25 362.5 578.55 c 2
 366.15 601.35 l 1
 354.5 601.35 l 2
 339.85 601.35 329.2 610 332.2 628.3 c 2
 345 706.55 l 2
 348 725.85 358.65 735.5 375.95 735.5 c 2
 451.2 735.5 l 2
 470.5 735.5 475.15 722.2 472.5 706.55 c 2
 453 586.2 l 2
 434.6 472.4 316.8 497 316.8 497 c 1
145.95 497 m 1
 153.7 545.6 l 1
 185.65 544.95 189.65 567.25 191.65 578.55 c 2
 195.3 601.35 l 1
 183.65 601.35 l 2
 169 601.35 158.35 610 161.35 628.3 c 2
 174.15 706.55 l 2
 177.15 725.85 187.8 735.5 205.1 735.5 c 2
 280.35 735.5 l 2
 299.65 735.5 304.3 722.2 301.65 706.55 c 2
 282.15 586.2 l 2
 263.75 472.4 145.95 497 145.95 497 c 1
EndSplineSet
Substitution2: "'smcp' Lowercase to Small Capitals lookup 16-1" quotedblright.smcp
EndChar

StartChar: quotedblbase
Encoding: 262 8222 133
Width: 419
VWidth: 0
Flags: HW
LayerCount: 2
Fore
SplineSet
220.6 -104.35 m 1
 228.35 -56.4 l 1
 260.3 -57.05 264.3 -34.1 266.3 -22.8 c 2
 269.95 0 l 1
 258.3 0 l 2
 243.65 0 233 8.65 236 26.95 c 2
 248.8 105.2 l 2
 251.8 124.5 262.45 134.15 279.75 134.15 c 2
 355 134.15 l 2
 374.3 134.15 378.95 120.85 376.3 105.2 c 2
 356.8 -15.15 l 2
 338.4 -128.95 220.6 -104.35 220.6 -104.35 c 1
49.75 -104.35 m 1
 57.5 -56.4 l 1
 89.45 -57.05 93.45 -34.1 95.45 -22.8 c 2
 99.1 0 l 1
 87.45 0 l 2
 72.8 0 62.15 8.65 65.15 26.95 c 2
 77.95 105.2 l 2
 80.95 124.5 91.6 134.15 108.9 134.15 c 2
 184.15 134.15 l 2
 203.45 134.15 208.1 120.85 205.45 105.2 c 2
 185.95 -15.15 l 2
 167.55 -128.95 49.75 -104.35 49.75 -104.35 c 1
EndSplineSet
Substitution2: "'smcp' Lowercase to Small Capitals lookup 16-1" quotedblbase.smcp
EndChar

StartChar: colon
Encoding: 58 58 134
Width: 266
VWidth: 0
Flags: HW
LayerCount: 2
Fore
SplineSet
139.55 428.65 m 2
 152.05 506.65 l 2
 154.05 521.65 164.05 531.65 180.05 531.65 c 2
 254.05 531.65 l 2
 272.05 531.65 277.7 522.65 274.7 506.65 c 2
 262.55 428.65 l 2
 259.55 410.65 247.9 405.65 233.9 405.65 c 2
 159.9 405.65 l 2
 145.9 405.65 137.55 414.65 139.55 428.65 c 2
75.05 23 m 2
 87.55 101 l 2
 89.55 116 99.55 126 115.55 126 c 2
 189.55 126 l 2
 207.55 126 213.55 117 210.55 101 c 2
 198.05 23 l 2
 195.05 5 184.05 0 170.05 0 c 2
 96.05 0 l 2
 82.05 0 73.05 9 75.05 23 c 2
EndSplineSet
EndChar

StartChar: semicolon
Encoding: 59 59 135
Width: 266
VWidth: 0
Flags: HW
LayerCount: 2
Fore
SplineSet
141.2 429.3 m 2
 153.35 507.3 l 2
 155.35 522.3 165.35 532.3 181.35 532.3 c 2
 255.35 532.3 l 2
 273.35 532.3 279.35 523.3 276.35 507.3 c 2
 264.2 429.3 l 2
 261.2 411.3 249.85 406.3 235.85 406.3 c 2
 161.85 406.3 l 2
 147.85 406.3 139.2 415.3 141.2 429.3 c 2
63.05 -88 m 1
 69.8 -45.5 l 1
 99.8 -46.5 103.1 -28.65 105.1 -18 c 2
 108.05 0 l 1
 97.05 0 l 2
 83.05 0 73.7 11.25 76.05 25 c 2
 87.55 100 l 2
 89.9 115.4 101.85 127 117.2 127 c 2
 189.2 127 l 2
 205.25 127 210.55 115 208.55 100 c 2
 191.05 -11 l 2
 174.3 -116.15 63.05 -88 63.05 -88 c 1
EndSplineSet
EndChar

StartChar: quotedbl
Encoding: 34 34 136
Width: 421
VWidth: 0
Flags: HW
LayerCount: 2
Fore
SplineSet
330.75 531 m 1
 341.1 665 l 1
 352.1 732 l 1
 465.25 732 l 1
 454.25 665 l 1
 423.25 531 l 1
 330.75 531 l 1
167.4 531 m 1
 177.05 665 l 1
 188.05 732 l 1
 301.2 732 l 1
 290.2 665 l 1
 259.2 531 l 1
 167.4 531 l 1
EndSplineSet
Substitution2: "'smcp' Lowercase to Small Capitals lookup 16-1" quotedbl.smcp
EndChar

StartChar: exclamdown
Encoding: 161 161 137
Width: 274
VWidth: 0
Flags: HW
LayerCount: 2
Fore
SplineSet
134.05 363.3 m 2
 145.55 438.65 l 2
 147.55 452.65 159.55 460.65 173.55 461.65 c 1
 245.3 461.65 l 1
 257.3 460.65 267.3 449.65 265.3 435.65 c 2
 253.8 363.3 l 2
 251.15 350.95 244.15 340.2 229.1 337.6 c 1
 152.1 337.6 l 2
 139.1 338.25 132.35 347.55 134.05 363.3 c 2
30.65 -269.35 m 1
 129.15 263.05 l 1
 229.35 263.05 l 1
 158.8 -269.35 l 1
 30.65 -269.35 l 1
EndSplineSet
Substitution2: "'case' Case-Sensitive Forms lookup 1-1" exclamdown.alt
Substitution2: "'smcp' Lowercase to Small Capitals lookup 16-1" exclamdown.smcp
EndChar

StartChar: zero
Encoding: 48 48 138
Width: 633
VWidth: 0
Flags: HW
HStem: 0 109<211.367 461.862> 623 109<287.719 539.521>
DStem2: 85.55 172.5 204 186.85 0.157463 0.987525<-27.0003 459.81> 488.65 186.5 602.55 172.5 0.156945 0.987607<-62.3359 424.026>
LayerCount: 2
Fore
SplineSet
204 186.85 m 2
 191.75 108.1 236.15 109 275.05 109 c 2
 396.35 109 l 2
 449.5 109 479.65 132.5 488.65 186.5 c 2
 545.95 545.5 l 2
 554.25 598.65 538.5 623 480.95 623 c 2
 354.4 623 l 2
 284.85 623 266.2 579.95 260.95 545.5 c 2
 204 186.85 l 2
85.55 172.5 m 2
 146.7 556 l 2
 165.75 676.25 232.25 732 346.85 732 c 2
 510.85 732 l 2
 640.25 732 678.1 645.85 664.05 559.5 c 2
 602.55 172.5 l 2
 583.55 53.5 520.7 0 408.5 0 c 2
 244.5 0 l 2
 139.85 0 66.55 52.5 85.55 172.5 c 2
EndSplineSet
Substitution2: "'dnom' Denominators lookup 0 subtable" zero.denominator
Substitution2: "'sups' Superscript lookup 2 subtable" zerosuperior
Substitution2: "'onum' Oldstyle Figures in Latin lookup 5-1" zero.oldstyle
Substitution2: "'tnum' Tabular Numbers in Latin lookup 7-1" zero.tnum
Substitution2: "'numr' Numerators lookup 9 subtable" zero.numerator
Substitution2: "'zero' Slashed Zero lookup 20-1" uni0338
Substitution2: "'sinf' Scientific Inferiors lookup 3-1" zeroinferior
Substitution2: "'frac' Diagonal Fractions lookup 13-1" zero.numerator
Substitution2: "'smcp' Lowercase to Small Capitals lookup 16-1" zero.smcp
EndChar

StartChar: one
Encoding: 49 49 139
Width: 367
VWidth: 0
Flags: HW
HStem: 0 21G<183.85 302.984> 0 21G<183.85 302.984> 570.9 77.5<135.7 211.994> 712 20G<292.15 414.55>
VStem: 123.85 290.7
DStem2: 183.85 0 299.85 0 0.154805 0.987945<17.9574 613.524>
LayerCount: 2
Fore
SplineSet
123.85 570.9 m 1
 135.7 648.4 l 1
 200.7 648.4 283.75 712.75 300.55 732 c 1
 414.55 732 l 1
 299.85 0 l 1
 183.85 0 l 1
 280.6 605.85 l 1
 251.9 585.3 186.25 570.9 123.85 570.9 c 1
EndSplineSet
Substitution2: "'dnom' Denominators lookup 0 subtable" one.denominator
Substitution2: "'sups' Superscript lookup 2 subtable" onesuperior
Substitution2: "'onum' Oldstyle Figures in Latin lookup 5-1" one.oldstyle
Substitution2: "'tnum' Tabular Numbers in Latin lookup 7-1" one.tnum
Substitution2: "'numr' Numerators lookup 9 subtable" one.numerator
Substitution2: "'sinf' Scientific Inferiors lookup 3-1" oneinferior
Substitution2: "'frac' Diagonal Fractions lookup 13-1" one.numerator
Substitution2: "'smcp' Lowercase to Small Capitals lookup 16-1" one.smcp
EndChar

StartChar: two
Encoding: 50 50 140
Width: 589
VWidth: 0
Flags: HW
HStem: 0 109<269.65 546.55> 632 110<179.263 490.199> 632 86.5<147.7 366.906>
LayerCount: 2
Fore
SplineSet
41.05 0 m 1
 57.65 103 l 1
 179.15 177.15 494.95 387.6 516.05 521.75 c 0
 527.35 595.1 497.6 632 408.8 632 c 2
 133.8 632 l 1
 147.7 718.5 l 1
 245.05 733.25 330 742 452.55 742 c 0
 594.9 742 645.9 631.35 631.7 513.45 c 1
 612.95 343.6 351.7 165.65 269.65 109 c 1
 564.15 109 l 1
 546.55 0 l 1
 41.05 0 l 1
EndSplineSet
Substitution2: "'dnom' Denominators lookup 0 subtable" two.denominator
Substitution2: "'sups' Superscript lookup 2 subtable" twosuperior
Substitution2: "'onum' Oldstyle Figures in Latin lookup 5-1" two.oldstyle
Substitution2: "'tnum' Tabular Numbers in Latin lookup 7-1" two.tnum
Substitution2: "'numr' Numerators lookup 9 subtable" two.numerator
Substitution2: "'sinf' Scientific Inferiors lookup 3-1" twoinferior
Substitution2: "'frac' Diagonal Fractions lookup 13-1" two.numerator
Substitution2: "'smcp' Lowercase to Small Capitals lookup 16-1" two.smcp
EndChar

StartChar: three
Encoding: 51 51 141
Width: 587
VWidth: 0
Flags: HW
HStem: -7 110<62.5401 402.241> 21 82<48.05 132.591> 308.85 110<211.67 433.477> 316.55 93<158.25 320.83> 625 109<191.089 481.445>
DStem2: 435.1 180.25 550.3 161 0.157648 0.987495<-55.5839 107.74 260.741 426.44>
LayerCount: 2
Fore
SplineSet
34.45 21 m 1
 48.05 103 l 1
 318.05 103 l 2
 376.55 103 425.5 120.25 435.1 180.25 c 2
 441.95 222.1 l 2
 454.8 303.2 413.8 306.15 356.65 308.85 c 2
 142.65 316.55 l 1
 158.25 409.55 l 1
 374.25 418.85 l 2
 443.25 421.85 479 444.6 487.95 500.35 c 2
 495.45 548 l 2
 506.4 615.25 458.85 625 406.85 625 c 2
 123.85 625 l 1
 136.45 706 l 1
 229.45 737 345.95 736 462.95 734 c 0
 563.85 732 629.6 658.4 613.2 555 c 2
 603.6 496.5 l 2
 590.95 418.3 555.95 374.3 508.95 364 c 1
 555.4 344.4 570.55 285.5 558.55 209.5 c 2
 550.3 161 l 1
 532.6 47.8 460.95 -7 338.95 -7 c 0
 224.95 -7 117.45 -10 34.45 21 c 1
EndSplineSet
Substitution2: "'dnom' Denominators lookup 0 subtable" three.denominator
Substitution2: "'sups' Superscript lookup 2 subtable" threesuperior
Substitution2: "'onum' Oldstyle Figures in Latin lookup 5-1" three.oldstyle
Substitution2: "'tnum' Tabular Numbers in Latin lookup 7-1" three.tnum
Substitution2: "'numr' Numerators lookup 9 subtable" three.numerator
Substitution2: "'sinf' Scientific Inferiors lookup 3-1" threeinferior
Substitution2: "'frac' Diagonal Fractions lookup 13-1" three.numerator
Substitution2: "'smcp' Lowercase to Small Capitals lookup 16-1" three.smcp
EndChar

StartChar: four
Encoding: 52 52 142
Width: 614
VWidth: 0
Flags: HW
HStem: 169.5 113<230.35 426.1> 712 20G<400.078 547.6>
DStem2: 51.85 224 230.35 282.5 0.580859 0.814004<151.303 624.076> 399.9 2 517.85 2 0.155967 0.987762<18.3963 169.537 302.295 467.675>
LayerCount: 2
Fore
SplineSet
51.85 224 m 1
 414.35 732 l 1
 547.6 732 l 1
 230.35 282.5 l 1
 443.7 282.5 l 1
 472.85 463.95 l 1
 520.3 540 l 1
 602.8 540 l 1
 561.65 282.5 l 1
 641.15 282.5 l 1
 627.25 192 l 1
 544.05 169.5 l 1
 517.85 2 l 1
 399.9 2 l 1
 426.1 169.5 l 1
 77.05 169.5 l 1
 51.85 224 l 1
EndSplineSet
Substitution2: "'dnom' Denominators lookup 0 subtable" four.denominator
Substitution2: "'sups' Superscript lookup 2 subtable" foursuperior
Substitution2: "'onum' Oldstyle Figures in Latin lookup 5-1" four.oldstyle
Substitution2: "'tnum' Tabular Numbers in Latin lookup 7-1" four.tnum
Substitution2: "'numr' Numerators lookup 9 subtable" four.numerator
Substitution2: "'sinf' Scientific Inferiors lookup 3-1" fourinferior
Substitution2: "'frac' Diagonal Fractions lookup 13-1" four.numerator
Substitution2: "'smcp' Lowercase to Small Capitals lookup 16-1" four.smcp
EndChar

StartChar: five
Encoding: 53 53 143
Width: 599
VWidth: 0
Flags: HW
HStem: -4.65 114<90.9052 431.317> 19.35 90<82.05 237.46> 351 106.15<265.571 465.128> 623 109<298.15 622.85>
DStem2: 110.7 286.5 258 430 0.203671 0.979039<170.493 367.625> 462.45 188.35 576 161.85 0.144778 0.989464<-62.7346 144.186>
LayerCount: 2
Fore
SplineSet
67.45 19.35 m 1
 82.05 109.35 l 1
 372.05 109.35 l 2
 438.6 109.35 457.5 156.65 462.45 188.35 c 2
 475.25 268.1 l 2
 480.25 298.5 483 351 413.8 351 c 2
 300.25 351 l 2
 263.7 351 228.25 332.45 220.65 286.5 c 1
 110.7 286.5 l 1
 203.45 732 l 1
 640.45 732 l 1
 622.85 623 l 1
 298.15 623 l 1
 258 430 l 1
 279.85 447.95 311.4 454.85 340 457.15 c 0
 382.9 461.1 432.55 456.85 455.95 456.5 c 0
 555.35 453 606.95 375.35 592.3 273.25 c 2
 576 161.85 l 1
 554 24.85 465.05 -4 370.95 -4.65 c 0
 245.65 -5.3 197.45 -3.65 67.45 19.35 c 1
EndSplineSet
Substitution2: "'dnom' Denominators lookup 0 subtable" five.denominator
Substitution2: "'sups' Superscript lookup 2 subtable" fivesuperior
Substitution2: "'onum' Oldstyle Figures in Latin lookup 5-1" five.oldstyle
Substitution2: "'tnum' Tabular Numbers in Latin lookup 7-1" five.tnum
Substitution2: "'numr' Numerators lookup 9 subtable" five.numerator
Substitution2: "'sinf' Scientific Inferiors lookup 3-1" fiveinferior
Substitution2: "'frac' Diagonal Fractions lookup 13-1" five.numerator
Substitution2: "'smcp' Lowercase to Small Capitals lookup 16-1" five.smcp
EndChar

StartChar: six
Encoding: 54 54 144
Width: 613
VWidth: 0
Flags: HW
HStem: -0.35 107.05<238.906 454.3> 333 105.5<240.314 489.105> 629 87.55<402.111 638.5>
DStem2: 477.65 176.75 588.15 148 0.149745 0.988725<-57.9024 146.181>
LayerCount: 2
Fore
SplineSet
223.1 333 m 1
 205.45 221.8 200.9 106.7 288.65 106.7 c 2
 393.2 106.7 l 2
 426.2 106.7 468.4 117.65 477.65 176.75 c 2
 491.4 265 l 2
 500.35 319.7 485.4 333 431.5 333 c 2
 223.1 333 l 1
114.9 391 m 0
 156.9 656 257.45 731.35 343.25 736.25 c 0
 444.95 741.85 565.65 732 652.4 716.55 c 1
 638.5 629 l 1
 374 629 l 2
 286.25 629 250.95 497.65 237 417.5 c 1
 307.55 430.65 387 437.85 464.5 438.5 c 0
 603.35 439.8 618.2 343.05 606.4 268.5 c 2
 588.15 148 l 1
 569.1 29.7 493.3 -0.35 391.6 -0.35 c 2
 247.75 -0.35 l 2
 143.3 -0.35 64.9 76 114.9 391 c 0
EndSplineSet
Substitution2: "'dnom' Denominators lookup 0 subtable" six.denominator
Substitution2: "'sups' Superscript lookup 2 subtable" sixsuperior
Substitution2: "'onum' Oldstyle Figures in Latin lookup 5-1" six.oldstyle
Substitution2: "'tnum' Tabular Numbers in Latin lookup 7-1" six.tnum
Substitution2: "'numr' Numerators lookup 9 subtable" six.numerator
Substitution2: "'sinf' Scientific Inferiors lookup 3-1" sixinferior
Substitution2: "'frac' Diagonal Fractions lookup 13-1" six.numerator
Substitution2: "'smcp' Lowercase to Small Capitals lookup 16-1" six.smcp
EndChar

StartChar: seven
Encoding: 55 55 145
Width: 551
VWidth: 0
Flags: HW
HStem: 0 21G<144.45 284.4> 0 21G<144.45 284.4> 623 109<141.45 479.85>
DStem2: 144.45 0 273.75 0 0.470027 0.882652<60.7745 707.539>
LayerCount: 2
Fore
SplineSet
123.85 623 m 1
 141.45 732 l 1
 608.15 732 l 1
 632.4 673.5 l 1
 273.75 0 l 1
 144.45 0 l 1
 479.85 623 l 1
 123.85 623 l 1
EndSplineSet
Substitution2: "'dnom' Denominators lookup 0 subtable" seven.denominator
Substitution2: "'sups' Superscript lookup 2 subtable" sevensuperior
Substitution2: "'onum' Oldstyle Figures in Latin lookup 5-1" seven.oldstyle
Substitution2: "'tnum' Tabular Numbers in Latin lookup 7-1" seven.tnum
Substitution2: "'numr' Numerators lookup 9 subtable" seven.numerator
Substitution2: "'sinf' Scientific Inferiors lookup 3-1" seveninferior
Substitution2: "'frac' Diagonal Fractions lookup 13-1" seven.numerator
Substitution2: "'smcp' Lowercase to Small Capitals lookup 16-1" seven.smcp
EndChar

StartChar: percent
Encoding: 37 37 146
Width: 963
VWidth: 0
Flags: HW
LayerCount: 2
Fore
SplineSet
672.85 140.05 m 2
 666.6 100.5 675.4 87.05 717.5 87.05 c 2
 800.65 87.05 l 2
 848.3 87.05 858.6 101.15 864.85 140.05 c 2
 881.3 245.05 l 2
 888.25 288.45 881.15 298.05 836 298.05 c 2
 752.85 298.05 l 2
 707.45 298.05 695.6 286.2 689.3 245.05 c 2
 672.85 140.05 l 2
585.45 133.05 m 2
 605.05 259.05 l 2
 618.05 342.75 650.05 384.05 757.55 384.05 c 2
 858.9 384.05 l 2
 949.1 384.05 982.35 339.2 969.05 250.3 c 2
 949.8 124.3 l 2
 935.5 34.1 899.2 1.05 796.25 1.05 c 2
 694.9 1.05 l 2
 611.85 1.05 572.45 48.7 585.45 133.05 c 2
213.1 0 m 1
 772.7 732 l 1
 862.25 732 l 1
 305.1 0 l 1
 213.1 0 l 1
197.5 488 m 2
 191.25 448.45 200.35 435 242.45 435 c 2
 325.95 435 l 2
 373.6 435 383.25 449.1 389.5 488 c 2
 405.95 593 l 2
 412.9 636.4 406.45 646 361.3 646 c 2
 277.8 646 l 2
 232.4 646 220.25 634.15 213.95 593 c 2
 197.5 488 l 2
109.75 482.75 m 2
 129.7 608.75 l 2
 142.7 692.45 175.05 732 282.55 732 c 2
 383.55 732 l 2
 473.75 732 507.35 688.2 493.7 599.3 c 2
 473.75 473.3 l 2
 459.45 383.1 424.5 349 321.55 349 c 2
 220.55 349 l 2
 137.5 349 96.75 398.4 109.75 482.75 c 2
EndSplineSet
Substitution2: "'smcp' Lowercase to Small Capitals lookup 16-1" percent.smcp
EndChar

StartChar: nine
Encoding: 57 57 147
Width: 612
VWidth: 0
Flags: HW
HStem: 19.35 87.55<91.15 328.692> 297.4 105.5<240.553 489.686> 629.2 107.05<274.697 490.448>
DStem2: 123.95 470.9 238.6 470.9 0.15281 0.988256<-36.4126 165.666>
LayerCount: 2
Fore
SplineSet
238.6 470.9 m 2
 229.65 416.2 244.25 402.9 298.15 402.9 c 2
 506.55 402.9 l 1
 524.2 514.1 528.4 629.2 440.65 629.2 c 2
 336.45 629.2 l 2
 303.45 629.2 261.25 618.25 252 559.15 c 2
 238.6 470.9 l 2
77.25 19.35 m 1
 91.15 106.9 l 1
 355.65 106.9 l 2
 443.4 106.9 479.05 238.25 493 318.4 c 1
 422.45 305.25 342.65 298.05 265.15 297.4 c 0
 126.3 296.1 112.15 396.35 123.95 470.9 c 2
 141.5 584.4 l 2
 160.2 702.7 235.65 736.25 337.35 736.25 c 2
 481.2 736.25 l 2
 587.75 736.25 664.4 652.9 614.4 337.9 c 0
 572.4 72.9 472.55 4.55 386.75 -0.35 c 0
 285.05 -5.95 173.75 0 77.25 19.35 c 1
EndSplineSet
Substitution2: "'dnom' Denominators lookup 0 subtable" nine.denominator
Substitution2: "'sups' Superscript lookup 2 subtable" ninesuperior
Substitution2: "'onum' Oldstyle Figures in Latin lookup 5-1" nine.oldstyle
Substitution2: "'tnum' Tabular Numbers in Latin lookup 7-1" nine.tnum
Substitution2: "'numr' Numerators lookup 9 subtable" nine.numerator
Substitution2: "'sinf' Scientific Inferiors lookup 3-1" nineinferior
Substitution2: "'frac' Diagonal Fractions lookup 13-1" nine.numerator
Substitution2: "'smcp' Lowercase to Small Capitals lookup 16-1" nine.smcp
EndChar

StartChar: eight
Encoding: 56 56 148
Width: 626
VWidth: 0
Flags: HW
HStem: 0 105.5<214.656 452.894> 323 101<265.93 479.817> 631.5 105.5<290.813 531.154>
DStem2: 88.85 169.75 205.95 171.65 0.15655 0.98767<-29.8831 159.435 296.501 474.35> 475.45 171.65 590.7 157.85 0.156643 0.987655<-52.0762 133.546 273.734 449.375>
LayerCount: 2
Fore
SplineSet
256.8 494 m 2
 247.55 436.8 287.5 424 321.5 424 c 2
 443.05 424 l 2
 505.9 424 520.65 460.1 526.3 494 c 2
 534.85 548.7 l 2
 546.1 617.5 524.4 631.5 474.4 631.5 c 2
 361.3 631.5 l 2
 296.85 631.5 274.95 610.3 265.35 548.7 c 2
 256.8 494 l 2
205.95 171.65 m 2
 198 121.7 218.4 105.5 278.1 105.5 c 2
 390.55 105.5 l 2
 431.3 105.5 468.2 122.85 475.45 171.65 c 2
 488.6 253.9 l 2
 495.85 300.05 470.45 323 428.2 323 c 2
 305.95 323 l 2
 261.35 323 227 303.65 219.1 253.9 c 2
 205.95 171.65 l 2
88.85 169.75 m 2
 101.4 252 l 2
 112 317.6 155.6 352.35 206.75 358.75 c 1
 140.05 386 133.1 453.45 141.8 506 c 2
 152.45 571 l 1
 173.8 707.75 252.95 737 362.45 737 c 2
 511.95 737 l 2
 617.6 737 672 672.95 653.95 556.65 c 1
 644.35 499 l 1
 641.65 475.25 618.95 401.6 547.75 388.7 c 1
 606.3 372.45 612.3 291.15 604.65 248.15 c 2
 590.7 157.85 l 2
 566.65 8.5 477.95 0 393.95 0 c 2
 245.45 0 l 2
 69.75 0 81.45 123.3 88.85 169.75 c 2
EndSplineSet
Substitution2: "'dnom' Denominators lookup 0 subtable" eight.denominator
Substitution2: "'sups' Superscript lookup 2 subtable" eightsuperior
Substitution2: "'onum' Oldstyle Figures in Latin lookup 5-1" eight.oldstyle
Substitution2: "'tnum' Tabular Numbers in Latin lookup 7-1" eight.tnum
Substitution2: "'numr' Numerators lookup 9 subtable" eight.numerator
Substitution2: "'sinf' Scientific Inferiors lookup 3-1" eightinferior
Substitution2: "'frac' Diagonal Fractions lookup 13-1" eight.numerator
Substitution2: "'smcp' Lowercase to Small Capitals lookup 16-1" eight.smcp
EndChar

StartChar: quotesingle
Encoding: 39 39 149
Width: 210
VWidth: 0
Flags: HW
LayerCount: 2
Fore
SplineSet
141.6 531 m 1
 151.6 665 l 1
 162.6 732 l 1
 279.6 732 l 1
 268.6 665 l 1
 237.6 531 l 1
 141.6 531 l 1
EndSplineSet
Substitution2: "'smcp' Lowercase to Small Capitals lookup 16-1" quotesingle.smcp
EndChar

StartChar: onesuperior
Encoding: 185 185 150
Width: 278
VWidth: 259
Flags: HW
LayerCount: 2
Fore
SplineSet
111.5 711.7 m 1
 121.3 774 l 1
 173.3 774 239 823.85 250.2 836.8 c 1
 339.6 836.8 l 1
 263.25 355.65 l 1
 171.85 355.65 l 1
 233.7 738.35 l 1
 212.85 722.2 161.55 711.7 111.5 711.7 c 1
EndSplineSet
EndChar

StartChar: twosuperior
Encoding: 178 178 151
Width: 393
VWidth: 259
Flags: HW
LayerCount: 2
Fore
SplineSet
70.1 355.65 m 1
 82.95 437.45 l 1
 153 483.75 345.5 602.8 359.65 691.65 c 0
 366.95 738.7 350.45 755.7 293.85 755.7 c 2
 130.25 755.7 l 2
 128.95 755.7 140.45 825.05 141.1 824.4 c 0
 205.3 834.15 252.35 841.85 334.15 841.85 c 0
 431.45 841.85 464.45 753.1 454.35 694.65 c 1
 435.15 566.35 284.55 473.9 247.5 441.8 c 1
 413.25 441.8 l 1
 399.4 355.65 l 1
 70.1 355.65 l 1
EndSplineSet
EndChar

StartChar: threesuperior
Encoding: 179 179 152
Width: 406
VWidth: 258
Flags: HW
LayerCount: 2
Fore
SplineSet
71.45 370.35 m 1
 82.95 436.8 l 1
 103.75 436.8 249.1 437.45 249.1 437.45 c 2
 292 437.45 320.3 448.85 325.9 485.5 c 2
 328.85 502.2 l 2
 335.1 543.05 309.3 554.45 271.5 555.8 c 2
 142.05 560.45 l 1
 153.55 633.3 l 1
 285.35 638.6 l 2
 330.7 640.6 354.85 654.55 359.8 688.25 c 2
 361.75 703.95 l 1
 368.05 739.65 349.8 751.35 303.1 751.35 c 2
 127.95 751.35 l 1
 138.45 817.45 l 1
 200.2 838.5 269.95 838.2 348.05 836.85 c 0
 425.05 835.85 464.6 779.85 454.2 713.2 c 2
 448.9 681.35 l 2
 440.9 633.65 416.55 599.45 382.6 590.85 c 1
 415 575.6 425.9 534.95 419.2 493.05 c 2
 415.2 467.85 l 2
 403.5 393.35 361.75 350.65 266.35 351.3 c 0
 190.25 351.3 126.5 349.3 71.45 370.35 c 1
EndSplineSet
EndChar

StartChar: ordmasculine
Encoding: 186 186 153
Width: 386
VWidth: 0
Flags: HW
LayerCount: 2
Fore
SplineSet
201.8 549.65 m 0
 186.6 453.9 213.3 451.1 265.5 450.45 c 0
 315.6 449.8 345.4 450.9 361.25 549.65 c 0
 377.1 652.35 360.4 657.5 298.25 658.15 c 0
 238.65 658.8 217.65 651.7 201.8 549.65 c 0
114.25 555.25 m 0
 136.6 694.7 180.65 735.6 306.8 736.25 c 0
 421.05 736.9 471.45 687.25 448.8 543.35 c 0
 428.45 415.6 387.85 372.35 254.35 372.35 c 0
 137.8 372.35 94.25 429.25 114.25 555.25 c 0
79.15 266.45 m 1
 89.2 331.45 l 1
 406 331.45 l 1
 395.95 266.45 l 1
 79.15 266.45 l 1
EndSplineSet
Ligature2: "'ordn' Ordinals lookup 21-1" o
Substitution2: "'smcp' Lowercase to Small Capitals lookup 16-1" ordmasculine.smcp
EndChar

StartChar: ordfeminine
Encoding: 170 170 154
Width: 366
VWidth: 0
Flags: HW
LayerCount: 2
Fore
SplineSet
186.35 553.35 m 0
 174.8 479.45 196 454.35 230.4 454.35 c 0
 270.1 454.35 301.25 472.5 331.2 499 c 1
 352.45 649.55 l 1
 324.3 658.15 282.4 662.7 260.95 657.1 c 0
 232.85 649.85 198.9 637.25 186.35 553.35 c 0
102.9 568.05 m 0
 128.4 713.8 211.1 728.8 266.8 732.7 c 0
 313.35 735.95 408.05 721.45 441.4 689.1 c 1
 395.7 377.15 l 1
 337.9 377.15 l 1
 324.4 428.25 l 1
 303.85 399.4 249.9 372.8 205.15 372.8 c 0
 145.05 372.8 77.4 424.6 102.9 568.05 c 0
66.75 264.5 m 1
 76.8 329.5 l 1
 391.65 329.5 l 1
 381.6 264.5 l 1
 66.75 264.5 l 1
EndSplineSet
Ligature2: "'ordn' Ordinals lookup 21-1" a
Substitution2: "'smcp' Lowercase to Small Capitals lookup 16-1" ordfeminine.smcp
EndChar

StartChar: slash
Encoding: 47 47 155
Width: 436
VWidth: 0
Flags: HW
LayerCount: 2
Fore
SplineSet
5.2 -72 m 1
 419.2 770 l 1
 540.2 770 l 1
 126.2 -72 l 1
 5.2 -72 l 1
EndSplineSet
Substitution2: "'numr' Numerators lookup 9 subtable" fraction
Substitution2: "'frac' Diagonal Fractions lookup 12-1" fraction
EndChar

StartChar: backslash
Encoding: 92 92 156
Width: 428
VWidth: 0
Flags: HW
LayerCount: 2
Fore
SplineSet
137.85 770 m 1
 252.6 770 l 1
 400.6 -72 l 1
 285.85 -72 l 1
 137.85 770 l 1
EndSplineSet
EndChar

StartChar: bar
Encoding: 124 124 157
Width: 246
VWidth: 0
Flags: HW
LayerCount: 2
Fore
SplineSet
60.7 -72 m 1
 193.7 770 l 1
 295.7 770 l 1
 162.7 -72 l 1
 60.7 -72 l 1
EndSplineSet
EndChar

StartChar: underscore
Encoding: 95 95 158
Width: 673
VWidth: 0
Flags: HW
LayerCount: 2
Fore
SplineSet
22.5 -1 m 1
 38.7 101 l 1
 672.7 101 l 1
 656.5 -1 l 1
 22.5 -1 l 1
EndSplineSet
EndChar

StartChar: hyphen
Encoding: 45 45 159
Width: 354
VWidth: 0
Flags: HW
LayerCount: 2
Fore
SplineSet
60.35 239 m 1
 76.55 341 l 1
 390.55 341 l 1
 374.35 239 l 1
 60.35 239 l 1
EndSplineSet
Substitution2: "'case' Case-Sensitive Forms lookup 1-1" hyphen.alt
Substitution2: "'c2sc' Capitals to Small Capitals in Latin lookup 17 subtable" hyphen.smcp
Substitution2: "'smcp' Lowercase to Small Capitals lookup 16-1" hyphen.smcp
EndChar

StartChar: numbersign
Encoding: 35 35 160
Width: 708
VWidth: 0
Flags: HW
LayerCount: 2
Fore
SplineSet
310.3 298 m 1
 450.45 297 l 1
 494.4 435 l 1
 354.25 435 l 1
 310.3 298 l 1
50.75 218 m 1
 75.5 298 l 1
 230.3 298 l 1
 274.25 435 l 1
 118.75 435 l 1
 145.15 515 l 1
 301.75 515 l 1
 373 732 l 1
 453 732 l 1
 381.75 515 l 1
 520.45 515 l 1
 590.7 732 l 1
 670.7 732 l 1
 600.45 515 l 1
 773.95 515 l 1
 748.25 435 l 1
 574.4 435 l 1
 530.45 297 l 1
 704.3 297 l 1
 680.25 217 l 1
 502.2 217 l 1
 430.65 0 l 1
 350.65 0 l 1
 422.2 217 l 1
 283.15 218 l 1
 211.6 0 l 1
 131.6 0 l 1
 203.15 218 l 1
 50.75 218 l 1
EndSplineSet
Substitution2: "'smcp' Lowercase to Small Capitals lookup 16-1" numbersign.smcp
EndChar

StartChar: dollar
Encoding: 36 36 161
Width: 571
VWidth: 0
Flags: HW
LayerCount: 2
Fore
SplineSet
72.3 20.15 m 1
 87.2 107.45 l 1
 126.85 106.05 228.35 99.7 321.35 99.7 c 0
 363.05 99.7 427.2 113.3 436.75 173.85 c 2
 444.6 223.65 l 2
 452.2 270.85 455.6 302.75 384.3 302.75 c 2
 278.8 302.75 l 2
 122.25 302.75 113.35 430.05 124.25 497.85 c 1
 133.55 562.1 l 1
 156.5 704.15 247.1 735.3 356.5 738 c 1
 370.15 824 l 1
 445.65 824 l 1
 432 736.05 l 1
 497.85 731.75 567.75 720.1 610.6 710.85 c 1
 596.35 620.3 l 1
 541.8 622.75 391.6 629.65 368.5 629.65 c 0
 304.1 631.6 260.05 616.6 248.5 546 c 2
 241.3 499.25 l 2
 233.05 444.85 244.85 418.75 317.05 418.75 c 2
 423.95 418.75 l 2
 566.85 418.75 575 305.3 562 224 c 2
 553.1 168.25 l 2
 528.65 15.2 416.85 -11.2 314 -8 c 1
 301 -90 l 1
 225.5 -90 l 1
 239.15 -4.75 l 1
 168.05 0.15 114.45 9.1 72.3 20.15 c 1
EndSplineSet
Substitution2: "'smcp' Lowercase to Small Capitals lookup 16-1" dollar.smcp
EndChar

StartChar: zerosuperior
Encoding: 263 8304 162
Width: 442
VWidth: 259
Flags: HW
LayerCount: 2
Fore
SplineSet
169.5 487.2 m 2
 163.2 447.05 176.1 441.15 213.2 441.15 c 2
 293.85 441.15 l 2
 331.45 441.15 344.85 452.9 350.5 486.85 c 2
 386.35 702.35 l 2
 392 734.55 387.1 748.05 346.35 748.05 c 2
 262.2 748.05 l 2
 220.8 748.05 210 729.85 205.35 702.35 c 2
 169.5 487.2 l 2
75.7 471.3 m 2
 113.95 715.8 l 2
 127.3 800.5 178.1 834.2 253.5 834.2 c 2
 371.2 834.2 l 2
 456.7 834.2 488.75 784.9 477.75 717.9 c 2
 439.15 471.3 l 2
 424.85 381.25 380.95 355 305 355 c 2
 187.3 355 l 2
 129.05 355 61.4 381.55 75.7 471.3 c 2
EndSplineSet
EndChar

StartChar: foursuperior
Encoding: 264 8308 163
Width: 469
VWidth: 259
Flags: HW
LayerCount: 2
Fore
SplineSet
106.95 500 m 1
 344.85 834.2 l 1
 445.85 834.2 l 1
 248.1 550.8 l 1
 376.85 550.8 l 1
 394.1 659.9 l 1
 427.65 708.95 l 1
 491.4 708.95 l 1
 466.15 550.8 l 1
 517.85 550.8 l 1
 506.35 477.8 l 1
 451.25 462 l 1
 435.4 356.35 l 1
 345.45 356.35 l 1
 363 461.65 l 1
 126.7 461.65 l 1
 106.95 500 l 1
EndSplineSet
EndChar

StartChar: fivesuperior
Encoding: 265 8309 164
Width: 412
VWidth: 259
Flags: HW
LayerCount: 2
Fore
SplineSet
76.55 366.75 m 1
 88.05 438.55 l 1
 286.8 438.55 l 2
 322.5 438.55 336.95 454.9 340.9 484.4 c 2
 347.1 526.05 l 2
 349.75 546.3 354.2 575.8 310.65 575.8 c 2
 228.35 575.8 l 2
 204.75 575.8 188.3 564.25 183.35 535.9 c 1
 103.55 535.9 l 1
 166.25 834.2 l 1
 470.7 834.2 l 1
 456.85 748.05 l 1
 239.3 748.05 l 1
 216.3 641.55 l 1
 249.25 666.7 312.95 660.2 345.65 659.15 c 0
 420.95 656.35 448.4 595.8 439.15 532.15 c 2
 428.5 463.6 l 1
 415.95 370.9 358.3 350.7 290.95 351.35 c 0
 207.85 352 163.65 351.05 76.55 366.75 c 1
EndSplineSet
EndChar

StartChar: sixsuperior
Encoding: 266 8310 165
Width: 406
VWidth: 259
Flags: HW
LayerCount: 2
Fore
SplineSet
181.6 566.7 m 1
 175.55 527.05 166 441.8 222 441.8 c 2
 298.1 441.8 l 2
 327.25 441.8 340.8 452.95 345.4 482.65 c 2
 352.95 529.3 l 2
 357.9 560.05 347.5 566.7 319.25 566.7 c 2
 181.6 566.7 l 1
96.6 612.65 m 0
 127.2 802.65 188.15 835.65 246.35 838.8 c 0
 315.5 843 398.8 838.45 472.6 826.1 c 1
 461.1 754.75 l 1
 273.9 754.75 l 2
 212.8 754.75 200.7 680.9 192.1 631.85 c 1
 237.95 640.65 294.05 645.9 345.2 646.55 c 0
 427.55 647.2 452.4 584.05 443.65 530.85 c 2
 432.65 459.6 l 2
 420.6 381.65 374.25 355.65 298.05 355.65 c 2
 198.55 355.65 l 2
 128.4 355.65 64.25 411.1 96.6 612.65 c 0
EndSplineSet
EndChar

StartChar: sevensuperior
Encoding: 267 8311 166
Width: 423
VWidth: 259
Flags: HW
LayerCount: 2
Fore
SplineSet
115.6 749.35 m 1
 129.45 835.5 l 1
 468.1 835.5 l 1
 486 794.7 l 1
 233.7 355.65 l 1
 132.55 355.65 l 1
 359.75 749.35 l 1
 115.6 749.35 l 1
EndSplineSet
EndChar

StartChar: eightsuperior
Encoding: 268 8312 167
Width: 417
VWidth: 259
Flags: HW
LayerCount: 2
Fore
SplineSet
243.1 682.7 m 2
 237.5 647.45 256.55 639.25 278.9 639.25 c 2
 363.3 639.25 l 2
 404 639.25 410.25 662.5 413.55 682.7 c 2
 417.85 708.75 l 2
 424.45 748.35 411.05 755.5 380.75 755.5 c 2
 302.2 755.5 l 2
 267.9 755.5 253.35 746.7 247.4 708.75 c 2
 243.1 682.7 l 2
210.2 476 m 2
 205.9 448.9 212.9 438.35 251.5 438.35 c 2
 333.65 438.35 l 2
 362 438.35 377.35 448.65 381.3 476 c 2
 387.25 515.85 l 2
 391.85 544.45 381.7 558.05 353.75 558.05 c 2
 265.75 558.05 l 2
 236.45 558.05 221.4 546.75 216.8 515.85 c 2
 210.2 476 l 2
116.75 468.15 m 2
 125 518.1 l 2
 131.95 560.85 162.05 580 194.65 587.3 c 1
 151.1 609.7 146.05 651.85 151.4 685.7 c 2
 158.4 727.1 l 2
 173.4 819.8 231.4 838.85 301.2 838.85 c 2
 414.85 838.85 l 2
 480.05 838.85 524 795.85 511.65 718.35 c 2
 506 682.2 l 2
 503.65 666.8 488.95 619.35 440.25 610.75 c 1
 480.85 598.5 484 544.7 479.65 516.35 c 2
 471 460.8 l 2
 455.95 363.15 402.95 354.35 337.8 354.35 c 2
 223.85 354.35 l 2
 124.85 354.35 109.1 419 116.75 468.15 c 2
EndSplineSet
EndChar

StartChar: ninesuperior
Encoding: 269 8313 168
Width: 450
VWidth: 259
Flags: HW
LayerCount: 2
Fore
SplineSet
232.25 669.7 m 2
 226.95 638.25 237 631.25 265.25 631.25 c 2
 402.9 631.25 l 1
 409.3 672.65 417.5 754.75 361.5 754.75 c 2
 285.75 754.75 l 2
 256.6 754.75 243.75 743.25 238.8 712.85 c 2
 232.25 669.7 l 2
110.55 365.55 m 1
 122.05 437.25 l 1
 309.25 437.25 l 2
 370.35 437.25 382.8 511.8 391.75 562.25 c 1
 345.9 553.45 289.8 548.2 238.65 547.55 c 0
 155.95 546.9 132.15 612.85 140.9 666.75 c 2
 150.85 733.8 l 2
 162.55 812.45 208.55 841.6 284.75 840.9 c 2
 387.4 840.2 l 2
 458.95 840.2 519.9 780.2 487.2 576.55 c 0
 456.25 384.8 395.35 356.35 336.8 352.85 c 0
 267.65 348.65 174.6 351.9 110.55 365.55 c 1
EndSplineSet
EndChar

StartChar: zeroinferior
Encoding: 270 8320 169
Width: 457
VWidth: 0
Flags: HW
LayerCount: 2
Fore
SplineSet
192.15 -68.8 m 2
 185.85 -108.95 198.75 -114.85 235.85 -114.85 c 2
 316.5 -114.85 l 2
 354.1 -114.85 367.5 -103.1 373.15 -69.15 c 2
 409 146.35 l 2
 414.65 178.55 409.75 192.05 369 192.05 c 2
 284.85 192.05 l 2
 243.45 192.05 232.65 173.85 228 146.35 c 2
 192.15 -68.8 l 2
98.35 -84.7 m 2
 136.6 159.8 l 2
 149.95 244.5 200.75 278.2 276.15 278.2 c 2
 393.85 278.2 l 2
 479.35 278.2 511.4 228.9 500.4 161.9 c 2
 461.8 -84.7 l 2
 447.5 -174.75 403.6 -201 327.65 -201 c 2
 209.95 -201 l 2
 151.7 -201 84.05 -174.45 98.35 -84.7 c 2
EndSplineSet
EndChar

StartChar: oneinferior
Encoding: 271 8321 170
Width: 285
VWidth: 0
Flags: HW
LayerCount: 2
Fore
SplineSet
34.95 155.7 m 1
 44.75 218 l 1
 96.75 218 162.45 267.85 173.65 280.8 c 1
 263.05 280.8 l 1
 186.7 -200.35 l 1
 95.3 -200.35 l 1
 157.15 182.35 l 1
 136.3 166.2 85 155.7 34.95 155.7 c 1
EndSplineSet
EndChar

StartChar: twoinferior
Encoding: 272 8322 171
Width: 435
VWidth: 0
Flags: HW
LayerCount: 2
Fore
SplineSet
39.5 -200.35 m 1
 52.35 -118.55 l 1
 122.4 -72.25 314.9 46.8 329.05 135.65 c 0
 336.35 182.7 319.85 199.7 263.25 199.7 c 2
 99.65 199.7 l 2
 98.35 199.7 109.85 269.05 110.5 268.4 c 0
 174.7 278.15 221.75 285.85 303.55 285.85 c 0
 400.85 285.85 433.85 197.1 423.75 138.65 c 1
 404.55 10.35 253.95 -82.1 216.9 -114.2 c 1
 382.65 -114.2 l 1
 368.8 -200.35 l 1
 39.5 -200.35 l 1
EndSplineSet
EndChar

StartChar: threeinferior
Encoding: 273 8323 172
Width: 391
VWidth: 0
Flags: HW
LayerCount: 2
Fore
SplineSet
-1.55 -185.65 m 1
 9.3 -119.2 l 1
 30.1 -119.2 176.1 -118.55 176.1 -118.55 c 2
 219 -118.55 247.3 -107.15 252.9 -70.5 c 2
 255.85 -53.8 l 2
 262.1 -12.95 236.3 -1.55 198.5 -0.2 c 2
 69.05 4.45 l 1
 80.55 77.3 l 1
 212.35 82.6 l 2
 257.7 84.6 281.85 98.55 286.8 132.25 c 2
 288.75 147.95 l 1
 295.05 183.65 276.8 195.35 230.1 195.35 c 2
 54.95 195.35 l 1
 65.45 261.45 l 1
 127.2 282.5 196.95 282.2 275.05 280.85 c 0
 352.05 279.85 391.6 223.85 381.2 157.2 c 2
 375.9 125.35 l 2
 367.9 77.65 343.55 43.45 309.6 34.85 c 1
 342 19.6 352.9 -21.05 346.2 -62.95 c 2
 342.2 -88.15 l 2
 330.5 -162.65 288.75 -205.35 193.35 -204.7 c 0
 117.25 -204.7 53.5 -206.7 -1.55 -185.65 c 1
EndSplineSet
EndChar

StartChar: fourinferior
Encoding: 274 8324 173
Width: 432
VWidth: 0
Flags: HW
LayerCount: 2
Fore
SplineSet
-0.2 -56 m 1
 237.7 278.2 l 1
 338.7 278.2 l 1
 140.95 -5.2 l 1
 269.7 -5.2 l 1
 286.95 103.9 l 1
 320.5 152.95 l 1
 384.25 152.95 l 1
 359 -5.2 l 1
 410.7 -5.2 l 1
 399.2 -78.2 l 1
 344.1 -94 l 1
 328.25 -199.65 l 1
 238.3 -199.65 l 1
 255.85 -94.35 l 1
 19.55 -94.35 l 1
 -0.2 -56 l 1
EndSplineSet
EndChar

StartChar: fiveinferior
Encoding: 275 8325 174
Width: 411
VWidth: 0
Flags: HW
LayerCount: 2
Fore
SplineSet
4.55 -189.25 m 1
 16.05 -117.45 l 1
 214.8 -117.45 l 2
 250.5 -117.45 264.95 -101.1 268.9 -71.6 c 2
 275.1 -29.95 l 2
 277.75 -9.7 282.2 19.8 238.65 19.8 c 2
 156.35 19.8 l 2
 132.75 19.8 116.3 8.25 111.35 -20.1 c 1
 31.55 -20.1 l 1
 94.25 278.2 l 1
 398.7 278.2 l 1
 384.85 192.05 l 1
 167.3 192.05 l 1
 144.3 85.55 l 1
 177.25 110.7 240.95 104.2 273.65 103.15 c 0
 348.95 100.35 376.4 39.8 367.15 -23.85 c 2
 356.5 -92.4 l 1
 343.95 -185.1 286.3 -205.3 218.95 -204.65 c 0
 135.85 -204 91.65 -204.95 4.55 -189.25 c 1
EndSplineSet
EndChar

StartChar: sixinferior
Encoding: 276 8326 175
Width: 406
VWidth: 0
Flags: HW
LayerCount: 2
Fore
SplineSet
109.6 10.7 m 1
 103.55 -28.95 94 -114.2 150 -114.2 c 2
 226.1 -114.2 l 2
 255.25 -114.2 268.8 -103.05 273.4 -73.35 c 2
 280.95 -26.7 l 2
 285.9 4.05 275.5 10.7 247.25 10.7 c 2
 109.6 10.7 l 1
24.6 56.65 m 0
 55.2 246.65 116.15 279.65 174.35 282.8 c 0
 243.5 287 333.3 282.45 400.6 270.1 c 1
 389.1 198.75 l 1
 201.9 198.75 l 2
 140.8 198.75 128.7 124.9 120.1 75.85 c 1
 165.95 84.65 222.05 89.9 273.2 90.55 c 0
 355.55 91.2 380.4 28.05 371.65 -25.15 c 2
 360.65 -96.4 l 2
 348.6 -174.35 302.25 -200.35 226.05 -200.35 c 2
 126.55 -200.35 l 2
 56.4 -200.35 -7.75 -144.9 24.6 56.65 c 0
EndSplineSet
EndChar

StartChar: seveninferior
Encoding: 277 8327 176
Width: 422
VWidth: 0
Flags: HW
LayerCount: 2
Fore
SplineSet
43.6 193.35 m 1
 57.45 279.5 l 1
 396.1 279.5 l 1
 414 238.7 l 1
 161.7 -200.35 l 1
 60.55 -200.35 l 1
 287.75 193.35 l 1
 43.6 193.35 l 1
EndSplineSet
EndChar

StartChar: eightinferior
Encoding: 278 8328 177
Width: 417
VWidth: 0
Flags: HW
LayerCount: 2
Fore
SplineSet
171.1 126.7 m 2
 165.5 91.45 184.55 83.25 206.9 83.25 c 2
 291.3 83.25 l 2
 332 83.25 338.25 106.5 341.55 126.7 c 2
 345.85 152.75 l 2
 352.45 192.35 339.05 199.5 308.75 199.5 c 2
 230.2 199.5 l 2
 195.9 199.5 181.35 190.7 175.4 152.75 c 2
 171.1 126.7 l 2
138.2 -80 m 2
 133.9 -107.1 140.9 -117.65 179.5 -117.65 c 2
 261.65 -117.65 l 2
 290 -117.65 305.35 -107.35 309.3 -80 c 2
 315.25 -40.15 l 2
 319.85 -11.55 309.7 2.05 281.75 2.05 c 2
 193.75 2.05 l 2
 164.45 2.05 149.4 -9.25 144.8 -40.15 c 2
 138.2 -80 l 2
44.75 -87.85 m 2
 53 -37.9 l 2
 59.95 4.85 90.05 24 122.65 31.3 c 1
 79.1 53.7 74.05 95.85 79.4 129.7 c 2
 86.4 171.1 l 2
 101.4 263.8 159.4 282.85 229.2 282.85 c 2
 342.85 282.85 l 2
 408.05 282.85 452 239.85 439.65 162.35 c 2
 434 126.2 l 2
 431.65 110.8 416.95 63.35 368.25 54.75 c 1
 408.85 42.5 412 -11.3 407.65 -39.65 c 2
 399 -95.2 l 2
 383.95 -192.85 330.95 -201.65 265.8 -201.65 c 2
 151.85 -201.65 l 2
 52.85 -201.65 37.1 -137 44.75 -87.85 c 2
EndSplineSet
EndChar

StartChar: nineinferior
Encoding: 279 8329 178
Width: 449
VWidth: 0
Flags: HW
LayerCount: 2
Fore
SplineSet
160.25 113.7 m 2
 154.95 82.25 165 75.25 193.25 75.25 c 2
 330.9 75.25 l 1
 337.3 116.65 345.5 198.75 289.5 198.75 c 2
 213.75 198.75 l 2
 184.6 198.75 171.75 187.25 166.8 156.85 c 2
 160.25 113.7 l 2
38.55 -190.45 m 1
 50.05 -118.75 l 1
 237.25 -118.75 l 2
 298.35 -118.75 310.8 -44.2 319.75 6.25 c 1
 273.9 -2.55 217.8 -7.8 166.65 -8.45 c 0
 83.95 -9.1 60.15 56.85 68.9 110.75 c 2
 78.85 177.8 l 2
 90.55 256.45 136.55 285.6 212.75 284.9 c 2
 315.4 284.2 l 2
 386.95 284.2 447.9 224.2 415.2 20.55 c 0
 384.25 -171.2 323.35 -199.65 264.8 -203.15 c 0
 195.65 -207.35 98.05 -204.1 38.55 -190.45 c 1
EndSplineSet
EndChar

StartChar: zero.oldstyle
Encoding: 280 -1 179
Width: 619
VWidth: 0
Flags: HW
HStem: 0 109<211.155 461.807> 523 109<276.169 519.357>
DStem2: 85.3496 172.5 203.8 186.85 0.158466 0.987364<-27.0098 354.44> 488.8 186.5 602.35 172.5 0.15893 0.98729<-62.1743 319.252>
LayerCount: 2
Fore
SplineSet
203.8 186.85 m 2
 191.55 108.1 235.95 109 274.85 109 c 2
 396.15 109 l 2
 449.3 109 479.8 132.5 488.8 186.5 c 2
 530.1 445.5 l 2
 538.4 498.65 523 523 465.45 523 c 2
 338.9 523 l 2
 270.4 523 250.35 479.95 245.1 445.5 c 2
 203.8 186.85 l 2
85.3496 172.5 m 2
 130.85 456 l 2
 149.9 576.25 216.4 632 331 632 c 2
 495 632 l 2
 631.4 632 662.6 545.85 648.55 459.5 c 2
 602.35 172.5 l 2
 583.35 53.5 520.5 0 408.3 0 c 2
 244.3 0 l 2
 139.65 0 66 52.5 85.3496 172.5 c 2
EndSplineSet
Substitution2: "'tnum' Tabular Numbers in Latin lookup 7-1" zero.tosf
Substitution2: "'lnum' Lining Figures lookup 19-1" zero
EndChar

StartChar: one.oldstyle
Encoding: 281 -1 180
Width: 357
VWidth: 0
Flags: HW
HStem: 0 21G<163.1 281.443> 0 21G<163.1 281.443> 472.85 77.5<94.4 170.694>
VStem: 82.55 292
DStem2: 163.1 0 278.4 0 0.150405 0.988624<17.3417 514.488>
LayerCount: 2
Fore
SplineSet
82.55 472.85 m 1
 94.4 550.35 l 1
 159.4 550.35 242.45 614.7 259.25 633.95 c 1
 374.55 632 l 1
 278.4 0 l 1
 163.1 0 l 1
 241.7 508.45 l 1
 211.05 485.95 144.95 472.85 82.55 472.85 c 1
EndSplineSet
Substitution2: "'tnum' Tabular Numbers in Latin lookup 7-1" one.tosf
Substitution2: "'lnum' Lining Figures lookup 19-1" one
EndChar

StartChar: two.oldstyle
Encoding: 282 -1 181
Width: 593
VWidth: 0
Flags: HW
HStem: 0 109<305.1 547.1> 526.55 109.351<169.495 489.958>
LayerCount: 2
Fore
SplineSet
41.5996 0 m 1
 58.2002 103 l 1
 196.55 171.6 484.65 308.8 503.8 430.6 c 0
 515.1 499.4 491 527.85 400.25 526.55 c 0
 367.75 526.55 123.95 525.9 123.95 525.9 c 1
 138.5 612.4 l 1
 234.55 627.8 313.65 635.9 442.05 635.9 c 0
 601.3 635.9 636.7 535.5 623.8 429.3 c 1
 606.35 266.6 373.4 140.4 305.1 109 c 1
 564.7 109 l 1
 547.1 0 l 1
 41.5996 0 l 1
EndSplineSet
Substitution2: "'tnum' Tabular Numbers in Latin lookup 7-1" two.tosf
Substitution2: "'lnum' Lining Figures lookup 19-1" two
EndChar

StartChar: three.oldstyle
Encoding: 283 -1 182
Width: 590
VWidth: 0
Flags: HW
HStem: -103.1 110<69.1401 408.841> -75.1 82<54.65 139.191> 212.75 110<218.269 440.077> 220.45 93<164.85 327.431> 528.9 109<197.689 488.045>
DStem2: 441.7 84.15 556.9 64.9 0.157648 0.987495<-55.5839 107.74 260.741 426.44>
LayerCount: 2
Fore
SplineSet
41.05 -75.1 m 1
 54.65 6.9 l 1
 324.65 6.9 l 2
 383.15 6.9 432.1 24.15 441.7 84.15 c 2
 448.55 126 l 2
 461.4 207.1 420.4 210.05 363.25 212.75 c 2
 149.25 220.45 l 1
 164.85 313.45 l 1
 380.85 322.75 l 2
 449.85 325.75 485.6 348.5 494.55 404.25 c 2
 502.05 451.9 l 2
 513 519.15 465.45 528.9 413.45 528.9 c 2
 130.45 528.9 l 1
 143.05 609.9 l 1
 236.05 640.9 352.55 639.9 469.55 637.9 c 0
 570.45 635.9 636.2 562.3 619.8 458.9 c 2
 610.2 400.4 l 2
 597.55 322.2 562.55 278.2 515.55 267.9 c 1
 562 248.3 577.15 189.4 565.15 113.4 c 2
 556.9 64.9 l 1
 539.2 -48.3 467.55 -103.1 345.55 -103.1 c 0
 231.55 -103.1 124.05 -106.1 41.05 -75.1 c 1
EndSplineSet
Substitution2: "'tnum' Tabular Numbers in Latin lookup 7-1" three.tosf
Substitution2: "'lnum' Lining Figures lookup 19-1" three
EndChar

StartChar: four.oldstyle
Encoding: 284 -1 183
Width: 612
VWidth: 0
Flags: HW
HStem: 69.5 113<214.8 410.55>
DStem2: 36.3 124 214.8 182.5 0.580859 0.814004<151.303 624.076> 384.35 -98 502.3 -98 0.155967 0.987762<18.3963 169.536 302.295 467.675>
LayerCount: 2
Fore
SplineSet
36.3 124 m 1
 398.8 632 l 1
 532.05 632 l 1
 214.8 182.5 l 1
 428.15 182.5 l 1
 457.3 363.95 l 1
 504.75 440 l 1
 587.25 440 l 1
 546.1 182.5 l 1
 625.6 182.5 l 1
 611.7 92 l 1
 528.5 69.5 l 1
 502.3 -98 l 1
 384.35 -98 l 1
 410.55 69.5 l 1
 61.5 69.5 l 1
 36.3 124 l 1
EndSplineSet
Substitution2: "'tnum' Tabular Numbers in Latin lookup 7-1" four.tosf
Substitution2: "'lnum' Lining Figures lookup 19-1" four
EndChar

StartChar: five.oldstyle
Encoding: 285 -1 184
Width: 596
VWidth: 0
Flags: HW
HStem: -103.35 114<69.312 409.456> -79.3496 90<60.4502 195.474> 251 106.15<244.742 443.53> 523 109<277.2 601.25>
DStem2: 89.0996 186.5 237.05 330 0.203673 0.979039<170.626 367.758> 440.85 89.6504 554.4 63.1504 0.14645 0.989218<-62.421 143.119>
LayerCount: 2
Fore
SplineSet
45.8496 -79.3496 m 1
 60.4502 10.6504 l 1
 350.45 10.6504 l 2
 417 10.6504 435.9 57.9502 440.85 89.6504 c 2
 453.65 168.1 l 2
 458.65 198.5 461.4 251 392.2 251 c 2
 279.3 251 l 2
 242.75 251 207.3 232.45 199.7 186.5 c 1
 89.0996 186.5 l 1
 181.85 632 l 1
 618.85 632 l 1
 601.25 523 l 1
 277.2 523 l 1
 237.05 330 l 1
 259.55 347.95 291.1 354.85 319.7 357.15 c 0
 361.95 360.45 411.6 356.85 434.35 356.5 c 0
 533.75 353 586 275.35 570.7 173.25 c 2
 554.4 63.1504 l 1
 532.4 -73.8496 442.8 -100.1 349.35 -103.35 c 0
 224.7 -107.9 175.85 -102.35 45.8496 -79.3496 c 1
EndSplineSet
Substitution2: "'tnum' Tabular Numbers in Latin lookup 7-1" five.tosf
Substitution2: "'lnum' Lining Figures lookup 19-1" five
EndChar

StartChar: six.oldstyle
Encoding: 286 -1 185
Width: 593
VWidth: 0
Flags: HW
HStem: -0.35 107.05<191.156 406.55> 333 105.5<192.564 441.355> 629 87.55<353.581 590.75>
DStem2: 429.9 176.75 540.4 148 0.149745 0.988725<-57.9024 146.181>
LayerCount: 2
Fore
SplineSet
175.35 333 m 1
 157.7 221.8 153.15 106.7 240.9 106.7 c 2
 345.45 106.7 l 2
 378.45 106.7 420.65 117.65 429.9 176.75 c 2
 443.65 265 l 2
 452.6 319.7 437.65 333 383.75 333 c 2
 175.35 333 l 1
67.15 391 m 0
 109.15 656 209.7 731.35 295.5 736.25 c 0
 397.2 741.85 508.8 728.1 604.65 716.55 c 1
 590.75 629 l 1
 326.25 629 l 2
 238.5 629 203.2 497.65 189.25 417.5 c 1
 259.8 430.65 339.25 437.85 416.75 438.5 c 0
 555.6 439.8 570.45 343.05 558.65 268.5 c 2
 540.4 148 l 1
 521.35 29.7 445.55 -0.35 343.85 -0.35 c 2
 200 -0.35 l 2
 95.55 -0.35 17.15 76 67.15 391 c 0
EndSplineSet
Substitution2: "'tnum' Tabular Numbers in Latin lookup 7-1" six.tosf
Substitution2: "'lnum' Lining Figures lookup 19-1" six
EndChar

StartChar: seven.oldstyle
Encoding: 287 -1 186
Width: 569
VWidth: 0
Flags: HW
HStem: 523 109<116.8 455.2>
DStem2: 119.8 -100 249.1 -100 0.470027 0.882652<60.7745 707.539>
LayerCount: 2
Fore
SplineSet
99.2 523 m 1
 116.8 632 l 1
 583.5 632 l 1
 607.75 573.5 l 1
 249.1 -100 l 1
 119.8 -100 l 1
 455.2 523 l 1
 99.2 523 l 1
EndSplineSet
Substitution2: "'tnum' Tabular Numbers in Latin lookup 7-1" seven.tosf
Substitution2: "'lnum' Lining Figures lookup 19-1" seven
EndChar

StartChar: eight.oldstyle
Encoding: 288 -1 187
Width: 625
VWidth: 0
Flags: HW
HStem: 0 105.5<214.356 452.594> 323 101<265.63 479.517> 631.5 105.5<290.513 530.854>
DStem2: 88.5498 169.75 205.65 171.65 0.156552 0.98767<-29.8831 159.435 296.502 474.35> 475.15 171.65 590.4 157.85 0.156643 0.987655<-52.077 133.546 273.733 449.375>
LayerCount: 2
Fore
SplineSet
256.5 494 m 2
 247.25 436.8 287.2 424 321.2 424 c 2
 442.75 424 l 2
 505.6 424 520.35 460.1 526 494 c 2
 534.55 548.7 l 2
 545.8 617.5 524.1 631.5 474.1 631.5 c 2
 361 631.5 l 2
 296.55 631.5 274.65 610.3 265.05 548.7 c 2
 256.5 494 l 2
205.65 171.65 m 2
 197.7 121.7 218.1 105.5 277.8 105.5 c 2
 390.25 105.5 l 2
 431 105.5 467.9 122.85 475.15 171.65 c 2
 488.3 253.9 l 2
 495.55 300.05 470.15 323 427.9 323 c 2
 305.65 323 l 2
 261.05 323 226.7 303.65 218.8 253.9 c 2
 205.65 171.65 l 2
88.5498 169.75 m 2
 101.1 252 l 2
 111.7 317.6 155.3 352.35 206.45 358.75 c 1
 139.75 386 132.8 453.45 141.5 506 c 2
 152.15 571 l 1
 173.5 707.75 252.65 737 362.15 737 c 2
 511.65 737 l 2
 617.3 737 671.7 672.95 653.65 556.65 c 1
 644.05 499 l 1
 641.35 475.25 618.65 401.6 547.45 388.7 c 1
 606 372.45 612 291.15 604.35 248.15 c 2
 590.4 157.85 l 2
 566.35 8.5 477.65 0 393.65 0 c 2
 245.15 0 l 2
 69.4502 0 81.1504 123.3 88.5498 169.75 c 2
EndSplineSet
Substitution2: "'tnum' Tabular Numbers in Latin lookup 7-1" eight.tosf
Substitution2: "'lnum' Lining Figures lookup 19-1" eight
EndChar

StartChar: nine.oldstyle
Encoding: 289 -1 188
Width: 607
VWidth: 0
Flags: HW
HStem: -84.55 87.55<99.05 336.536> 193.5 105.5<248.453 497.586> 525.3 107.05<282.597 498.348>
DStem2: 131.85 367 246.5 367 0.152809 0.988256<-36.4126 165.666>
LayerCount: 2
Fore
SplineSet
246.5 367 m 2
 237.55 312.3 252.15 299 306.05 299 c 2
 514.45 299 l 1
 532.1 410.2 536.3 525.3 448.55 525.3 c 2
 344.35 525.3 l 2
 311.35 525.3 269.15 514.35 259.9 455.25 c 2
 246.5 367 l 2
85.15 -84.55 m 1
 99.05 3 l 1
 363.55 3 l 2
 451.3 3 486.95 134.35 500.9 214.5 c 1
 430.35 201.35 350.55 194.15 273.05 193.5 c 0
 134.2 192.2 120.05 292.45 131.85 367 c 2
 149.4 480.5 l 2
 168.1 598.8 243.55 632.35 345.25 632.35 c 2
 489.1 632.35 l 2
 595.65 632.35 672.3 549 622.3 234 c 0
 580.3 -31 480.45 -99.35 394.65 -104.25 c 0
 292.95 -109.85 181 -96.1 85.15 -84.55 c 1
EndSplineSet
Substitution2: "'tnum' Tabular Numbers in Latin lookup 7-1" nine.tosf
Substitution2: "'lnum' Lining Figures lookup 19-1" nine
EndChar

StartChar: ampersand
Encoding: 38 38 189
Width: 655
VWidth: 0
Flags: HW
LayerCount: 2
Fore
SplineSet
183 143.3 m 0
 214.9 96.2 276.55 84.15 326.2 127.1 c 2
 395.85 187.75 l 1
 302.45 344.6 l 1
 229.75 290.15 l 2
 158.3 236.1 154.5 184.95 183 143.3 c 0
88.4 81.8 m 0
 27.5 180.2 57.9 286.3 162.65 365.65 c 2
 254.85 435.85 l 1
 211.8 511.05 l 2
 147.85 621.3 231.75 718.25 316.85 728.05 c 0
 428.85 741.6 505.95 730.25 593.15 710 c 1
 579.9 628.4 l 1
 401.4 628.4 l 2
 318.9 628.4 282.25 605.3 329.95 521.8 c 2
 483.35 255.2 l 1
 618.1 373.45 l 1
 653.3 329.65 l 1
 582.65 209.55 l 1
 535.7 164.6 l 1
 631.65 0 l 1
 506.65 0 l 1
 448.3 100.5 l 1
 373.6 37.35 l 2
 300.45 -24.65 155 -27 88.4 81.8 c 0
EndSplineSet
AlternateSubs2: "'salt' Access All Alternates in Latin lookup 4-1" ampersand.salt
Substitution2: "'smcp' Lowercase to Small Capitals lookup 16-1" ampersand.smcp
EndChar

StartChar: asterisk
Encoding: 42 42 190
Width: 431
VWidth: 0
Flags: HW
LayerCount: 2
Fore
SplineSet
333.65 571 m 1
 465.65 648.75 l 1
 485.3 606.05 l 1
 375.45 509.05 l 1
 333.65 571 l 1
282.7 718.75 m 1
 333.85 736.85 l 1
 385.25 616.05 l 1
 305.25 584 l 1
 282.7 718.75 l 1
270.75 470.05 m 1
 326.3 538 l 1
 422.7 447.7 l 1
 388.3 407.3 l 1
 270.75 470.05 l 1
168.65 415.4 m 1
 214 551.45 l 1
 290.3 532 l 1
 213.45 400.25 l 1
 168.65 415.4 l 1
131.3 566 m 1
 139.05 616.5 l 1
 282.35 642 l 1
 274.3 561 l 1
 131.3 566 l 1
EndSplineSet
Substitution2: "'smcp' Lowercase to Small Capitals lookup 16-1" asterisk.smcp
EndChar

StartChar: Euro
Encoding: 290 8364 191
Width: 709
VWidth: 0
Flags: HW
LayerCount: 2
Fore
SplineSet
61.25 251.5 m 1
 70.7 312.5 l 1
 153.35 319.5 l 1
 165.85 399.5 l 1
 86.2 407.5 l 1
 95.3 464.5 l 1
 177.3 473.5 l 1
 188.3 545.5 216.6 740 460.6 740 c 0
 512.6 740 638.2 726.15 710.75 706.5 c 1
 697.2 619.5 l 1
 697.2 619.5 546.7 634.5 464.7 634.5 c 0
 325.5 634.5 308.85 561.95 293.3 473.5 c 1
 526.3 466.5 l 1
 516.85 406.5 l 1
 281.85 399.5 l 1
 269.35 319.5 l 1
 501.7 312.5 l 1
 492.25 251.5 l 1
 492.25 251.5 254.25 246.5 257.25 244.5 c 1
 236.1 118.4 298.1 96 379.5 96 c 0
 472.65 96 621.35 116.5 621.35 116.5 c 1
 607.8 32.5 l 1
 526.65 3.9 439.6 -6 342.6 -6 c 0
 265.6 -6 105.25 18.5 141.25 244.5 c 1
 61.25 251.5 l 1
EndSplineSet
Substitution2: "'smcp' Lowercase to Small Capitals lookup 16-1" Euro.smcp
EndChar

StartChar: parenleft
Encoding: 40 40 192
Width: 361
VWidth: 39
Flags: HW
LayerCount: 2
Fore
SplineSet
115.1 315.5 m 0
 169.2 641.2 365.05 839 365.05 839 c 1
 482.1 839 l 1
 482.1 839 284.9 603.45 231.1 305 c 0
 173.95 -12.3 312.1 -231 312.1 -231 c 1
 199.6 -231 l 1
 199.6 -231 58.6 -23.65 115.1 315.5 c 0
EndSplineSet
Substitution2: "'case' Case-Sensitive Forms lookup 1-1" parenleft.alt
Substitution2: "'c2sc' Capitals to Small Capitals in Latin lookup 17 subtable" parenleft.smcp
Substitution2: "'smcp' Lowercase to Small Capitals lookup 16-1" parenleft.smcp
EndChar

StartChar: parenright
Encoding: 41 41 193
Width: 363
VWidth: 39
Flags: HW
LayerCount: 2
Fore
SplineSet
-16.15 -231 m 1
 -16.15 -231 179.65 -3.85 234.85 303.7 c 0
 290.6 611.9 153.5 839 153.5 839 c 1
 266 839 l 1
 266 839 405.6 621.5 350.85 293.2 c 0
 295 -43.35 107.9 -231 107.9 -231 c 1
 -16.15 -231 l 1
EndSplineSet
Substitution2: "'case' Case-Sensitive Forms lookup 1-1" parenright.alt
Substitution2: "'c2sc' Capitals to Small Capitals in Latin lookup 17 subtable" parenright.smcp
Substitution2: "'smcp' Lowercase to Small Capitals lookup 16-1" parenright.smcp
EndChar

StartChar: plus
Encoding: 43 43 194
Width: 495
VWidth: 0
Flags: HW
LayerCount: 2
Fore
SplineSet
87.4 305 m 1
 103.6 407 l 1
 259.6 407 l 1
 284.5 564 l 1
 386.5 564 l 1
 361.6 407 l 1
 519.6 407 l 1
 503.4 305 l 1
 345.4 305 l 1
 320.5 148 l 1
 218.5 148 l 1
 243.4 305 l 1
 87.4 305 l 1
EndSplineSet
EndChar

StartChar: endash
Encoding: 291 8211 195
Width: 454
VWidth: 0
Flags: HW
LayerCount: 2
Fore
SplineSet
59.65 236 m 1
 76.2 339 l 1
 549.2 339 l 1
 532.65 236 l 1
 59.65 236 l 1
EndSplineSet
Substitution2: "'case' Case-Sensitive Forms lookup 1-1" endash.alt
Substitution2: "'c2sc' Capitals to Small Capitals in Latin lookup 17 subtable" endash.smcp
Substitution2: "'smcp' Lowercase to Small Capitals lookup 16-1" endash.smcp
EndChar

StartChar: emdash
Encoding: 292 8212 196
Width: 736
VWidth: 0
Flags: HW
LayerCount: 2
Fore
SplineSet
60.4 238 m 1
 76.95 341 l 1
 772.95 341 l 1
 756.4 238 l 1
 60.4 238 l 1
EndSplineSet
Substitution2: "'case' Case-Sensitive Forms lookup 1-1" emdash.alt
Substitution2: "'c2sc' Capitals to Small Capitals in Latin lookup 17 subtable" emdash.smcp
Substitution2: "'smcp' Lowercase to Small Capitals lookup 16-1" emdash.smcp
EndChar

StartChar: less
Encoding: 60 60 197
Width: 458
VWidth: 0
Flags: HW
LayerCount: 2
Fore
SplineSet
88.85 297.2 m 1
 106.75 408.7 l 1
 505.35 559.5 l 1
 488.1 448 l 1
 219.4 349.3 l 1
 455.85 244.75 l 1
 437.95 136.5 l 1
 88.85 297.2 l 1
EndSplineSet
EndChar

StartChar: equal
Encoding: 61 61 198
Width: 467
VWidth: 0
Flags: HW
LayerCount: 2
Fore
SplineSet
83.25 407 m 1
 100.1 509 l 1
 527.1 509 l 1
 510.25 407 l 1
 83.25 407 l 1
50.2 194.5 m 1
 67.05 296.5 l 1
 494.05 296.5 l 1
 477.2 194.5 l 1
 50.2 194.5 l 1
EndSplineSet
EndChar

StartChar: greater
Encoding: 62 62 199
Width: 459
VWidth: 0
Flags: HW
LayerCount: 2
Fore
SplineSet
63.6 136.5 m 1
 81.5 249.3 l 1
 354.45 356.8 l 1
 112.75 454.5 l 1
 130.65 559.5 l 1
 481.4 408.7 l 1
 464.5 297.2 l 1
 63.6 136.5 l 1
EndSplineSet
EndChar

StartChar: multiply
Encoding: 215 215 200
Width: 460
VWidth: 0
Flags: HW
LayerCount: 2
Fore
SplineSet
86 246.1 m 1
 213.45 356.3 l 1
 121.5 466.2 l 1
 199.55 534.5 l 1
 291.85 424.6 l 1
 427 540.45 l 1
 488.1 467.2 l 1
 352.9 350.3 l 1
 446.5 239.45 l 1
 368.5 174.3 l 1
 276.6 283.4 l 1
 148.15 171.1 l 1
 86 246.1 l 1
EndSplineSet
EndChar

StartChar: divide
Encoding: 247 247 201
Width: 504
VWidth: 0
Flags: HW
LayerCount: 2
Fore
SplineSet
270.9 475.85 m 2
 280.3 537.9 l 2
 282.3 552.9 292.3 562.9 308.3 562.9 c 2
 373.35 562.9 l 2
 389.4 562.9 395.4 552.6 393.05 537.9 c 2
 383.65 475.85 l 2
 381.3 459.8 369.95 452.85 355.95 452.85 c 2
 290.9 452.85 l 2
 276.9 452.85 268.9 461.85 270.9 475.85 c 2
220.45 161.45 m 2
 230.85 223.5 l 2
 232.85 238.5 242.85 248.5 258.85 248.5 c 2
 323.9 248.5 l 2
 339.95 248.5 345.95 238.2 343.6 223.5 c 2
 333.2 161.45 l 2
 330.85 145.4 320.5 138.45 306.5 138.45 c 2
 241.45 138.45 l 2
 227.45 138.45 218.45 147.45 220.45 161.45 c 2
89.85 302 m 1
 106.05 404 l 1
 525.9 404 l 1
 509.7 302 l 1
 89.85 302 l 1
EndSplineSet
EndChar

StartChar: question
Encoding: 63 63 202
Width: 541
VWidth: 0
Flags: HW
LayerCount: 2
Fore
SplineSet
168.7 23 m 2
 181.2 101 l 2
 183.2 116 193.2 126 209.2 126 c 2
 283.2 126 l 2
 301.2 126 307.2 117 304.2 101 c 2
 291.7 23 l 2
 288.7 5 277.7 0 263.7 0 c 2
 189.7 0 l 2
 175.7 0 166.7 9 168.7 23 c 2
116.25 631.6 m 1
 130.15 715.5 l 1
 229.25 732 301.85 744 415.85 739 c 1
 556.15 739 611.3 641.5 595.3 543.5 c 1
 581.75 453 l 2
 560.2 306.6 465 273.25 321.45 289 c 1
 321.45 287.05 306.2 198.9 306.85 195 c 1
 207.35 195 l 1
 235.85 378 l 1
 273.55 377.35 322.65 376.7 360.35 378 c 0
 409.35 380 457.15 402.8 467.1 464.9 c 2
 478.2 535.8 l 2
 489.1 605.8 459.5 631.6 373.25 631.6 c 2
 116.25 631.6 l 1
EndSplineSet
Substitution2: "'smcp' Lowercase to Small Capitals lookup 16-1" question.smcp
EndChar

StartChar: bracketleft
Encoding: 91 91 203
Width: 329
VWidth: 39
Flags: HW
LayerCount: 2
Fore
SplineSet
68.2 -31.35 m 2
 179 659.3 l 2
 195.8 762.05 234.75 821 365.9 821 c 2
 445.9 821 l 1
 429.7 719 l 1
 367.2 719 l 2
 329.2 719 303.2 703.6 292.55 639.7 c 2
 184.2 -38 l 2
 172.25 -113.6 185.4 -129 231.2 -129 c 2
 295.45 -129 l 1
 279.25 -231 l 1
 193.65 -231 l 2
 59.1 -231 56.05 -105.5 68.2 -31.35 c 2
EndSplineSet
EndChar

StartChar: bracketright
Encoding: 93 93 204
Width: 327
VWidth: 39
Flags: HW
LayerCount: 2
Fore
SplineSet
-16.15 -231 m 1
 0.05 -129 l 1
 62.55 -129 l 2
 100.55 -129 126.9 -113.6 137.55 -49.7 c 2
 244.85 628 l 2
 256.8 703.6 242.6 719 196.8 719 c 2
 134.3 719 l 1
 150.85 821 l 1
 232.25 821 l 2
 360.85 821 373.35 710.55 361.2 627.3 c 2
 254.95 -68.95 l 2
 241.3 -159.45 208.65 -231 70.85 -231 c 2
 -16.15 -231 l 1
EndSplineSet
EndChar

StartChar: braceleft
Encoding: 123 123 205
Width: 320
VWidth: 39
Flags: HW
LayerCount: 2
Fore
SplineSet
61.75 273.25 m 1
 76.6 364.75 l 1
 110.25 366.45 156.8 364.8 164.1 411.25 c 2
 201.1 645.5 l 2
 220.1 763.55 294.6 821 436.5 821 c 1
 420.3 719 l 1
 361.4 719.65 324.8 695.4 310.8 607 c 2
 279.4 406 l 2
 270 348.9 227.3 321.9 172.35 314.3 c 1
 224.95 305.2 257 270.25 249.3 223 c 2
 212.1 -7.85 l 2
 196.9 -102.75 222.8 -135.1 285.7 -132.5 c 1
 269.85 -231 l 1
 115.3 -231 75.95 -131.55 94 -21.85 c 2
 132.25 213.75 l 2
 138.55 252.95 101.75 276.25 61.75 273.25 c 1
EndSplineSet
EndChar

StartChar: braceright
Encoding: 125 125 206
Width: 317
VWidth: 39
Flags: HW
LayerCount: 2
Fore
SplineSet
-16.15 -231 m 1
 -0.3 -132.5 l 1
 60 -133.15 95.25 -104.7 107.85 -25.4 c 2
 143.75 197.65 l 2
 152.1 248.8 194.15 277.9 249.45 288.3 c 1
 196.5 294.6 164.4 327.45 173.15 380.65 c 2
 206.5 589.45 l 2
 223.1 693.45 195.8 721.6 134.3 719 c 1
 150.85 821 l 1
 301.2 821 340.2 715.6 322.5 607.3 c 1
 289.85 388.5 l 2
 283.9 347.9 323.15 328.1 360.7 329 c 1
 345.85 237.5 l 1
 309.75 237.9 266 236.05 258.7 191 c 2
 218.6 -53.4 l 2
 198.2 -175.65 129.95 -231 -16.15 -231 c 1
EndSplineSet
EndChar

StartChar: at
Encoding: 64 64 207
Width: 886
VWidth: 0
Flags: HW
LayerCount: 2
Fore
SplineSet
359.1 261 m 0
 344.6 149.25 353.7 94.1 428.9 94.5 c 0
 483.9 94.55 523.45 109.7 567.1 158 c 1
 610.4 435.05 l 1
 561.25 446.85 521.6 447.2 485.9 447.2 c 0
 432.15 447.2 379.3 414.85 359.1 261 c 0
55.6 26.5 m 2
 133.8 521 l 2
 154.05 646.25 226.7 713 370.65 713 c 2
 738.65 713 l 2
 870.3 713 911.05 626.3 892.3 500 c 2
 842.1 163.5 l 2
 831.95 94.45 802.05 3 658.05 3 c 2
 579.55 3 l 1
 556.2 59.5 l 1
 530.8 29.35 487.55 -4.05 414.55 -4 c 0
 298.65 -3.9 231 71.45 262.55 280.95 c 0
 296.55 502.3 403.55 544.7 488.05 544.7 c 0
 575.5 544.7 663.7 529.25 714.7 480.25 c 1
 659.9 101.5 l 1
 707.9 101.5 733.75 110.5 746.4 191.5 c 2
 793.45 507 l 2
 808.4 609.05 770.15 613.5 719.3 613.5 c 2
 351.3 613.5 l 2
 256.3 613.5 238.35 547.1 231.95 507 c 2
 154.8 19.5 l 2
 145.8 -37.5 154.85 -87.5 240.85 -87.5 c 2
 626.85 -87.5 l 1
 615 -159 l 1
 565 -169 449 -186 323 -186 c 2
 228.5 -186 l 2
 86.35 -186 37.9 -86.8 55.6 26.5 c 2
EndSplineSet
Substitution2: "'case' Case-Sensitive Forms lookup 1-1" at.alt
Substitution2: "'smcp' Lowercase to Small Capitals lookup 16-1" at.smcp
EndChar

StartChar: breve
Encoding: 293 728 208
Width: 251
VWidth: 0
Flags: HW
LayerCount: 2
Fore
SplineSet
57.25 644 m 1
 110.6 644 l 1
 105.65 605.55 128.4 583.35 161.05 583.35 c 0
 202.3 582.7 226.05 601.05 231.95 644 c 1
 285.3 644 l 1
 276.05 567.55 230.4 530.7 160.7 530.7 c 0
 102.1 530.7 51.25 572.1 57.25 644 c 1
EndSplineSet
EndChar

StartChar: ogonek
Encoding: 294 731 209
Width: 222
VWidth: 0
Flags: HW
HStem: -184.5 70.5<220.173 259.9> -20 20G<155.35 282.75> -20 20G<155.35 282.75>
LayerCount: 2
Fore
SplineSet
233.25 0 m 1
 282.75 0 l 1
 192.55 -62.75 204.4 -118.7 271.3 -114 c 1
 259.9 -184.5 l 1
 146.8 -206.8 77.45 -68.9 233.25 0 c 1
EndSplineSet
EndChar

StartChar: caron
Encoding: 295 711 210
Width: 375
VWidth: 0
Flags: HW
LayerCount: 2
Fore
SplineSet
24.65 664.5 m 1
 105.75 664.5 l 1
 155.05 592.7 l 1
 232.45 664.5 l 1
 327.15 664.5 l 1
 194.75 531 l 1
 104.5 531 l 1
 24.65 664.5 l 1
EndSplineSet
Substitution2: "'smcp' Lowercase to Small Capitals lookup 16-1" caron.smcp
EndChar

StartChar: hungarumlaut
Encoding: 296 733 211
Width: 463
VWidth: 0
Flags: HW
LayerCount: 2
Fore
SplineSet
295.3 531 m 1
 413.5 667.5 l 1
 526 667.5 l 1
 378.3 531 l 1
 295.3 531 l 1
147 531 m 1
 265.2 667.5 l 1
 377.7 667.5 l 1
 230 531 l 1
 147 531 l 1
EndSplineSet
EndChar

StartChar: dotaccent
Encoding: 297 729 212
Width: 137
VWidth: 0
Flags: HW
LayerCount: 2
Fore
SplineSet
100.85 549 m 2
 111.95 617 l 2
 113.95 632 123.95 642 139.95 642 c 2
 203.95 642 l 2
 218.95 642 224.95 631 222.95 617 c 2
 211.85 549 l 2
 209.85 534 199.85 526 185.85 526 c 2
 121.85 526 l 2
 107.85 526 98.85 535 100.85 549 c 2
EndSplineSet
EndChar

StartChar: Aogonek
Encoding: 298 260 213
Width: 741
VWidth: 0
Flags: HW
LayerCount: 2
Fore
SplineSet
372.2 283.25 m 1
 567.55 283.25 l 1
 518.55 579.35 l 1
 372.2 283.25 l 1
104.3 0 m 1
 475.3 732 l 1
 603.55 732 l 1
 732.3 0 l 1
 701.048 -6.59335e-09 l 1
 611.394 -62.608 623.324 -118.341 690.1 -113.65 c 1
 678.7 -184.15 l 1
 565.791 -206.413 496.484 -69.015 651.263 2.91775e-06 c 1
 613.9 0 l 1
 581.2 177.4 l 1
 322.35 177.4 l 1
 232.2 0 l 1
 104.3 0 l 1
EndSplineSet
Substitution2: "'c2sc' Capitals to Small Capitals in Latin lookup 17 subtable" aogonek.smcp
EndChar

StartChar: Lcaron
Encoding: 299 317 214
Width: 531
VWidth: 0
Flags: HW
LayerCount: 2
Fore
SplineSet
349.05 571 m 1
 359.05 705 l 1
 369.7 772 l 1
 457.7 772 l 1
 447.05 705 l 1
 416.05 571 l 1
 349.05 571 l 1
88.5 136.5 m 2
 184.05 732 l 1
 299.4 732 l 1
 208.35 161 l 2
 200.35 108 234 109 263 109 c 2
 534 109 l 1
 517.05 0 l 1
 213.25 0 l 2
 137.845 0 72.45 35.85 88.5 136.5 c 2
EndSplineSet
Substitution2: "'c2sc' Capitals to Small Capitals in Latin lookup 17 subtable" lcaron.smcp
EndChar

StartChar: Sacute
Encoding: 300 346 215
Width: 576
VWidth: 0
Flags: HW
LayerCount: 2
Fore
SplineSet
364.75 798.35 m 1
 482.95 934.85 l 1
 595.45 934.85 l 1
 447.75 798.35 l 1
 364.75 798.35 l 1
65.9502 19.5 m 1
 80.2002 111.35 l 1
 121.8 106.05 234.2 101 327.2 101 c 0
 368.9 101 433.05 108.1 443.25 173.85 c 2
 451.1 223.65 l 2
 458.7 270.85 455.6 302.75 390.8 302.75 c 2
 275.95 302.75 l 2
 107.05 302.75 106.541 425.26 116.5 490.5 c 2
 126.85 562.8 l 1
 150.1 714.95 245.2 739.55 354.6 738 c 1
 440.85 738.1 557.5 725.5 617.1 710.85 c 1
 602.85 619.65 l 1
 548.3 622.1 384.6 629 361.5 629 c 0
 293.2 631.6 254.35 623.1 242.15 546 c 2
 234.95 499.25 l 2
 222.15 418.85 257.35 418.75 310.7 418.75 c 2
 426.95 418.75 l 2
 560.1 418.75 579.4 314.05 567.45 232.75 c 1
 559.6 166.5 l 1
 541.55 1.90039 411.9 -8 323.95 -8 c 0
 223.905 -8 121.95 3.0498 65.9502 19.5 c 1
EndSplineSet
Substitution2: "'c2sc' Capitals to Small Capitals in Latin lookup 17 subtable" sacute.smcp
EndChar

StartChar: Scaron
Encoding: 301 352 216
Width: 576
VWidth: 0
Flags: HW
LayerCount: 2
Fore
SplineSet
289.086 932.093 m 1
 370.186 932.093 l 1
 419.486 860.293 l 1
 496.886 932.093 l 1
 591.586 932.093 l 1
 459.186 798.593 l 1
 368.936 798.593 l 1
 289.086 932.093 l 1
73.75 19.5 m 1
 88 111.35 l 1
 129.6 106.05 242 101 335 101 c 0
 376.7 101 440.85 108.1 451.05 173.85 c 2
 458.9 223.65 l 2
 466.5 270.85 463.4 302.75 398.6 302.75 c 2
 283.75 302.75 l 2
 114.85 302.75 114.341 425.26 124.3 490.5 c 2
 134.65 562.8 l 1
 157.9 714.95 253 739.55 362.4 738 c 1
 448.65 738.1 565.3 725.5 624.9 710.85 c 1
 610.65 619.65 l 1
 556.1 622.1 392.4 629 369.3 629 c 0
 301 631.6 262.15 623.1 249.95 546 c 2
 242.75 499.25 l 2
 229.95 418.85 265.15 418.75 318.5 418.75 c 2
 434.75 418.75 l 2
 567.9 418.75 587.2 314.05 575.25 232.75 c 1
 567.4 166.5 l 1
 549.35 1.90039 419.7 -8 331.75 -8 c 0
 231.705 -8 129.75 3.0498 73.75 19.5 c 1
EndSplineSet
Substitution2: "'c2sc' Capitals to Small Capitals in Latin lookup 17 subtable" scaron.smcp
EndChar

StartChar: Scedilla
Encoding: 302 350 217
Width: 576
VWidth: 0
Flags: HW
LayerCount: 2
Fore
SplineSet
176.95 -184.5 m 1
 185.4 -132.8 l 1
 234.8 -117.8 l 1
 264.8 -105.8 271.3 -83 277.3 -45 c 1
 361.8 -45 l 1
 345.8 -147 315.65 -184.5 231.45 -184.5 c 2
 176.95 -184.5 l 1
73.75 19.5 m 1
 88 111.35 l 1
 129.6 106.05 242 101 335 101 c 0
 376.7 101 440.85 108.1 451.05 173.85 c 2
 458.9 223.65 l 2
 466.5 270.85 463.4 302.75 398.6 302.75 c 2
 283.75 302.75 l 2
 114.85 302.75 114.341 425.26 124.3 490.5 c 2
 134.65 562.8 l 1
 157.9 714.95 253 739.55 362.4 738 c 1
 448.65 738.1 565.3 725.5 624.9 710.85 c 1
 610.65 619.65 l 1
 556.1 622.1 392.4 629 369.3 629 c 0
 301 631.6 262.15 623.1 249.95 546 c 2
 242.75 499.25 l 2
 229.95 418.85 265.15 418.75 318.5 418.75 c 2
 434.75 418.75 l 2
 567.9 418.75 587.2 314.05 575.25 232.75 c 1
 567.4 166.5 l 1
 549.35 1.90039 419.7 -8 331.75 -8 c 0
 231.705 -8 129.75 3.0498 73.75 19.5 c 1
EndSplineSet
Substitution2: "'c2sc' Capitals to Small Capitals in Latin lookup 17 subtable" scedilla.smcp
EndChar

StartChar: Tcaron
Encoding: 303 356 218
Width: 585
VWidth: 0
Flags: HW
LayerCount: 2
Fore
SplineSet
290.389 930.5 m 1
 371.489 930.5 l 1
 420.789 858.7 l 1
 498.189 930.5 l 1
 592.889 930.5 l 1
 460.489 797 l 1
 370.239 797 l 1
 290.389 930.5 l 1
128.15 623 m 1
 145.75 732 l 1
 674.75 732 l 1
 657.15 623 l 1
 447.65 623 l 1
 349.25 0 l 1
 233.25 0 l 1
 331.65 623 l 1
 128.15 623 l 1
EndSplineSet
Substitution2: "'c2sc' Capitals to Small Capitals in Latin lookup 17 subtable" tcaron.smcp
EndChar

StartChar: Zacute
Encoding: 304 377 219
Width: 559
VWidth: 0
Flags: HW
LayerCount: 2
Fore
SplineSet
431.2 793.75 m 1
 549.4 930.25 l 1
 661.9 930.25 l 1
 514.2 793.75 l 1
 431.2 793.75 l 1
97.3496 0 m 1
 114.95 109 l 1
 551.5 623 l 1
 195.75 623 l 1
 213.35 732 l 1
 713.35 732 l 1
 695.75 623 l 1
 265.85 109 l 1
 614.95 109 l 1
 597.35 0 l 1
 97.3496 0 l 1
EndSplineSet
Substitution2: "'c2sc' Capitals to Small Capitals in Latin lookup 17 subtable" zacute.smcp
EndChar

StartChar: Zcaron
Encoding: 305 381 220
Width: 559
VWidth: 0
Flags: HW
LayerCount: 2
Fore
SplineSet
276.064 930.5 m 1
 357.164 930.5 l 1
 406.464 858.7 l 1
 483.864 930.5 l 1
 578.564 930.5 l 1
 446.164 797 l 1
 355.914 797 l 1
 276.064 930.5 l 1
29.75 0 m 1
 47.3496 109 l 1
 483.9 623 l 1
 128.15 623 l 1
 145.75 732 l 1
 645.75 732 l 1
 628.15 623 l 1
 198.25 109 l 1
 547.35 109 l 1
 529.75 0 l 1
 29.75 0 l 1
EndSplineSet
Substitution2: "'c2sc' Capitals to Small Capitals in Latin lookup 17 subtable" zcaron.smcp
EndChar

StartChar: Zdotaccent
Encoding: 306 379 221
Width: 559
VWidth: 0
Flags: HW
LayerCount: 2
Fore
SplineSet
354.174 820 m 2
 365.274 888 l 2
 367.274 903 377.274 913 393.274 913 c 2
 457.274 913 l 2
 472.274 913 478.274 902 476.274 888 c 2
 465.174 820 l 2
 463.174 805 453.174 797 439.174 797 c 2
 375.174 797 l 2
 361.174 797 352.174 806 354.174 820 c 2
29.75 0 m 1
 47.3496 109 l 1
 483.9 623 l 1
 128.15 623 l 1
 145.75 732 l 1
 645.75 732 l 1
 628.15 623 l 1
 198.25 109 l 1
 547.35 109 l 1
 529.75 0 l 1
 29.75 0 l 1
EndSplineSet
Substitution2: "'c2sc' Capitals to Small Capitals in Latin lookup 17 subtable" zdotaccent.smcp
EndChar

StartChar: aogonek
Encoding: 307 261 222
Width: 504
VWidth: 0
Flags: HW
LayerCount: 2
Fore
SplineSet
418 0.349609 m 1
 467.5 0.349609 l 1
 377.3 -62.4004 389.15 -118.35 456.05 -113.65 c 1
 444.65 -184.15 l 1
 331.55 -206.45 262.2 -68.5498 418 0.349609 c 1
179.5 263.95 m 0
 161.7 149.75 175.45 96.0498 243.65 96.0498 c 0
 308.4 96.0498 345.3 115.05 390.55 145.45 c 1
 433.8 431 l 1
 392 443.85 337.1 449.75 303.45 442.8 c 0
 251.05 432.55 203.85 418.55 179.5 263.95 c 0
66.8506 289.9 m 0
 106.7 508.65 215.2 534.5 304.9 541 c 0
 379.1 546.85 505.65 528 556.65 479 c 1
 486.65 0.700195 l 1
 398.65 0.700195 l 1
 381 57.2002 l 1
 353.75 29.4502 279.7 -6.2998 211.1 -6.2998 c 0
 103.75 -6.2998 25.7998 62.9004 66.8506 289.9 c 0
EndSplineSet
AlternateSubs2: "'salt' Access All Alternates in Latin lookup 4-1" aogonek.salt
Substitution2: "'smcp' Lowercase to Small Capitals lookup 16-1" aogonek.smcp
EndChar

StartChar: lcaron
Encoding: 308 318 223
Width: 340
VWidth: 0
Flags: HW
LayerCount: 2
Fore
SplineSet
337.55 580.35 m 1
 347.55 714.35 l 1
 358.55 781.35 l 1
 446.55 781.35 l 1
 435.55 714.35 l 1
 404.55 580.35 l 1
 337.55 580.35 l 1
79.55 189 m 2
 173.55 783 l 1
 289.55 783 l 1
 197.65 203 l 2
 183.4 114.5 199.65 105.05 232 95 c 2
 232 95 293.75 75.95 296.85 75.95 c 1
 284.7 0 l 1
 199.2 0 l 2
 112 0 57.55 48.65 79.55 189 c 2
EndSplineSet
Substitution2: "'smcp' Lowercase to Small Capitals lookup 16-1" lcaron.smcp
EndChar

StartChar: sacute
Encoding: 309 347 224
Width: 508
VWidth: 0
Flags: HW
LayerCount: 2
Fore
SplineSet
309.8 600.3 m 1
 428 736.8 l 1
 540.5 736.8 l 1
 392.8 600.3 l 1
 309.8 600.3 l 1
70.4502 17.0498 m 1
 82.5996 92.7002 l 1
 341.55 92.7002 l 2
 347.5 92.7002 383.65 91.25 390.85 133.75 c 2
 397.05 170.6 l 2
 401.65 197.55 394.75 212.65 360.55 212.65 c 2
 231.1 212.65 l 2
 137.1 212.65 85 256.95 101 358 c 2
 109 407.25 l 2
 122.65 491.85 166.05 539.25 269.05 539.25 c 0
 352.9 539.25 498.4 533.15 540.65 516.25 c 1
 528.5 439.3 l 1
 280.8 439.3 l 2
 234.65 439.3 226.95 413.95 223.95 394.65 c 2
 218.4 359.4 l 2
 210.2 310.25 238.75 316.75 261.15 316.75 c 2
 393.65 316.75 l 2
 489.75 316.75 527.15 251.9 514.8 175.5 c 1
 505.8 113.9 l 1
 488.8 4.90039 413.2 -8.25 354.4 -8.25 c 0
 272.5 -8.25 105 0.0996094 70.4502 17.0498 c 1
EndSplineSet
Substitution2: "'smcp' Lowercase to Small Capitals lookup 16-1" sacute.smcp
EndChar

StartChar: scaron
Encoding: 310 353 225
Width: 508
VWidth: 0
Flags: HW
LayerCount: 2
Fore
SplineSet
212.4 733.8 m 1
 293.5 733.8 l 1
 342.8 662 l 1
 420.2 733.8 l 1
 514.9 733.8 l 1
 382.5 600.3 l 1
 292.25 600.3 l 1
 212.4 733.8 l 1
58.75 17.0498 m 1
 70.9004 92.7002 l 1
 329.85 92.7002 l 2
 335.8 92.7002 371.95 91.25 379.15 133.75 c 2
 385.35 170.6 l 2
 389.95 197.55 383.05 212.65 348.85 212.65 c 2
 219.4 212.65 l 2
 125.4 212.65 73.2998 256.95 89.2998 358 c 2
 97.2998 407.25 l 2
 110.95 491.85 154.35 539.25 257.35 539.25 c 0
 341.2 539.25 486.7 533.15 528.95 516.25 c 1
 516.8 439.3 l 1
 269.1 439.3 l 2
 222.95 439.3 215.25 413.95 212.25 394.65 c 2
 206.7 359.4 l 2
 198.5 310.25 227.05 316.75 249.45 316.75 c 2
 381.95 316.75 l 2
 478.05 316.75 515.45 251.9 503.1 175.5 c 1
 494.1 113.9 l 1
 477.1 4.90039 401.5 -8.25 342.7 -8.25 c 0
 260.8 -8.25 93.2998 0.0996094 58.75 17.0498 c 1
EndSplineSet
Substitution2: "'smcp' Lowercase to Small Capitals lookup 16-1" scaron.smcp
EndChar

StartChar: scedilla
Encoding: 311 351 226
Width: 508
VWidth: 0
Flags: HW
LayerCount: 2
Fore
SplineSet
132.3 -178.5 m 1
 140.75 -126.8 l 1
 190.15 -111.8 l 1
 220.15 -99.7998 226.65 -77 232.65 -39 c 1
 317.15 -39 l 1
 301.15 -141 271 -178.5 186.8 -178.5 c 2
 132.3 -178.5 l 1
58.75 17.0498 m 1
 70.9004 92.7002 l 1
 329.85 92.7002 l 2
 335.8 92.7002 371.95 91.25 379.15 133.75 c 2
 385.35 170.6 l 2
 389.95 197.55 383.05 212.65 348.85 212.65 c 2
 219.4 212.65 l 2
 125.4 212.65 73.2998 256.95 89.2998 358 c 2
 97.2998 407.25 l 2
 110.95 491.85 154.35 539.25 257.35 539.25 c 0
 341.2 539.25 486.7 533.15 528.95 516.25 c 1
 516.8 439.3 l 1
 269.1 439.3 l 2
 222.95 439.3 215.25 413.95 212.25 394.65 c 2
 206.7 359.4 l 2
 198.5 310.25 227.05 316.75 249.45 316.75 c 2
 381.95 316.75 l 2
 478.05 316.75 515.45 251.9 503.1 175.5 c 1
 494.1 113.9 l 1
 477.1 4.90039 401.5 -8.25 342.7 -8.25 c 0
 260.8 -8.25 93.2998 0.0996094 58.75 17.0498 c 1
EndSplineSet
Substitution2: "'smcp' Lowercase to Small Capitals lookup 16-1" scedilla.smcp
EndChar

StartChar: tcaron
Encoding: 312 357 227
Width: 400
VWidth: 0
Flags: HW
LayerCount: 2
Fore
SplineSet
364.4 599.35 m 1
 375.7 733.35 l 1
 385.4 800.35 l 1
 474.05 800.35 l 1
 463.7 733.35 l 1
 431.4 599.35 l 1
 364.4 599.35 l 1
67.5 437 m 1
 78.6 507 l 1
 173.25 532 l 1
 218.1 680 l 1
 312.6 680 l 1
 289.25 532 l 1
 421.15 532 l 1
 406 437 l 1
 274.1 437 l 1
 237.35 204 l 2
 223.75 114.8 238.35 105.35 270.7 95.3 c 2
 270.7 95.3 332.45 76.25 335.55 76.25 c 1
 324.05 0.3 l 1
 237.85 0.3 l 2
 155.9 0.3 97.25 49.65 119.25 190 c 2
 158.1 437 l 1
 67.5 437 l 1
EndSplineSet
AlternateSubs2: "'salt' Access All Alternates in Latin lookup 4-1" tcaron.salt
Substitution2: "'smcp' Lowercase to Small Capitals lookup 16-1" tcaron.smcp
EndChar

StartChar: zacute
Encoding: 313 378 228
Width: 467
VWidth: 0
Flags: HW
LayerCount: 2
Fore
SplineSet
316.85 593.8 m 1
 435.05 730.3 l 1
 547.55 730.3 l 1
 399.85 593.8 l 1
 316.85 593.8 l 1
71 1 m 1
 85.25 102.3 l 1
 391.05 429 l 1
 125.1 429 l 1
 140 531 l 1
 557 531 l 1
 542.1 429 l 1
 245.8 103 l 1
 488.55 103 l 1
 489.55 102 473 1 473 1 c 1
 71 1 l 1
EndSplineSet
Substitution2: "'smcp' Lowercase to Small Capitals lookup 16-1" zacute.smcp
EndChar

StartChar: zcaron
Encoding: 314 382 229
Width: 467
VWidth: 0
Flags: HW
LayerCount: 2
Fore
SplineSet
198.439 730.55 m 1
 279.539 730.55 l 1
 328.839 658.75 l 1
 406.239 730.55 l 1
 500.939 730.55 l 1
 368.539 597.05 l 1
 278.289 597.05 l 1
 198.439 730.55 l 1
40.4502 1 m 1
 54.7002 102.3 l 1
 360.5 429 l 1
 94.5498 429 l 1
 109.45 531 l 1
 526.45 531 l 1
 511.55 429 l 1
 215.25 103 l 1
 458 103 l 1
 459 102 442.45 1 442.45 1 c 1
 40.4502 1 l 1
EndSplineSet
Substitution2: "'smcp' Lowercase to Small Capitals lookup 16-1" zcaron.smcp
EndChar

StartChar: zdotaccent
Encoding: 315 380 230
Width: 467
VWidth: 0
Flags: HW
LayerCount: 2
Fore
SplineSet
276.549 620.05 m 2
 287.649 688.05 l 2
 289.649 703.05 299.649 713.05 315.649 713.05 c 2
 379.649 713.05 l 2
 394.649 713.05 400.649 702.05 398.649 688.05 c 2
 387.549 620.05 l 2
 385.549 605.05 375.549 597.05 361.549 597.05 c 2
 297.549 597.05 l 2
 283.549 597.05 274.549 606.05 276.549 620.05 c 2
40.4502 1 m 1
 54.7002 102.3 l 1
 360.5 429 l 1
 94.5498 429 l 1
 109.45 531 l 1
 526.45 531 l 1
 511.55 429 l 1
 215.25 103 l 1
 458 103 l 1
 459 102 442.45 1 442.45 1 c 1
 40.4502 1 l 1
EndSplineSet
Substitution2: "'smcp' Lowercase to Small Capitals lookup 16-1" zdotaccent.smcp
EndChar

StartChar: Racute
Encoding: 316 340 231
Width: 606
VWidth: 0
Flags: HW
LayerCount: 2
Fore
SplineSet
372.123 795.25 m 1
 490.323 931.75 l 1
 602.823 931.75 l 1
 455.123 795.25 l 1
 372.123 795.25 l 1
238.4 388.45 m 1
 419.65 388.45 l 2
 473.25 388.45 513.1 418.35 521.75 506.75 c 0
 531.35 607.95 509.75 625.5 460.55 625.5 c 2
 276.05 625.5 l 1
 238.4 388.45 l 1
59.9502 0 m 1
 175.95 732 l 1
 486.2 732 l 2
 586.95 732 659.95 670.25 638.75 498 c 0
 616.6 312.3 518.55 297.95 485.35 293.25 c 1
 589.95 0 l 1
 459.95 0 l 1
 369.35 285.25 l 1
 222.85 295.75 l 1
 175.95 0 l 1
 59.9502 0 l 1
EndSplineSet
Substitution2: "'c2sc' Capitals to Small Capitals in Latin lookup 17 subtable" racute.smcp
EndChar

StartChar: Abreve
Encoding: 317 258 232
Width: 677
VWidth: 0
Flags: HW
LayerCount: 2
Fore
SplineSet
387.616 910.3 m 1
 440.966 910.3 l 1
 436.016 871.85 458.766 849.65 491.416 849.65 c 0
 532.666 849 556.416 867.35 562.316 910.3 c 1
 615.666 910.3 l 1
 606.416 833.85 560.766 797 491.066 797 c 0
 432.466 797 381.616 838.4 387.616 910.3 c 1
305.9 283.25 m 1
 501.25 283.25 l 1
 452.25 579.35 l 1
 305.9 283.25 l 1
38 0 m 1
 409 732 l 1
 537.25 732 l 1
 666 0 l 1
 547.6 0 l 1
 514.9 177.4 l 1
 256.05 177.4 l 1
 165.9 0 l 1
 38 0 l 1
EndSplineSet
Substitution2: "'c2sc' Capitals to Small Capitals in Latin lookup 17 subtable" abreve.smcp
EndChar

StartChar: Lacute
Encoding: 318 313 233
Width: 531
VWidth: 0
Flags: HW
LayerCount: 2
Fore
SplineSet
153.25 792 m 1
 271.45 928.5 l 1
 383.95 928.5 l 1
 236.25 792 l 1
 153.25 792 l 1
33.8496 136.5 m 2
 129.4 732 l 1
 244.75 732 l 1
 153.7 161 l 2
 145.7 108 179.35 109 208.35 109 c 2
 479.35 109 l 1
 462.4 0 l 1
 158.6 0 l 2
 83.2002 0 17.7998 35.8496 33.8496 136.5 c 2
EndSplineSet
Substitution2: "'c2sc' Capitals to Small Capitals in Latin lookup 17 subtable" lacute.smcp
EndChar

StartChar: Cacute
Encoding: 319 262 234
Width: 573
VWidth: 0
Flags: HW
LayerCount: 2
Fore
SplineSet
407.709 800 m 1
 525.909 936.5 l 1
 638.409 936.5 l 1
 490.709 800 l 1
 407.709 800 l 1
105.55 378.85 m 0
 143.5 612.5 211.4 740 410.4 740 c 0
 494.6 740 584.15 726.15 656.7 706.5 c 1
 642.45 615.3 l 1
 627.8 617.25 513.9 632.3 416.1 631 c 0
 350.95 630.35 263.95 635 221.55 366 c 1
 194.25 203.3 217 108.85 328.4 103 c 1
 393.75 101.05 472.3 104.85 564.6 111.35 c 1
 551 20.1504 l 1
 472.65 -3.90039 389.05 -7.0498 295 -6 c 0
 107.75 -4.9502 74.0498 182.25 105.55 378.85 c 0
EndSplineSet
Substitution2: "'c2sc' Capitals to Small Capitals in Latin lookup 17 subtable" cacute.smcp
EndChar

StartChar: Ccaron
Encoding: 320 268 235
Width: 573
VWidth: 0
Flags: HW
LayerCount: 2
Fore
SplineSet
326.824 933.5 m 1
 407.924 933.5 l 1
 457.224 861.7 l 1
 534.624 933.5 l 1
 629.324 933.5 l 1
 496.924 800 l 1
 406.674 800 l 1
 326.824 933.5 l 1
105.55 378.85 m 0
 143.5 612.5 211.4 740 410.4 740 c 0
 494.6 740 584.15 726.15 656.7 706.5 c 1
 642.45 615.3 l 1
 627.8 617.25 513.9 632.3 416.1 631 c 0
 350.95 630.35 263.95 635 221.55 366 c 1
 194.25 203.3 217 108.85 328.4 103 c 1
 393.75 101.05 472.3 104.85 564.6 111.35 c 1
 551 20.1504 l 1
 472.65 -3.90039 389.05 -7.0498 295 -6 c 0
 107.75 -4.9502 74.0498 182.25 105.55 378.85 c 0
EndSplineSet
Substitution2: "'c2sc' Capitals to Small Capitals in Latin lookup 17 subtable" ccaron.smcp
EndChar

StartChar: Eogonek
Encoding: 321 280 236
Width: 559
VWidth: 0
Flags: HW
LayerCount: 2
Fore
SplineSet
89.3496 140.5 m 2
 160.8 591.5 l 2
 179.25 705.6 250.35 734.6 330.9 732 c 1
 330.9 732 601.15 721.6 641.4 716 c 1
 626.45 621.25 l 1
 333.95 621.25 l 2
 284.55 621.25 277.3 592.25 273.3 565.25 c 2
 250.4 421.25 l 1
 549.7 410.9 l 1
 534.1 316.2 l 1
 232.45 306.55 l 1
 208.85 159.75 l 2
 201.15 106.75 234.5 107.75 263.5 107.75 c 2
 546 107.75 l 1
 530.4 14 l 2
 530.26 13.9815 530.116 13.9628 529.969 13.9441 c 0
 439.857 -48.7832 451.72 -104.699 518.6 -100 c 1
 507.2 -170.5 l 1
 396.5 -192.326 327.714 -60.682 470.932 9.52171 c 1
 380.019 4.01181 223.9 -3 223.9 -3 c 0
 154.983 -6.41699 71.2002 25.8496 89.3496 140.5 c 2
EndSplineSet
Substitution2: "'c2sc' Capitals to Small Capitals in Latin lookup 17 subtable" eogonek.smcp
EndChar

StartChar: Ecaron
Encoding: 322 282 237
Width: 562
VWidth: 0
Flags: HW
LayerCount: 2
Fore
SplineSet
311.149 930.5 m 1
 392.249 930.5 l 1
 441.549 858.7 l 1
 518.949 930.5 l 1
 613.649 930.5 l 1
 481.249 797 l 1
 390.999 797 l 1
 311.149 930.5 l 1
86.0996 140.5 m 2
 157.55 591.5 l 2
 176 705.6 247.1 734.6 327.65 732 c 1
 327.65 732 597.9 721.6 638.15 716 c 1
 623.2 621.25 l 1
 330.7 621.25 l 2
 281.3 621.25 274.05 592.25 270.05 565.25 c 2
 247.15 421.25 l 1
 546.45 410.9 l 1
 530.85 316.2 l 1
 229.2 306.55 l 1
 205.6 159.75 l 2
 197.9 106.75 231.25 107.75 260.25 107.75 c 2
 542.75 107.75 l 1
 527.15 14 l 1
 490.05 9.09961 220.65 -3 220.65 -3 c 2
 151.733 -6.41699 67.9502 25.8496 86.0996 140.5 c 2
EndSplineSet
Substitution2: "'c2sc' Capitals to Small Capitals in Latin lookup 17 subtable" ecaron.smcp
EndChar

StartChar: Dcaron
Encoding: 323 270 238
Width: 660
VWidth: 0
Flags: HW
LayerCount: 2
Fore
SplineSet
322.85 927.25 m 1
 403.95 927.25 l 1
 453.25 855.45 l 1
 530.65 927.25 l 1
 625.35 927.25 l 1
 492.95 793.75 l 1
 402.7 793.75 l 1
 322.85 927.25 l 1
211.05 107.45 m 1
 376.8 107.45 l 2
 483.7 107.45 543.5 217.8 566.8 364 c 0
 597.75 558.65 557.7 626.5 455.5 626.5 c 2
 293.25 626.5 l 1
 211.05 107.45 l 1
78.1504 0 m 1
 194.15 731.35 l 2
 194.15 732 443.2 732 482.2 732 c 0
 698.1 732 708.3 510.2 682.45 352.5 c 0
 644.05 116.05 553.45 0 372.15 0 c 2
 78.1504 0 l 1
EndSplineSet
Substitution2: "'c2sc' Capitals to Small Capitals in Latin lookup 17 subtable" dcaron.smcp
EndChar

StartChar: Nacute
Encoding: 324 323 239
Width: 665
VWidth: 0
Flags: HW
LayerCount: 2
Fore
SplineSet
426.048 797 m 1
 544.248 933.5 l 1
 656.748 933.5 l 1
 509.048 797 l 1
 426.048 797 l 1
67.75 0 m 1
 183.75 732 l 1
 299.15 732 l 1
 533 213.25 l 1
 614.75 732 l 1
 730.75 732 l 1
 614.75 0 l 1
 501.35 0 l 1
 266.15 515.25 l 1
 184.75 0 l 1
 67.75 0 l 1
EndSplineSet
AlternateSubs2: "'salt' Access All Alternates in Latin lookup 4-1" Nacute.salt
Substitution2: "'c2sc' Capitals to Small Capitals in Latin lookup 17 subtable" nacute.smcp
EndChar

StartChar: Ncaron
Encoding: 325 327 240
Width: 665
VWidth: 0
Flags: HW
LayerCount: 2
Fore
SplineSet
337.564 930.5 m 1
 418.664 930.5 l 1
 467.964 858.7 l 1
 545.364 930.5 l 1
 640.064 930.5 l 1
 507.664 797 l 1
 417.414 797 l 1
 337.564 930.5 l 1
67.75 0 m 1
 183.75 732 l 1
 299.15 732 l 1
 533 213.25 l 1
 614.75 732 l 1
 730.75 732 l 1
 614.75 0 l 1
 501.35 0 l 1
 266.15 515.25 l 1
 184.75 0 l 1
 67.75 0 l 1
EndSplineSet
AlternateSubs2: "'salt' Access All Alternates in Latin lookup 4-1" Ncaron.salt
Substitution2: "'c2sc' Capitals to Small Capitals in Latin lookup 17 subtable" ncaron.smcp
EndChar

StartChar: Ohungarumlaut
Encoding: 326 336 241
Width: 666
VWidth: 0
Flags: HW
LayerCount: 2
Fore
SplineSet
493.234 797 m 1
 611.434 933.5 l 1
 723.934 933.5 l 1
 576.234 797 l 1
 493.234 797 l 1
344.934 797 m 1
 463.134 933.5 l 1
 575.634 933.5 l 1
 427.934 797 l 1
 344.934 797 l 1
223.65 361 m 0
 188.6 140.4 225.1 105 356.9 105 c 0
 479.3 105 537.55 144.9 571.65 361 c 0
 611.65 614.85 552.5 628 440.05 628 c 0
 322.8 628 264 618 223.65 361 c 0
107.65 369.75 m 0
 161.65 712.75 278.25 737 450.8 737 c 0
 624.45 737 739.05 687.45 687.65 352.25 c 0
 637.95 29.25 521.6 -4 346.15 -4 c 0
 177.85 -4 54.6504 36.75 107.65 369.75 c 0
EndSplineSet
Substitution2: "'c2sc' Capitals to Small Capitals in Latin lookup 17 subtable" ohungarumlaut.smcp
EndChar

StartChar: Rcaron
Encoding: 327 344 242
Width: 606
VWidth: 0
Flags: HW
LayerCount: 2
Fore
SplineSet
293.539 930.5 m 1
 374.639 930.5 l 1
 423.939 858.7 l 1
 501.339 930.5 l 1
 596.039 930.5 l 1
 463.639 797 l 1
 373.389 797 l 1
 293.539 930.5 l 1
242.6 388.45 m 1
 423.85 388.45 l 2
 477.45 388.45 517.3 418.35 525.95 506.75 c 0
 535.55 607.95 513.95 625.5 464.75 625.5 c 2
 280.25 625.5 l 1
 242.6 388.45 l 1
64.1504 0 m 1
 180.15 732 l 1
 490.4 732 l 2
 591.15 732 664.15 670.25 642.95 498 c 0
 620.8 312.3 522.75 297.95 489.55 293.25 c 1
 594.15 0 l 1
 464.15 0 l 1
 373.55 285.25 l 1
 227.05 295.75 l 1
 180.15 0 l 1
 64.1504 0 l 1
EndSplineSet
Substitution2: "'c2sc' Capitals to Small Capitals in Latin lookup 17 subtable" rcaron.smcp
EndChar

StartChar: Uring
Encoding: 328 366 243
Width: 654
VWidth: 0
Flags: HW
LayerCount: 2
Fore
SplineSet
430.304 898.3 m 0
 427.898 872.15 447.683 851.65 473.833 851.65 c 0
 499.983 851.65 522.198 872.15 524.604 898.3 c 0
 527.011 924.45 508.282 945.95 482.132 945.95 c 0
 455.982 945.95 432.711 924.45 430.304 898.3 c 0
375.954 898.3 m 0
 380.945 955.3 430.262 1000.25 486.262 1000.25 c 0
 542.262 1000.25 583.945 955.3 578.954 898.3 c 0
 573.963 841.3 526.054 797 470.054 797 c 0
 414.054 797 370.963 841.3 375.954 898.3 c 0
116.15 318.8 m 2
 182.05 732 l 1
 298.7 732 l 1
 231.75 308.3 l 2
 207 151.9 238.35 104 349.6 104 c 0
 465.25 104 513 161.1 536.1 308.3 c 2
 603.05 732 l 1
 720.05 732 l 1
 654.85 297.8 l 1
 622.05 91.7998 536.2 -5 335.9 -5 c 0
 181.7 -5 74.8496 58.5996 116.15 318.8 c 2
EndSplineSet
Substitution2: "'c2sc' Capitals to Small Capitals in Latin lookup 17 subtable" uring.smcp
EndChar

StartChar: Uhungarumlaut
Encoding: 329 368 244
Width: 654
VWidth: 0
Flags: HW
LayerCount: 2
Fore
SplineSet
494.173 797 m 1
 612.373 933.5 l 1
 724.873 933.5 l 1
 577.173 797 l 1
 494.173 797 l 1
345.873 797 m 1
 464.073 933.5 l 1
 576.573 933.5 l 1
 428.873 797 l 1
 345.873 797 l 1
116.15 318.8 m 2
 182.05 732 l 1
 298.7 732 l 1
 231.75 308.3 l 2
 207 151.9 238.35 104 349.6 104 c 0
 465.25 104 513 161.1 536.1 308.3 c 2
 603.05 732 l 1
 720.05 732 l 1
 654.85 297.8 l 1
 622.05 91.7998 536.2 -5 335.9 -5 c 0
 181.7 -5 74.8496 58.5996 116.15 318.8 c 2
EndSplineSet
Substitution2: "'c2sc' Capitals to Small Capitals in Latin lookup 17 subtable" uhungarumlaut.smcp
EndChar

StartChar: Tcommaaccent
Encoding: 330 354 245
Width: 585
VWidth: 0
Flags: HW
LayerCount: 2
Fore
SplineSet
121.45 -183.6 m 1
 129.9 -131.9 l 1
 179.3 -116.9 l 1
 209.3 -104.9 215.8 -82.0996 221.8 -44.0996 c 1
 306.3 -44.0996 l 1
 290.3 -146.1 260.15 -183.6 175.95 -183.6 c 2
 121.45 -183.6 l 1
107.1 623 m 1
 124.7 732 l 1
 653.7 732 l 1
 636.1 623 l 1
 426.6 623 l 1
 328.2 0 l 1
 212.2 0 l 1
 310.6 623 l 1
 107.1 623 l 1
EndSplineSet
Substitution2: "'c2sc' Capitals to Small Capitals in Latin lookup 17 subtable" tcommaaccent.smcp
EndChar

StartChar: racute
Encoding: 331 341 246
Width: 421
VWidth: 0
Flags: HW
LayerCount: 2
Fore
SplineSet
330 597.7 m 1
 448.2 734.2 l 1
 560.7 734.2 l 1
 413 597.7 l 1
 330 597.7 l 1
102.25 0 m 1
 186.25 531 l 1
 280.25 531 l 1
 291.25 464 l 1
 342.85 499.35 400.35 536.65 472.2 536.65 c 0
 497.35 536.65 523.35 535.35 535.75 529.7 c 1
 517.8 417.15 l 1
 504.4 419.1 472.4 421.05 442.7 421.05 c 0
 376.7 421.05 333.05 407.4 275.6 362.35 c 1
 218.25 0 l 1
 102.25 0 l 1
EndSplineSet
AlternateSubs2: "'salt' Access All Alternates in Latin lookup 4-1" racute.salt
Substitution2: "'smcp' Lowercase to Small Capitals lookup 16-1" racute.smcp
EndChar

StartChar: abreve
Encoding: 332 259 247
Width: 541
VWidth: 0
Flags: HW
LayerCount: 2
Fore
SplineSet
259.11 716.282 m 1
 312.46 716.282 l 1
 307.51 677.832 330.26 655.632 362.91 655.632 c 0
 404.16 654.982 427.91 673.332 433.81 716.282 c 1
 487.16 716.282 l 1
 477.91 639.832 432.26 602.982 362.56 602.982 c 0
 303.96 602.982 253.11 644.382 259.11 716.282 c 1
193.8 263.95 m 0
 176 149.75 189.75 96.0498 257.95 96.0498 c 0
 322.7 96.0498 359.6 115.05 404.85 145.45 c 1
 448.1 431 l 1
 406.3 443.85 351.4 449.75 317.75 442.8 c 0
 265.35 432.55 218.15 418.55 193.8 263.95 c 0
81.1504 289.9 m 0
 121 508.65 229.5 534.5 319.2 541 c 0
 393.4 546.85 519.95 528 570.95 479 c 1
 500.95 0.700195 l 1
 412.95 0.700195 l 1
 395.3 57.2002 l 1
 368.05 29.4502 294 -6.2998 225.4 -6.2998 c 0
 118.05 -6.2998 40.0996 62.9004 81.1504 289.9 c 0
EndSplineSet
Substitution2: "'smcp' Lowercase to Small Capitals lookup 16-1" abreve.smcp
EndChar

StartChar: lacute
Encoding: 333 314 248
Width: 301
VWidth: 0
Flags: HW
LayerCount: 2
Fore
SplineSet
181.65 843 m 1
 299.85 979.5 l 1
 412.35 979.5 l 1
 264.65 843 l 1
 181.65 843 l 1
61.6504 189 m 2
 155.65 783 l 1
 271.65 783 l 1
 180.1 203 l 2
 165.85 114.5 182.1 105.05 214.45 95 c 2
 214.45 95 275.85 75.9502 278.95 75.9502 c 1
 266.8 0 l 1
 184.8 0 l 2
 89.7998 0 40.9502 55.7998 61.6504 189 c 2
EndSplineSet
Substitution2: "'smcp' Lowercase to Small Capitals lookup 16-1" lacute.smcp
EndChar

StartChar: cacute
Encoding: 334 263 249
Width: 493
VWidth: 0
Flags: HW
LayerCount: 2
Fore
SplineSet
311.45 598.35 m 1
 429.65 734.85 l 1
 542.15 734.85 l 1
 394.45 598.35 l 1
 311.45 598.35 l 1
83.6504 276.5 m 0
 123.8 513.75 204.5 539.05 301.3 539.05 c 0
 353.3 539.05 463.3 527.55 534.8 508.25 c 1
 523.3 433.25 l 1
 523.3 433.25 412.95 440.55 323.95 440.55 c 0
 261.8 440.55 229.4 434.3 198.65 262.7 c 0
 174.45 123.15 201.2 92.2002 268.65 92.2002 c 0
 360.65 92.2002 478 102.15 478 102.15 c 1
 465.85 25.8496 l 1
 385.05 -0.650391 321.65 -7 221.5 -5.65039 c 0
 120.55 -4.65039 49.3496 73.0498 83.6504 276.5 c 0
EndSplineSet
Substitution2: "'smcp' Lowercase to Small Capitals lookup 16-1" cacute.smcp
EndChar

StartChar: ccaron
Encoding: 335 269 250
Width: 493
VWidth: 0
Flags: HW
LayerCount: 2
Fore
SplineSet
235.424 731.85 m 1
 316.524 731.85 l 1
 365.824 660.05 l 1
 443.224 731.85 l 1
 537.924 731.85 l 1
 405.524 598.35 l 1
 315.274 598.35 l 1
 235.424 731.85 l 1
82.3496 276.5 m 0
 122.5 513.75 203.2 539.05 300 539.05 c 0
 352 539.05 462 527.55 533.5 508.25 c 1
 522 433.25 l 1
 522 433.25 411.65 440.55 322.65 440.55 c 0
 260.5 440.55 228.1 434.3 197.35 262.7 c 0
 173.15 123.15 199.9 92.2002 267.35 92.2002 c 0
 359.35 92.2002 476.7 102.15 476.7 102.15 c 1
 464.55 25.8496 l 1
 383.75 -0.650391 320.35 -7 220.2 -5.65039 c 0
 119.25 -4.65039 48.0498 73.0498 82.3496 276.5 c 0
EndSplineSet
Substitution2: "'smcp' Lowercase to Small Capitals lookup 16-1" ccaron.smcp
EndChar

StartChar: eogonek
Encoding: 336 281 251
Width: 526
VWidth: 0
Flags: HW
LayerCount: 2
Fore
SplineSet
202.1 293.25 m 1
 202.1 293.25 416.1 263.65 435.25 375.75 c 0
 445.15 433.1 411.65 442.85 343.65 442.5 c 0
 225.6 441.8 216.9 368.15 202.1 293.25 c 1
84 292 m 0
 115 455 156.5 540.3 351.5 541 c 0
 470.15 541.35 564.15 507.85 553.35 388 c 0
 533.4 154.3 228.65 199.75 191.65 214.75 c 1
 175.55 118.05 194.9 90.9004 265.9 90.25 c 1
 331.4 86.3496 426.75 95.3496 494.6 106 c 1
 481 22 l 1
 390.8 -40.75 402.65 -96.7002 469.55 -92 c 1
 458.15 -162.5 l 1
 354.847 -182.868 288.043 -69.5882 395.964 2.69134 c 1
 339.791 -6.58548 280.317 -9.76821 213.85 -7 c 0
 86.2002 -3.15039 48 98 84 292 c 0
EndSplineSet
Substitution2: "'smcp' Lowercase to Small Capitals lookup 16-1" eogonek.smcp
EndChar

StartChar: ecaron
Encoding: 337 283 252
Width: 526
VWidth: 0
Flags: HW
LayerCount: 2
Fore
SplineSet
237.374 734.5 m 1
 318.474 734.5 l 1
 367.774 662.7 l 1
 445.174 734.5 l 1
 539.874 734.5 l 1
 407.474 601 l 1
 317.224 601 l 1
 237.374 734.5 l 1
200.8 293.25 m 1
 200.8 293.25 414.8 263.65 433.95 375.75 c 0
 443.85 433.1 410.35 442.85 342.35 442.5 c 0
 224.3 441.8 215.6 368.15 200.8 293.25 c 1
82.7002 292 m 0
 113.7 455 155.2 540.3 350.2 541 c 0
 468.85 541.35 562.85 507.85 552.05 388 c 0
 532.1 154.3 227.35 199.75 190.35 214.75 c 1
 174.25 118.05 193.6 90.9004 264.6 90.25 c 1
 330.1 86.3496 425.45 95.3496 493.3 106 c 1
 479.7 22 l 1
 398.15 -1.7002 313.4 -11.2002 212.55 -7 c 1
 84.9004 -3.15039 46.7002 98 82.7002 292 c 0
EndSplineSet
Substitution2: "'smcp' Lowercase to Small Capitals lookup 16-1" ecaron.smcp
EndChar

StartChar: dcaron
Encoding: 338 271 253
Width: 695
VWidth: 0
Flags: HW
LayerCount: 2
Fore
SplineSet
672.9 579.7 m 1
 683.55 713.7 l 1
 693.55 780.7 l 1
 782.2 780.7 l 1
 771.55 713.7 l 1
 739.9 579.7 l 1
 672.9 579.7 l 1
198.7 266.5 m 0
 179.1 147.75 200.2 97.05 253.9 97.05 c 0
 316.1 97.05 367.75 114.4 409.35 134.65 c 1
 454.4 420.1 l 1
 408.7 435.65 366.35 442.25 307.55 442.25 c 0
 258.75 442.25 222.55 412 198.7 266.5 c 0
82 270.35 m 0
 107.8 431.6 151.4 539 299.95 539 c 0
 344.95 539 417.35 526.05 467.9 502.5 c 1
 513.2 785 l 1
 627.9 785 l 1
 503.25 0 l 1
 410.7 0 l 1
 396.5 55.5 l 1
 362.25 31.6 285.95 -6 221.1 -6 c 0
 88.45 -6 57.8 120.7 82 270.35 c 0
EndSplineSet
AlternateSubs2: "'salt' Access All Alternates in Latin lookup 4-1" dcaron.salt
Substitution2: "'smcp' Lowercase to Small Capitals lookup 16-1" dcaron.smcp
EndChar

StartChar: nacute
Encoding: 339 324 254
Width: 547
VWidth: 0
Flags: HW
LayerCount: 2
Fore
SplineSet
332.302 600 m 1
 450.502 736.5 l 1
 563.002 736.5 l 1
 415.302 600 l 1
 332.302 600 l 1
50.9004 0 m 1
 134.9 531 l 1
 225.4 531 l 1
 241.6 472.5 l 1
 298.45 506.1 350.4 540 431.4 540 c 0
 548.6 540 578.55 455.9 563.15 359.5 c 2
 505.9 0 l 1
 389.9 0 l 1
 447.15 360.9 l 2
 456.1 418.5 430.85 441.5 390 441.5 c 0
 325.05 441.5 288.65 425 229.1 391.5 c 1
 166.9 0 l 1
 50.9004 0 l 1
EndSplineSet
AlternateSubs2: "'salt' Access All Alternates in Latin lookup 4-1" nacute.salt
Substitution2: "'smcp' Lowercase to Small Capitals lookup 16-1" nacute.smcp
EndChar

StartChar: ncaron
Encoding: 340 328 255
Width: 547
VWidth: 0
Flags: HW
LayerCount: 2
Fore
SplineSet
246.718 733.5 m 1
 327.818 733.5 l 1
 377.118 661.7 l 1
 454.518 733.5 l 1
 549.218 733.5 l 1
 416.818 600 l 1
 326.568 600 l 1
 246.718 733.5 l 1
50.9004 0 m 1
 134.9 531 l 1
 225.4 531 l 1
 241.6 472.5 l 1
 298.45 506.1 350.4 540 431.4 540 c 0
 548.6 540 578.55 455.9 563.15 359.5 c 2
 505.9 0 l 1
 389.9 0 l 1
 447.15 360.9 l 2
 456.1 418.5 430.85 441.5 390 441.5 c 0
 325.05 441.5 288.65 425 229.1 391.5 c 1
 166.9 0 l 1
 50.9004 0 l 1
EndSplineSet
AlternateSubs2: "'salt' Access All Alternates in Latin lookup 4-1" ncaron.salt
Substitution2: "'smcp' Lowercase to Small Capitals lookup 16-1" ncaron.smcp
EndChar

StartChar: ohungarumlaut
Encoding: 341 337 256
Width: 560
VWidth: 0
Flags: HW
LayerCount: 2
Fore
SplineSet
405.384 597.05 m 1
 523.584 733.55 l 1
 636.084 733.55 l 1
 488.384 597.05 l 1
 405.384 597.05 l 1
257.084 597.05 m 1
 375.284 733.55 l 1
 487.784 733.55 l 1
 340.084 597.05 l 1
 257.084 597.05 l 1
197.65 258 m 0
 172.85 109.45 209.95 93.5 294.75 93.5 c 0
 382.25 93.5 418.35 105.4 444.15 258 c 0
 469.3 409.4 445.35 438.55 349.7 438.55 c 0
 256.25 438.55 224.1 417.5 197.65 258 c 0
81.6504 266.75 m 0
 115.65 483.75 185.45 537.05 362.95 537.05 c 0
 537.25 537.05 591.85 444.65 560.15 249.25 c 0
 527.85 52.25 466.65 -5 286.05 -5 c 0
 108.8 -5 51.6504 76.75 81.6504 266.75 c 0
EndSplineSet
Substitution2: "'smcp' Lowercase to Small Capitals lookup 16-1" ohungarumlaut.smcp
EndChar

StartChar: rcaron
Encoding: 342 345 257
Width: 421
VWidth: 0
Flags: HW
LayerCount: 2
Fore
SplineSet
190.345 731.2 m 1
 271.445 731.2 l 1
 320.745 659.4 l 1
 398.145 731.2 l 1
 492.845 731.2 l 1
 360.445 597.7 l 1
 270.195 597.7 l 1
 190.345 731.2 l 1
50.9004 0 m 1
 134.9 531 l 1
 228.9 531 l 1
 239.9 464 l 1
 291.5 499.35 349 536.65 420.85 536.65 c 0
 446 536.65 472 535.35 484.4 529.7 c 1
 466.45 417.15 l 1
 453.05 419.1 421.05 421.05 391.35 421.05 c 0
 325.35 421.05 281.7 407.4 224.25 362.35 c 1
 166.9 0 l 1
 50.9004 0 l 1
EndSplineSet
AlternateSubs2: "'salt' Access All Alternates in Latin lookup 4-1" rcaron.salt
Substitution2: "'smcp' Lowercase to Small Capitals lookup 16-1" rcaron.smcp
EndChar

StartChar: uring
Encoding: 343 367 258
Width: 546
VWidth: 0
Flags: HW
LayerCount: 2
Fore
SplineSet
332.879 698.35 m 0
 330.473 672.2 350.258 651.7 376.408 651.7 c 0
 402.558 651.7 424.773 672.2 427.179 698.35 c 0
 429.586 724.5 410.857 746 384.707 746 c 0
 358.557 746 335.286 724.5 332.879 698.35 c 0
278.529 698.35 m 0
 283.52 755.35 332.837 800.3 388.837 800.3 c 0
 444.837 800.3 486.52 755.35 481.529 698.35 c 0
 476.538 641.35 428.629 597.05 372.629 597.05 c 0
 316.629 597.05 273.538 641.35 278.529 698.35 c 0
69.7002 171.5 m 2
 126.3 531 l 1
 242.3 531 l 1
 185.35 170.1 l 2
 175.1 106 202 89.5 242.85 89.5 c 0
 307.8 89.5 344.2 106 403.75 139.5 c 1
 465.3 531 l 1
 581.3 531 l 1
 496.95 0 l 1
 406.45 0 l 1
 390.6 58.5 l 1
 332.35 22.0996 282.45 -9 201.45 -9 c 0
 84.25 -9 53.6504 70.5498 69.7002 171.5 c 2
EndSplineSet
AlternateSubs2: "'salt' Access All Alternates in Latin lookup 4-1" uring.salt
Substitution2: "'smcp' Lowercase to Small Capitals lookup 16-1" uring.smcp
EndChar

StartChar: uhungarumlaut
Encoding: 344 369 259
Width: 546
VWidth: 0
Flags: HW
LayerCount: 2
Fore
SplineSet
397.098 597.05 m 1
 515.298 733.55 l 1
 627.798 733.55 l 1
 480.098 597.05 l 1
 397.098 597.05 l 1
248.798 597.05 m 1
 366.998 733.55 l 1
 479.498 733.55 l 1
 331.798 597.05 l 1
 248.798 597.05 l 1
69.7002 171.5 m 2
 126.3 531 l 1
 242.3 531 l 1
 185.35 170.1 l 2
 175.1 106 202 89.5 242.85 89.5 c 0
 307.8 89.5 344.2 106 403.75 139.5 c 1
 465.3 531 l 1
 581.3 531 l 1
 496.95 0 l 1
 406.45 0 l 1
 390.6 58.5 l 1
 332.35 22.0996 282.45 -9 201.45 -9 c 0
 84.25 -9 53.6504 70.5498 69.7002 171.5 c 2
EndSplineSet
AlternateSubs2: "'salt' Access All Alternates in Latin lookup 4-1" uhungarumlaut.salt
Substitution2: "'smcp' Lowercase to Small Capitals lookup 16-1" uhungarumlaut.smcp
EndChar

StartChar: tcommaaccent
Encoding: 345 355 260
Width: 376
VWidth: 0
Flags: HW
LayerCount: 2
Fore
SplineSet
66.1504 -185.25 m 1
 74.5996 -133.55 l 1
 124 -118.55 l 1
 154 -106.55 160.5 -83.75 166.5 -45.75 c 1
 251 -45.75 l 1
 235 -147.75 204.85 -185.25 120.65 -185.25 c 2
 66.1504 -185.25 l 1
73.7998 437 m 1
 84.9004 507 l 1
 179.55 532 l 1
 224.4 680 l 1
 318.9 680 l 1
 295.55 532 l 1
 427.45 532 l 1
 412.3 437 l 1
 280.4 437 l 1
 243.65 203.35 l 2
 230.05 114.15 245.3 104.7 277.65 94.6504 c 2
 277.65 94.6504 339.4 75.5996 342.5 75.5996 c 1
 331 -0.349609 l 1
 244.8 -0.349609 l 2
 153.75 -0.349609 104.85 55.5 125.55 189.35 c 2
 164.4 437 l 1
 73.7998 437 l 1
EndSplineSet
AlternateSubs2: "'salt' Access All Alternates in Latin lookup 4-1" tcommaaccent.salt
Substitution2: "'smcp' Lowercase to Small Capitals lookup 16-1" tcommaaccent.smcp
EndChar

StartChar: Lslash
Encoding: 346 321 261
Width: 532
VWidth: 0
Flags: HW
LayerCount: 2
Fore
SplineSet
34.9 310.55 m 1
 45.95 378.55 l 1
 132.1 412.8 l 1
 182.45 732 l 1
 297.8 732 l 1
 255.25 462.65 l 1
 385.7 514.95 l 1
 374 447.6 l 1
 244.85 395.3 l 1
 207.4 161 l 2
 199.4 108 232.4 109 261.4 109 c 2
 533.05 109 l 1
 515.8 0 l 1
 212.65 0 l 2
 137.245 0 71.5 35.85 87.55 136.5 c 2
 121.05 345.45 l 1
 34.9 310.55 l 1
EndSplineSet
Substitution2: "'c2sc' Capitals to Small Capitals in Latin lookup 17 subtable" lslash.smcp
EndChar

StartChar: uni00AD
Encoding: 173 173 262
Width: 354
VWidth: 0
Flags: HW
LayerCount: 2
Fore
SplineSet
57.55 239 m 1
 73.75 341 l 1
 387.75 341 l 1
 371.55 239 l 1
 57.55 239 l 1
EndSplineSet
Substitution2: "'case' Case-Sensitive Forms lookup 1-1" uni00AD.alt
Substitution2: "'c2sc' Capitals to Small Capitals in Latin lookup 17 subtable" uni00AD.smcp
Substitution2: "'smcp' Lowercase to Small Capitals lookup 16-1" uni00AD.smcp
EndChar

StartChar: lslash
Encoding: 347 322 263
Width: 351
VWidth: 0
Flags: HW
LayerCount: 2
Fore
SplineSet
71.65 357.1 m 1
 82.7 425.1 l 1
 162.25 457.05 l 1
 214.3 783 l 1
 332.25 783 l 1
 288.35 507.85 l 1
 422.45 561.5 l 1
 410.75 494.15 l 1
 277.95 439.85 l 1
 237.75 203 l 2
 222.85 114.5 239.75 105.05 272.1 95 c 2
 272.1 95 333.85 75.95 336.95 75.95 c 1
 325.45 0 l 1
 243.45 0 l 2
 156.25 0 97.65 48.65 119.65 189 c 2
 151.55 389.7 l 1
 71.65 357.1 l 1
EndSplineSet
Substitution2: "'smcp' Lowercase to Small Capitals lookup 16-1" lslash.smcp
EndChar

StartChar: Dcroat
Encoding: 348 272 264
Width: 658
VWidth: 0
Flags: HW
LayerCount: 2
Fore
SplineSet
219.45 107.45 m 1
 386.95 107.45 l 2
 491.4 107.45 551.55 217.8 574.85 364 c 0
 605.8 558.65 567.5 626.5 469.15 626.5 c 2
 301.65 626.5 l 1
 266.9 403.5 l 1
 388.4 403.5 l 1
 378.35 342.5 l 1
 256.85 342.5 l 1
 219.45 107.45 l 1
75.8496 342.5 m 1
 85.9004 403.5 l 1
 150.9 403.5 l 1
 202.55 731.35 l 2
 202.55 732 454.05 732 493.05 732 c 0
 708.95 732 717.35 504.25 691.5 352.5 c 0
 653.1 124.45 565.35 0 384.05 0 c 2
 86.5498 0 l 1
 140.85 342.5 l 1
 75.8496 342.5 l 1
EndSplineSet
Substitution2: "'c2sc' Capitals to Small Capitals in Latin lookup 17 subtable" dcroat.smcp
EndChar

StartChar: dcroat
Encoding: 349 273 265
Width: 553
VWidth: 0
Flags: HW
LayerCount: 2
Fore
SplineSet
198.7 266.5 m 0
 179.1 147.75 200.2 97.05 253.9 97.05 c 0
 316.1 97.05 367.75 114.4 409.35 134.65 c 1
 454.4 420.1 l 1
 408.7 435.65 366.35 442.25 307.55 442.25 c 0
 258.75 442.25 222.55 412 198.7 266.5 c 0
82 271.05 m 0
 107.8 432.3 151.4 539 299.95 539 c 0
 344.95 539 417.35 526.05 467.9 502.5 c 1
 484.5 609 l 1
 372.3 609 l 1
 382.35 670 l 1
 494.55 670 l 1
 513.2 785 l 1
 627.9 785 l 1
 609.9 670 l 1
 677.35 670 l 1
 667.3 609 l 1
 599.85 609 l 1
 503.25 0 l 1
 410.7 0 l 1
 396.5 55.5 l 1
 362.25 31.6 285.95 -6 221.1 -6 c 0
 88.45 -6 57.8 121.4 82 271.05 c 0
EndSplineSet
AlternateSubs2: "'salt' Access All Alternates in Latin lookup 4-1" dcroat.salt
Substitution2: "'smcp' Lowercase to Small Capitals lookup 16-1" dcroat.smcp
EndChar

StartChar: questiondown
Encoding: 191 191 266
Width: 539
VWidth: 0
Flags: HW
LayerCount: 2
Fore
SplineSet
315.4 369.05 m 2
 327.55 447.05 l 2
 329.9 463.1 340.6 470.05 354.6 470.05 c 2
 429.9 470.05 l 2
 443.9 470.05 452.55 461.05 450.55 447.05 c 2
 438.4 369.05 l 2
 436.4 354.05 426.4 344.05 410.4 344.05 c 2
 335.1 344.05 l 2
 319.05 344.05 313.05 354.35 315.4 369.05 c 2
20.75 -69.25 m 2
 33.95 14.25 l 2
 56.9 160.3 150.7 196.8 294.25 181.05 c 1
 294.25 183 309.85 271.15 309.2 275.05 c 1
 408.7 275.05 l 1
 379.55 92.05 l 1
 341.85 92.7 292.75 93.35 255.05 92.05 c 0
 206.05 90.05 158.9 67.25 148.95 5.15 c 2
 137.5 -65.75 l 2
 126.6 -135.75 155.9 -161.55 242.15 -161.55 c 2
 499.15 -161.55 l 1
 485.9 -245.45 l 1
 386.8 -261.95 313.55 -273.95 199.55 -268.95 c 1
 59.25 -268.95 4.75 -167.25 20.75 -69.25 c 2
EndSplineSet
Substitution2: "'case' Case-Sensitive Forms lookup 1-1" questiondown.alt
Substitution2: "'smcp' Lowercase to Small Capitals lookup 16-1" questiondown.smcp
EndChar

StartChar: at.alt
Encoding: 350 -1 267
Width: 793
VWidth: 0
Flags: HW
LayerCount: 2
Fore
SplineSet
373.2 337 m 0
 358.7 225.25 367.8 170.1 443 170.5 c 0
 498 170.55 537.55 185.7 581.2 234 c 1
 624.5 511.05 l 1
 575.35 522.85 535.7 523.2 500 523.2 c 0
 446.25 523.2 393.4 490.85 373.2 337 c 0
69.7 102.5 m 2
 147.9 597 l 2
 168.15 722.25 240.8 789 384.75 789 c 2
 752.75 789 l 2
 884.4 789 925.15 702.3 906.4 576 c 2
 856.2 239.5 l 2
 846.05 170.45 816.15 79 672.15 79 c 2
 593.65 79 l 1
 570.3 135.5 l 1
 544.9 105.35 501.65 71.95 428.65 72 c 0
 312.75 72.1 245.1 147.45 276.65 356.95 c 0
 310.65 578.3 417.65 620.7 502.15 620.7 c 0
 589.6 620.7 677.8 605.25 728.8 556.25 c 1
 674 177.5 l 1
 722 177.5 747.85 186.5 760.5 267.5 c 2
 807.55 583 l 2
 822.5 685.05 784.25 689.5 733.4 689.5 c 2
 365.4 689.5 l 2
 270.4 689.5 252.45 623.1 246.05 583 c 2
 168.9 95.5 l 2
 159.9 38.5 168.95 -11.5 254.95 -11.5 c 2
 640.95 -11.5 l 1
 629.1 -83 l 1
 579.1 -93 463.1 -110 337.1 -110 c 2
 242.6 -110 l 2
 100.45 -110 52 -10.8 69.7 102.5 c 2
EndSplineSet
EndChar

StartChar: questiondown.alt
Encoding: 351 -1 268
Width: 539
VWidth: 0
Flags: HW
LayerCount: 2
Fore
SplineSet
356.4 635.85 m 2
 368.55 713.85 l 2
 370.9 729.9 381.6 736.85 395.6 736.85 c 2
 470.9 736.85 l 2
 484.9 736.85 493.55 727.85 491.55 713.85 c 2
 479.4 635.85 l 2
 477.4 620.85 467.4 610.85 451.4 610.85 c 2
 376.1 610.85 l 2
 360.05 610.85 354.05 621.15 356.4 635.85 c 2
61.75 197.9 m 2
 74.95 281.4 l 2
 96.6 420.3 191.7 463.6 335.25 447.85 c 1
 335.25 449.8 350.85 537.95 350.2 541.85 c 1
 449.7 541.85 l 1
 420.55 358.85 l 1
 382.85 359.5 333.75 360.15 296.05 358.85 c 0
 247.05 356.85 199.9 334.05 189.95 271.95 c 2
 178.5 201.05 l 2
 168.25 137.55 196.9 105.25 283.15 105.25 c 2
 540.15 105.25 l 1
 526.9 21.35 l 1
 427.8 4.85 354.55 -7.15 240.55 -2.15 c 1
 100.25 -2.15 45.75 99.9 61.75 197.9 c 2
EndSplineSet
EndChar

StartChar: oe
Encoding: 352 339 269
Width: 893
VWidth: 0
Flags: HW
LayerCount: 2
Fore
SplineSet
565.1 293.25 m 1
 565.1 293.25 779.45 263.65 798.6 375.75 c 0
 808.5 433.1 775 442.85 707 442.5 c 0
 588.95 441.8 579.9 368.15 565.1 293.25 c 1
190.7 258 m 0
 165.9 109.45 203 93.5 287.8 93.5 c 0
 375.3 93.5 411.4 105.4 437.2 258 c 0
 462.35 409.4 438.4 438.55 342.75 438.55 c 0
 249.3 438.55 217.15 417.5 190.7 258 c 0
74.7 268.7 m 0
 108.7 485.7 178.5 537.05 356 537.05 c 0
 437.05 537.05 491.15 515.7 520.9 472.35 c 1
 558.6 517.05 616.8 540.65 714.85 541 c 0
 833.5 541.35 927.5 507.85 916.7 388 c 0
 896.75 154.3 592 199.75 555 214.75 c 1
 538.9 118.05 558.25 90.25 629.25 90.25 c 0
 694.75 90.25 790.1 95.35 857.95 106 c 1
 844.35 22 l 1
 762.8 -1.7 678.05 -11.2 577.2 -7 c 1
 523.45 -5.95 488.35 12.8 468 49.9 c 1
 426.65 10.1 367.4 -5 279.1 -5 c 0
 101.85 -5 44.7 78.7 74.7 268.7 c 0
EndSplineSet
Substitution2: "'smcp' Lowercase to Small Capitals lookup 16-1" oe.smcp
EndChar

StartChar: OE
Encoding: 353 338 270
Width: 1051
VWidth: 0
Flags: HW
LayerCount: 2
Fore
SplineSet
209.15 361 m 0
 174.1 140.4 210.6 105 342.4 105 c 0
 464.8 105 523.05 144.9 557.15 361 c 0
 597.15 614.85 538 628 425.55 628 c 0
 308.3 628 249.5 618 209.15 361 c 0
93.15 369.75 m 0
 147.15 712.75 263.75 737 436.3 737 c 0
 521.1 737 590.45 725.1 632.5 671.45 c 1
 662.45 723.5 711.5 735 767.3 732 c 2
 767.3 732 1037.9 721.6 1078.15 716 c 1
 1063.2 621.25 l 1
 770.7 621.25 l 2
 721.3 621.25 713.7 592.25 709.7 565.25 c 2
 687.45 421.25 l 1
 986.1 410.9 l 1
 971.5 316.2 l 1
 669.2 306.55 l 1
 645.6 159.75 l 2
 637.9 106.75 670.9 107.75 699.9 107.75 c 2
 982.4 107.75 l 1
 967.15 14 l 1
 930.05 9.1 661.3 -3 661.3 -3 c 2
 616.6 -5.65 566.95 10.1 544.9 52.65 c 1
 488.9 4.85 417.7 -4 331.65 -4 c 0
 163.35 -4 40.15 36.75 93.15 369.75 c 0
EndSplineSet
EndChar

StartChar: Ydieresis
Encoding: 354 376 271
Width: 647
VWidth: 0
Flags: HW
LayerCount: 2
Fore
SplineSet
499.85 850 m 0
 504.55 880.8 534 905.25 564.8 905.25 c 0
 595.6 905.25 616.05 880.8 611.35 850 c 0
 606.65 819.2 577.85 793.75 547.05 793.75 c 0
 516.25 793.75 495.15 819.2 499.85 850 c 0
244.85 850 m 0
 249.55 880.8 279 905.25 309.8 905.25 c 0
 340.6 905.25 361.05 880.8 356.35 850 c 0
 351.65 819.2 322.85 793.75 292.05 793.75 c 0
 261.25 793.75 240.15 819.2 244.85 850 c 0
115.05 732 m 1
 239.6 732 l 1
 339.6 370.95 l 1
 569.2 732 l 1
 703.05 732 l 1
 379.6 239 l 1
 341.75 0 l 1
 225.75 0 l 1
 263.6 239 l 1
 115.05 732 l 1
EndSplineSet
Substitution2: "'c2sc' Capitals to Small Capitals in Latin lookup 17 subtable" ydieresis.smcp
EndChar

StartChar: guillemotright
Encoding: 187 187 272
Width: 567
VWidth: 0
Flags: HW
LayerCount: 2
Fore
SplineSet
284.45 215.4 m 1
 452.4 360.2 l 1
 334 496.7 l 1
 404.8 557 l 1
 581.4 350.75 l 1
 344.8 146 l 1
 284.45 215.4 l 1
75.75 215.4 m 1
 243.7 360.2 l 1
 125.65 496.7 l 1
 196.45 557 l 1
 372.7 350.75 l 1
 136.1 146 l 1
 75.75 215.4 l 1
EndSplineSet
EndChar

StartChar: cent
Encoding: 162 162 273
Width: 486
VWidth: 0
Flags: HW
LayerCount: 2
Fore
SplineSet
74.4 276.5 m 0
 115.2 517.65 195.25 540.55 301.8 537.3 c 1
 317.8 634 l 1
 394.6 634 l 1
 377.95 533.35 l 1
 425.55 528.05 481.1 519.05 526.2 506.5 c 1
 514.05 431.5 l 1
 514.05 431.5 403.7 438.8 314.7 438.8 c 0
 252.55 438.8 220.15 434.3 189.4 262.7 c 0
 165.2 123.15 191.95 92.2 259.4 92.2 c 0
 351.4 92.2 468.75 102.15 468.75 102.15 c 1
 456.6 25.85 l 1
 399.1 3.6 346.25 -3.4 291.2 -5.35 c 1
 277.85 -95.65 l 1
 201.05 -95.65 l 1
 214.75 -5.65 l 1
 110.6 -4.3 39.8 71.5 74.4 276.5 c 0
EndSplineSet
EndChar

StartChar: sterling
Encoding: 163 163 274
Width: 587
VWidth: 0
Flags: HW
LayerCount: 2
Fore
SplineSet
42.3 0 m 1
 56.55 90.5 l 1
 128.4 109 l 1
 161.4 319.5 l 1
 92.9 319.5 l 1
 102.7 382 l 1
 174.55 402.5 l 1
 190.45 501.5 l 2
 225.8 724.6 330.7 732 472.3 732 c 0
 529.3 732 658.3 716 658.3 716 c 1
 644.05 624 l 1
 458.1 624 l 2
 352.65 624 322.9 606.6 305.75 498.7 c 2
 290.55 402.5 l 1
 527.05 385.5 l 1
 516.9 319.5 l 1
 277.4 319.5 l 1
 244.4 109 l 1
 561.9 109 l 1
 544.3 0 l 1
 42.3 0 l 1
EndSplineSet
Substitution2: "'smcp' Lowercase to Small Capitals lookup 16-1" sterling.smcp
EndChar

StartChar: yen
Encoding: 165 165 275
Width: 622
VWidth: 0
Flags: HW
LayerCount: 2
Fore
SplineSet
114.4 144.25 m 1
 125.85 217.25 l 1
 273.35 217.25 l 1
 279.3 258.5 l 1
 132.45 258.5 l 1
 144.55 331.5 l 1
 266.45 331.5 l 1
 132.5 732 l 1
 257.05 732 l 1
 356 402.15 l 1
 581.8 732 l 1
 720.5 732 l 1
 430.45 331.5 l 1
 571.55 331.5 l 1
 559.45 258.5 l 1
 395.3 258.5 l 1
 389.35 217.25 l 1
 552.85 217.25 l 1
 541.4 144.25 l 1
 379.2 144.25 l 1
 359.2 0 l 1
 243.2 0 l 1
 263.2 144.25 l 1
 114.4 144.25 l 1
EndSplineSet
Substitution2: "'smcp' Lowercase to Small Capitals lookup 16-1" yen.smcp
EndChar

StartChar: section
Encoding: 167 167 276
Width: 544
VWidth: 0
Flags: HW
LayerCount: 2
Fore
SplineSet
219 361.4 m 2
 212.7 322 229.3 318 261.05 318 c 2
 380.9 318 l 2
 430.1 318 434.85 334.4 438.85 362.4 c 0
 439.85 363.4 446.4 409 446.4 409 c 2
 451.35 438.75 452 456 403 456 c 2
 283.15 456 l 2
 242.6 456 232.8 445.85 226.55 407 c 2
 219 361.4 l 2
84.6 11 m 1
 97.8 94 l 1
 345.6 94 l 2
 375.4 94 397 98.35 402.6 129.95 c 2
 410.45 181.6 l 2
 415.7 213.8 402.55 219.5 369.2 219.5 c 2
 228.75 219.5 l 2
 145 219.5 86.5 260 100.85 349.5 c 2
 108.05 394 l 2
 115 437.7 125.85 478.1 179.65 494 c 1
 134.75 521.2 134.3 563.4 139.95 597 c 2
 148.15 653 l 2
 162.1 749.05 222.75 784 306.6 784 c 0
 372.75 784 535 773.55 581.1 765 c 1
 568.55 682 l 1
 315.55 682 l 2
 286.1 682 268.7 672 263.45 641.1 c 2
 255.95 593.5 l 2
 251.7 565.65 269.55 554.2 295.55 554.2 c 2
 438.85 554.2 l 2
 533.65 554.2 577.6 503.05 565.55 424.4 c 2
 558.35 379.9 l 2
 553.65 348.05 541.2 294.1 490.4 282.5 c 1
 534.15 269.9 532.15 216 527.15 183 c 2
 517.9 120.5 l 1
 500.15 9.65 447.45 -8 358.1 -8 c 0
 287.4 -8 128.25 2.1 84.6 11 c 1
EndSplineSet
EndChar

StartChar: g.salt
Encoding: 355 -1 277
Width: 517
VWidth: 0
Flags: HW
LayerCount: 2
Fore
SplineSet
207.45 344 m 0
 199.45 295 203.3 244 265.95 244 c 2
 335.45 244 l 2
 395.05 244 415.3 307.4 420.95 344 c 0
 429.95 399 424.4 438 365.8 438 c 2
 296.3 438 l 2
 232.5 438 216.45 396 207.45 344 c 0
133.2 -105.5 m 2
 121.4 -163.95 155.45 -169.8 191.45 -169.8 c 2
 302.95 -169.8 l 2
 349.7 -169.8 364.75 -145.85 370.35 -109 c 2
 373.95 -86.95 l 2
 379.9 -46.6 357.7 -30.95 315.8 -24 c 2
 154.85 0 l 1
 133.2 -105.5 l 2
15.85 -109 m 2
 59.45 114 l 1
 64.45 150 86.45 200 136.45 200 c 1
 88.75 230.8 83.45 301.5 91.45 354.5 c 0
 112.5 490.1 195 535 297.45 533 c 2
 398.95 531 l 2
 466.95 530.65 559.15 488.85 536.95 333.5 c 0
 526.25 256.5 475.95 148 333.95 148 c 2
 221.95 148 l 2
 205.95 148 181.3 153 176.3 126.25 c 0
 171.95 103.05 192.35 96.85 213 93.5 c 2
 369.7 69.55 l 1
 437.35 58.1 505.75 10 491.35 -79.5 c 2
 484.95 -119.5 l 2
 472.9 -196.15 447.45 -270 300.45 -270 c 2
 171.95 -270 l 2
 50.35 -270 -3.15 -205 15.85 -109 c 2
EndSplineSet
EndChar

StartChar: guillemotleft
Encoding: 171 171 278
Width: 570
VWidth: 0
Flags: HW
LayerCount: 2
Fore
SplineSet
304.4 354 m 1
 542.4 557 l 1
 601 488.65 l 1
 434.1 345.95 l 1
 555.65 203.85 l 1
 482.4 146 l 1
 304.4 354 l 1
98.3 354 m 1
 336.3 557 l 1
 394.9 488.65 l 1
 228 345.95 l 1
 349.55 203.85 l 1
 276.3 146 l 1
 98.3 354 l 1
EndSplineSet
EndChar

StartChar: paragraph
Encoding: 182 182 279
Width: 578
VWidth: 0
Flags: HW
LayerCount: 2
Fore
SplineSet
205.25 507.3 m 2
 196 448.15 235.65 446.5 261.05 446.5 c 2
 313.5 446.5 l 1
 344.9 642.45 l 1
 294.4 642.45 l 2
 238.15 642.45 222.8 620.15 216.45 578.8 c 2
 205.25 507.3 l 2
112.05 506.7 m 2
 126.05 599.7 l 2
 143 707.05 222.4 732 305.35 732 c 2
 677.35 732 l 1
 662.55 638.5 l 1
 604.05 638.5 l 1
 502.85 0 l 1
 411.35 0 l 1
 512.9 640.5 l 1
 436.4 640.5 l 1
 292.2 -270 l 1
 200.7 -270 l 1
 302.35 372 l 1
 296.35 370 271.95 355 243.1 355 c 0
 132.35 355 101.35 439.1 112.05 506.7 c 2
EndSplineSet
EndChar

StartChar: macron
Encoding: 175 175 280
Width: 376
VWidth: 0
Flags: HW
HStem: 531 73.5<138.05 418.3>
VStem: 126.3 303.75
LayerCount: 2
Fore
SplineSet
126.3 531 m 1
 138.05 604.5 l 1
 430.05 604.5 l 1
 418.3 531 l 1
 126.3 531 l 1
EndSplineSet
Substitution2: "'smcp' Lowercase to Small Capitals lookup 16-1" macron.smcp
EndChar

StartChar: copyright
Encoding: 169 169 281
Width: 800
VWidth: 0
Flags: HW
LayerCount: 2
Fore
SplineSet
281.8 370.95 m 0
 309.75 542.35 375.65 583 459.8 583 c 0
 500.8 583 582.95 573.2 637.3 559 c 1
 627.2 493 l 1
 565.2 502 494.7 505 461.7 505 c 0
 407.7 505 378.6 463.5 362.3 362 c 0
 349.3 278 359 225 419.7 225 c 0
 487.15 225 555.65 234.95 593.4 241 c 1
 583.3 175 l 1
 520.15 153.5 460.95 147 393.95 147 c 0
 314.95 147 255.75 208.9 281.8 370.95 c 0
183.8 368 m 0
 160.1 219.4 188.2 78 302.2 78 c 2
 541.6 78 l 2
 623.8 78 700.3 164 732.3 368 c 0
 751.3 488 768.85 654 637.85 654 c 2
 392.35 654 l 2
 304 654 220.4 600.55 183.8 368 c 0
102.3 375 m 0
 130.7 558.95 199.15 732 404.1 732 c 2
 643.1 732 l 2
 838.95 732 838.7 513.35 813.8 357.5 c 0
 779.3 141.4 686.35 0 535.35 0 c 2
 296.35 0 l 2
 104 0 79.65 228.1 102.3 375 c 0
EndSplineSet
EndChar

StartChar: registered
Encoding: 174 174 282
Width: 800
VWidth: 0
Flags: HW
LayerCount: 2
Fore
SplineSet
392.5 386 m 1
 483.5 386 l 2
 535.5 386 545.65 395.85 553.6 447.5 c 0
 561.85 499.65 534.65 502 502 502 c 2
 411 502 l 1
 392.5 386 l 1
273.95 153 m 1
 341.95 580 l 1
 522.45 580 l 2
 579.35 580 649.85 554.95 635.1 444.6 c 1
 621.8 336.4 569.5 327.65 529.95 317.5 c 1
 592.2 153 l 1
 503.05 153 l 1
 442.9 316 l 1
 383.4 328 l 1
 355.45 153 l 1
 273.95 153 l 1
183.8 368 m 0
 160.1 219.4 188.2 78 302.2 78 c 2
 541.6 78 l 2
 623.8 78 700.3 164 732.3 368 c 0
 751.3 488 768.85 654 637.85 654 c 2
 392.35 654 l 2
 304 654 220.4 600.55 183.8 368 c 0
102.3 375 m 0
 130.7 558.95 199.15 732 404.1 732 c 2
 643.1 732 l 2
 838.95 732 838.7 513.35 813.8 357.5 c 0
 779.3 141.4 686.35 0 535.35 0 c 2
 296.35 0 l 2
 104 0 79.65 228.1 102.3 375 c 0
EndSplineSet
EndChar

StartChar: plusminus
Encoding: 177 177 283
Width: 509
VWidth: 0
Flags: HW
LayerCount: 2
Fore
SplineSet
108.6 383.5 m 1
 124.15 485.5 l 1
 280.15 485.5 l 1
 305.05 642.5 l 1
 407.05 642.5 l 1
 382.15 485.5 l 1
 540.15 485.5 l 1
 524.6 383.5 l 1
 366.6 383.5 l 1
 341.05 226.5 l 1
 239.05 226.5 l 1
 264.6 383.5 l 1
 108.6 383.5 l 1
59.2 76.5 m 1
 75.4 178.5 l 1
 491.4 178.5 l 1
 475.2 76.5 l 1
 59.2 76.5 l 1
EndSplineSet
EndChar

StartChar: logicalnot
Encoding: 172 172 284
Width: 505
VWidth: 0
Flags: HW
LayerCount: 2
Fore
SplineSet
77.75 245.5 m 1
 93.6 344 l 1
 520.6 344 l 1
 511.6 287 500.15 216 491.15 159 c 1
 392.65 159 l 1
 406.25 245.5 l 1
 77.75 245.5 l 1
EndSplineSet
EndChar

StartChar: guilsinglleft
Encoding: 356 8249 285
Width: 292
VWidth: 0
Flags: HW
LayerCount: 2
Fore
SplineSet
26.45 354 m 1
 264.45 557 l 1
 323.05 488.65 l 1
 159.65 349.45 l 1
 277.7 210.85 l 1
 204.45 146 l 1
 26.45 354 l 1
EndSplineSet
EndChar

StartChar: guilsinglright
Encoding: 357 8250 286
Width: 358
VWidth: 0
Flags: HW
LayerCount: 2
Fore
SplineSet
98.3 215.4 m 1
 262.05 355.3 l 1
 144.7 493.2 l 1
 219 557 l 1
 395.25 350.75 l 1
 155.5 146 l 1
 98.3 215.4 l 1
EndSplineSet
EndChar

